<svg xmlns="http://www.w3.org/2000/svg" fill="none" viewBox="0 0 120 153">
  <g clip-path="url(#8K8x1FWbMa)">
    <path d="M25.07 72.816l-4.715 1.93 4.92 1.552-.206-3.482z" fill="#7534ED"/>
    <path d="M62.648 103.042l-1.764-3.418-1.935 2.411 3.7 1.007z" fill="#5915DC"/>
    <path d="M25.274 76.298l-1.685 3.455 3.616-.55-1.93-2.905z" fill="#7231EC"/>
    <path d="M100.999 56.163l2.467 2.942 1.142-3.524-3.609.582z" fill="#D193F6"/>
    <path d="M56.727 98.881l4.157.743-.885-2.963-3.272 2.22z" fill="#5B18DE"/>
    <path d="M23.951 67.846l-1.844 3.025 2.962 1.945-1.117-4.97z" fill="#7838EF"/>
    <path d="M26.064 65.16l-4.788.498 2.676 2.188 2.112-2.687z" fill="#7939EF"/>
    <path d="M111.65 42.452l-4.217-1.488-.695 3.5 4.912-2.012z" fill="#CF91F7"/>
    <path d="M20.355 74.746l4.714-1.93-2.961-1.945-1.753 3.875z" fill="#7534ED"/>
    <path d="M13.694 26.078l3.185 1.593-1.416-3.04-1.77 1.447z" fill="#9657FA"/>
    <path d="M103.864 40.954l2.873 3.51.695-3.5-3.568-.01z" fill="#CF91F7"/>
    <path d="M18.684 63.372l2.592 2.286 2.167-2.692-4.76.406z" fill="#7D3DF1"/>
    <path d="M32.328 75.31l1.428-3.864-4.654.445 3.226 3.42z" fill="#702FEB"/>
    <path d="M19.01 30.26l3.6-4.566-3.225-.051-.376 4.617z" fill="#9758FA"/>
    <path d="M27.205 79.202l-1.653 3.263 4.3-.036-2.647-3.227z" fill="#702FEB"/>
    <path d="M102.488 52.603l3.434-.167-.339-3.39-3.095 3.557z" fill="#D193F6"/>
    <path d="M33.186 81.606l-3.334.823 4.043 3.484-.71-4.307z" fill="#6C2BE9"/>
    <path d="M32.234 90.416l5.84-3.242-4.179-1.26-1.66 4.502z" fill="#6927E6"/>
    <path d="M109.751 51.249l-3.83 1.187 3.045 1.533.785-2.72z" fill="#D092F6"/>
    <path d="M30.214 65.677l-2.632 2.849 3.697-.996-1.065-1.853z" fill="#7737EE"/>
    <path d="M68.273 18.84l-1.434 3.912 1.764.242-.33-4.153z" fill="#BC7EFB"/>
    <path d="M30.213 65.677l-1.017-1.881-3.133 1.363 4.15.518z" fill="#7737EE"/>
    <path d="M44.397 24.478l1.742-.454-.016-4.55-1.726 5.004z" fill="#AB6CFC"/>
    <path d="M25.07 72.816l4.033-.925-1.521-3.365-2.513 4.29z" fill="#7534ED"/>
    <path d="M26.063 65.16l1.518 3.366 2.632-2.849-4.15-.518z" fill="#7939EF"/>
    <path d="M102.253 45.145l-3.67-4.016-.392 2.103 4.062 1.913z" fill="#D092F7"/>
    <path d="M64.194 17.998l.254-4.568-2.525 2.15 2.27 2.418z" fill="#B97BFB"/>
    <path d="M27.42 84.853l2.627 3.122-.195-5.546-2.432 2.424z" fill="#6D2CE9"/>
    <path d="M107.167 59.255l-2.559-3.674-1.142 3.524 3.701.15z" fill="#D193F6"/>
    <path d="M28.229 61.885l-.919-1.938-3.867 3.019 4.786-1.08z" fill="#7B3AF0"/>
    <path d="M14.612 54.297l-4.21-2.542.83 2.769 3.38-.227z" fill="#8444F4"/>
    <path d="M25.58 55.883l-2.504 2.29 3.365-.193-.862-2.097z" fill="#8040F3"/>
    <path d="M17.54 52.596l1.198-4.043-4.487 1.25 3.29 2.793z" fill="#8545F5"/>
    <path d="M52.1 16.261l2.057 3.268 1.275-2.87-3.331-.398z" fill="#B173FC"/>
    <path d="M23.443 62.966l-.366-4.794-3.13 1.251 3.496 3.543z" fill="#7C3BF1"/>
    <path d="M16.78 60.587l3.167-1.164-2.84-2.837-.328 4z" fill="#7F3FF2"/>
    <path d="M15.624 45.71l6.662-.34-.47-2.14-6.191 2.48z" fill="#8A4BF7"/>
    <path d="M19.01 30.26l.375-4.617-2.506 2.028 2.13 2.59z" fill="#9758FA"/>
    <path d="M103.867 65.004l-.095-.522-.135.447.23.075z" fill="#D193F6"/>
    <path d="M21.816 43.23l-.38-2.02-5.427.963 5.807 1.057z" fill="#8C4CF7"/>
    <path d="M18.738 48.553l3.548-3.182-6.662.34 3.114 2.842z" fill="#8848F6"/>
    <path d="M16.917 38.733l-.908 3.44 5.427-.962-4.52-2.478z" fill="#9051F8"/>
    <path d="M17.108 56.586l-3.703 4.045 3.374-.044.329-4z" fill="#8242F3"/>
    <path d="M15.463 24.63l3.922 1.013-2.329-2.23-1.593 1.218z" fill="#9859FA"/>
    <path d="M62.755 109.77l.553-1.756-1.901.308 1.348 1.448z" fill="#5915DC"/>
    <path d="M21.053 55.476l4.526.407-.794-2.105-3.732 1.698z" fill="#8242F3"/>
    <path d="M64.002 106.629l-2.595 1.693 1.9-.308.695-1.385z" fill="#5815DC"/>
    <path d="M23.076 58.172l.367 4.794 3.867-3.02-4.234-1.774z" fill="#7F3FF2"/>
    <path d="M25.58 55.883l-4.526-.407 2.022 2.696 2.503-2.29z" fill="#8040F3"/>
    <path d="M58.499 18.017l1.1 4.294 1.752-2.737-2.852-1.558z" fill="#B577FB"/>
    <path d="M84.506 84.208l5.956 1.52-.344-2.701-5.612 1.18z" fill="#520ED7"/>
    <path d="M17.541 52.596l5.861-3.027-4.664-1.016-1.197 4.043z" fill="#8545F5"/>
    <path d="M60 96.661l-2.278-1.507-.995 3.727L60 96.661z" fill="#5A16DD"/>
    <path d="M17.107 56.586l3.947-1.11-3.513-2.88-.434 3.99z" fill="#8242F3"/>
    <path d="M23.402 49.569l-5.861 3.027 6.541-.855-.68-2.172z" fill="#8646F5"/>
    <path d="M54.324 108.57l.582.319.915-2.36-1.497 2.041z" fill="#5B18DD"/>
    <path d="M105.584 63.146l.602-1.388-2.72-2.653 2.118 4.041z" fill="#D193F6"/>
    <path d="M24.082 51.741l-6.541.855 3.513 2.88 3.028-3.735z" fill="#8444F4"/>
    <path d="M23.444 62.966l-2.168 2.692 4.788-.499-2.62-2.193z" fill="#7C3BF1"/>
    <path d="M62.344 9.163l-1.287-.004-.426 2.44 1.713-2.436z" fill="#B87AFB"/>
    <path d="M38.042 18.03l-3.662-.158 3.838 3.82-.176-3.661z" fill="#A769FC"/>
    <path d="M55.784 22.48l-1.627-2.95-.276 3.128 1.903-.178z" fill="#B375FB"/>
    <path d="M51.216 106.551l3.108 2.019 1.497-2.041-4.605.022z" fill="#5C19DE"/>
    <path d="M41.498 86.284l-1.893 3.832 3.266-.572-1.373-3.26z" fill="#6624E5"/>
    <path d="M56.727 98.881l.995-3.727-4.242 1.273 3.247 2.454z" fill="#5B18DE"/>
    <path d="M45.33 93.91l-2.679 2.22 3.395 1.369-.716-3.59z" fill="#621FE2"/>
    <path d="M46.047 97.499l-3.395-1.368-.836 3.379 4.23-2.011z" fill="#601EE1"/>
    <path d="M57.722 95.154l-1.901-1.326-2.341 2.599 4.242-1.273z" fill="#5C18DE"/>
    <path d="M47.955 104.276l.738-4.249-3.87 1.903 3.132 2.346z" fill="#5D1BDF"/>
    <path d="M84.034 94.241l-2.021-4.998-2.854 2.23 4.875 2.768z" fill="#530FD8"/>
    <path d="M51.272 102.996l-2.579-2.969-.738 4.249 3.317-1.28z" fill="#5D1ADF"/>
    <path d="M73.055 86.668l-1.944 1.725 2.255 2.537-.311-4.262z" fill="#5310D8"/>
    <path d="M79.159 91.472l.193-4.685-3.191 2.215 2.998 2.47z" fill="#530FD8"/>
    <path d="M40.712 93.24l-1.525 4 3.464-1.11-1.939-2.89z" fill="#6422E3"/>
    <path d="M55.821 106.529l-.196 2.695.74.283-.544-2.978z" fill="#5B17DD"/>
    <path d="M34.502 92.788l5.103-2.672-1.53-2.942-3.573 5.614z" fill="#6725E5"/>
    <path d="M59.714 108.591l-1.17 1.427.792.075.378-1.502z" fill="#5916DC"/>
    <path d="M81.338 23.274l-.441-2.965-4.405.179 4.846 2.786z" fill="#C486F9"/>
    <path d="M59.713 108.591l-.377 1.502.665.02-.288-1.522z" fill="#5916DC"/>
    <path d="M85.841 19.424l-1.507 3.954 3.11-1.078-1.603-2.877zm-1.508 3.954l-.185 4.229 4.884-1.224-4.699-3.005z" fill="#C587F9"/>
    <path d="M61.407 108.322l-1.694.269 1.614 1.443.08-1.712z" fill="#5916DC"/>
    <path d="M58.615 107.5l-1.494 2.237.771.176.723-2.413z" fill="#5A16DD"/>
    <path d="M41.816 99.51l3.008 2.42 1.223-4.431-4.23 2.01z" fill="#611FE2"/>
    <path d="M58.545 110.018l1.169-1.427-1.1-1.091-.07 2.518z" fill="#5A16DD"/>
    <path d="M55.303 102.833l3.646-.798-2.222-3.154-1.424 3.952z" fill="#5B18DE"/>
    <path d="M58.615 107.5l-.723 2.413.652.105.07-2.518z" fill="#5A16DD"/>
    <path d="M57.121 109.737l1.494-2.237-2.25 2.007.756.23z" fill="#5A17DD"/>
    <path d="M104.512 64.306l.469.228.603-1.388-1.072 1.16z" fill="#D193F6"/>
    <path d="M81.426 26.454l-.089-3.18-1.57 2.554 1.659.626z" fill="#C486F9"/>
    <path d="M45.33 93.91l-4.617-.67 1.938 2.891 2.68-2.222z" fill="#621FE2"/>
    <path d="M50.063 95.68l3.417.747.486-3.957-3.903 3.21z" fill="#5F1CE0"/>
    <path d="M42.049 81.836l-4.786 1.12 4.235 3.328.55-4.448z" fill="#6826E6"/>
    <path d="M64.002 106.629l2.479-3.693-3.832.106 1.353 3.587z" fill="#5815DC"/>
    <path d="M58.499 18.017l-3.067-1.358-1.275 2.87 4.342-1.512z" fill="#B577FB"/>
    <path d="M38.927 78.314l-1.365-1.673-1.066 3.421 2.43-1.748z" fill="#6C2AE8"/>
    <path d="M45.33 93.91l-2.459-4.366-2.158 3.697 4.617.668z" fill="#621FE2"/>
    <path d="M37.561 76.641l-3.337 1.47 2.271 1.951 1.066-3.42z" fill="#6D2CE9"/>
    <path d="M38.218 21.692l3.458-3.186-3.634-.475.176 3.66z" fill="#A768FC"/>
    <path d="M32.328 75.31l-1.611 3.796 3.508-.995-1.897-2.8z" fill="#702FEB"/>
    <path d="M41.55 21.84l-.884 3.802L42.614 25l-1.064-3.16z" fill="#A96BFC"/>
    <path d="M36.245 74.939l-1.269-1.732-2.648 2.104 3.917-.372z" fill="#6F2DEA"/>
    <path d="M32.328 75.31l1.897 2.8 2.02-3.171-3.917.372z" fill="#702FEB"/>
    <path d="M26.832 32.64l1.612-1.067-2.986-2.76 1.374 3.828z" fill="#9A5CFB"/>
    <path d="M73.146 13.825l-1.612-3.677-1.682 3.914 3.294-.237z" fill="#BE80FA"/>
    <path d="M36.853 95.093l3.86-1.852-1.108-3.125-2.752 4.977z" fill="#6523E4"/>
    <path d="M108.373 32.392l-3.061 3.481 4.682-1.679-1.621-1.802z" fill="#CE90F7"/>
    <path d="M46.164 90.564l4.233-.903-1.715-1.45-2.518 2.353z" fill="#6320E3"/>
    <path d="M7.737 37.489l2.152-3.692-2.293 1.02.141 2.672z" fill="#9051F9"/>
    <path d="M52.158 91.081l-2.095 4.599 3.903-3.21-1.808-1.389z" fill="#601DE1"/>
    <path d="M50.063 95.68l2.094-4.599-3.348 1.51 1.254 3.089z" fill="#5F1CE0"/>
    <path d="M62.755 109.77l-1.348-1.448.574 1.615.774-.167z" fill="#5915DC"/>
    <path d="M31.697 25.05l-3.143 2.572 3.11 2.037.033-4.61z" fill="#A163FB"/>
    <path d="M42.871 89.544l2.525-4.327-3.898 1.067 1.373 3.26z" fill="#6422E4"/>
    <path d="M61.922 15.58l-1.291-3.98-1.401 2.044 2.693 1.936z" fill="#B87AFB"/>
    <path d="M36.853 95.093l2.334 2.147 1.526-4-3.86 1.853z" fill="#6523E4"/>
    <path d="M42.871 89.544l2.46 4.365.833-3.345-3.293-1.02z" fill="#6422E4"/>
    <path d="M61.922 15.58L58.5 18.016l2.852 1.558.571-3.994z" fill="#B87AFB"/>
    <path d="M54.157 19.53l1.627 2.95 1.857-.114-3.484-2.837z" fill="#B274FB"/>
    <path d="M45.396 85.217l-2.525 4.327 4.144-2.815-1.62-1.512z" fill="#6523E4"/>
    <path d="M50.396 89.661l-1.587 2.93 3.348-1.51-1.76-1.42z" fill="#611EE2"/>
    <path d="M61.407 108.321l-2.792-.821 1.099 1.091 1.693-.27z" fill="#5916DC"/>
    <path d="M101.813 48.892l-4.05-3.697-.525 2.117 4.575 1.58z" fill="#D092F6"/>
    <path d="M84.507 84.208l-2.494 5.035 3.387-1.282-.893-3.753z" fill="#520ED7"/>
    <path d="M63.885 98.88l-1.236 4.162 3.832-.106-2.596-4.056z" fill="#5814DB"/>
    <path d="M14.931 30.401l-.409 4.853 3.85-1.054-3.442-3.8z" fill="#9556FA"/>
    <path d="M12.684 40.908l-1.22-3.523-3.466 2.692 4.686.83z" fill="#8E4FF8"/>
    <path d="M27.608 24.442l1.842-3.774-4.933 2.035 3.091 1.739z" fill="#9E60FB"/>
    <path d="M7.998 40.077l.43 2.959 4.256-2.128-4.686-.83z" fill="#8F50F8"/>
    <path d="M16.917 38.733l4.52 2.478-.32-2.04-4.2-.438z" fill="#9051F8"/>
    <path d="M98.884 39.191l3.612-1.374-3.382-.518-.23 1.892z" fill="#CE90F7"/>
    <path d="M9.888 33.797l-2.151 3.692 3.726-.104-1.575-3.588z" fill="#9253F9"/>
    <path d="M66.749 91.926l.143 3.641 3.696-2.059-3.84-1.582z" fill="#5612DA"/>
    <path d="M9.889 33.797l1.26-1.862-3.014.07 1.754 1.792z" fill="#9253F9"/>
    <path d="M71.723 97.073l-.32 3.417 4.107-2.84-3.787-.578z" fill="#5512D9"/>
    <path d="M7.64 33.852l-.044.965 2.293-1.02-2.248.055z" fill="#9253F9"/>
    <path d="M7.641 33.852l2.248-.055-2.066-.888-.182.943z" fill="#9253F9"/>
    <path d="M78.194 95.068l3.435 1.437-2.47-5.033-.965 3.596z" fill="#5410D8"/>
    <path d="M8.135 32.006l-.312.903 2.065.888-1.753-1.791z" fill="#9253F9"/>
    <path d="M20.65 20.927l3.867 1.776-1.851-3.025-2.015 1.25z" fill="#9C5DFB"/>
    <path d="M83.348 75.471l-2.082 2.593 2.893-2.154-.81-.439z" fill="#520ED7"/>
    <path d="M18.371 34.2l-1.454 4.533 3.971-1.436-2.517-3.097z" fill="#9455F9"/>
    <path d="M84.048 80.523l.11-4.613-2.892 2.154 2.782 2.459z" fill="#520ED7"/>
    <path d="M104.513 64.306l-.477-.21-.263.386.74-.176z" fill="#D193F6"/>
    <path d="M16.917 38.733l4.2.438-.229-1.874-3.971 1.436z" fill="#9051F8"/>
    <path d="M18.371 34.2l4.074 1.758-.035-4.453-4.04 2.695z" fill="#9455F9"/>
    <path d="M25.223 33.785l-2.813-2.28 1.438 3.323 1.375-1.044z" fill="#985AFA"/>
    <path d="M104.036 64.096l1.548-.95-4.209-.985 2.661 1.935z" fill="#D193F6"/>
    <path d="M25.458 28.814l2.15-4.372-4.998 1.252 2.848 3.12z" fill="#9B5DFB"/>
    <path d="M95.321 55.036l1.969 2.186-1.36-2.904-.609.718zm5.678 1.127l-3.71 1.06 2.067 2.43 1.643-3.49z" fill="#D193F6"/>
    <path d="M22.41 31.505l-3.4-1.244-.639 3.939 4.039-2.695z" fill="#9859FA"/>
    <path d="M103.265 64.647l.507-.165.264-.386-.771.551z" fill="#D193F6"/>
    <path d="M14.522 35.254l2.395 3.479L18.37 34.2l-3.849 1.054z" fill="#9253F9"/>
    <path d="M14.522 35.254l-3.058 2.131 5.453 1.348-2.395-3.479z" fill="#9253F9"/>
    <path d="M24.517 22.703l-1.907 2.99 4.998-1.251-3.091-1.739z" fill="#9D5FFB"/>
    <path d="M55.821 106.529l2.794.971.334-5.465-3.128 4.494z" fill="#5B17DD"/>
    <path d="M11.15 31.935l-2.578-.779-.437.85 3.014-.071z" fill="#9354F9"/>
    <path d="M12.26 44.468l-3.833-1.432.528 2.821 3.306-1.389z" fill="#8C4CF7"/>
    <path d="M8.572 31.156l2.577.78-2.142-1.41-.435.63z" fill="#9354F9"/>
    <path d="M10.731 28.75l.418 3.185 3.782-1.534-4.2-1.652z" fill="#9455FA"/>
    <path d="M58.615 107.5l2.792.822 1.242-5.28-4.034 4.458z" fill="#5A16DD"/>
    <path d="M25.552 82.465l1.868 2.388 2.432-2.424-4.3.036z" fill="#6F2EEA"/>
    <path d="M11.98 27.583l-1.249 1.166 4.2 1.652-2.951-2.818z" fill="#9556FA"/>
    <path d="M17.292 69.23l2.937-.732-4.292-2.02 1.355 2.753z" fill="#7939F0"/>
    <path d="M13.693 26.078l-1.714 1.505 2.952 2.818-1.238-4.323z" fill="#9657FA"/>
    <path d="M16.879 27.671l2.506-2.028-3.922-1.012 1.416 3.04z" fill="#9758FA"/>
    <path d="M29.023 76.028l-3.954-3.212.206 3.482 3.748-.27z" fill="#7130EB"/>
    <path d="M10.731 28.75l-1.284 1.267 1.703 1.918-.419-3.186z" fill="#9455FA"/>
    <path d="M16.01 42.173l-3.326-1.265-.423 3.56 3.748-2.295z" fill="#8D4EF8"/>
    <path d="M103.466 59.105l-4.11.549 2.018 2.507 2.092-3.056z" fill="#D193F6"/>
    <path d="M19.01 30.26l3.4 1.245.2-5.811-3.6 4.567z" fill="#9758FA"/>
    <path d="M22.61 25.694l1.907-2.99-3.866-1.777 1.959 4.767z" fill="#9B5CFB"/>
    <path d="M20.65 20.927l-1.682 1.121 3.642 3.646-1.96-4.767z" fill="#9C5DFB"/>
    <path d="M19.385 25.643l3.225.05-3.642-3.645.417 3.595z" fill="#995AFA"/>
    <path d="M104.607 55.581l2.56 3.674.962-2.694-3.522-.98z" fill="#D193F6"/>
    <path d="M80.897 20.31l3.436 3.068 1.508-3.954-4.944.885z" fill="#C385F9"/>
    <path d="M29.45 20.668l-4.715-2.178-.218 4.213 4.933-2.035z" fill="#A163FB"/>
    <path d="M39.605 90.116l1.107 3.125 2.159-3.697-3.266.572z" fill="#6623E4"/>
    <path d="M26.553 17.522l-1.818.968 4.715 2.178-2.897-3.146z" fill="#A062FB"/>
    <path d="M33.577 21.45l.803-3.578-2.918.598 2.115 2.98z" fill="#A465FC"/>
    <path d="M39.187 97.24l2.629 2.27.835-3.38-3.464 1.11z" fill="#6321E3"/>
    <path d="M31.697 25.05l-.033 4.61 1.831-.97-1.798-3.64z" fill="#A163FB"/>
    <path d="M84.148 27.607l2.666 1.288 2.218-2.512-4.884 1.224z" fill="#C688F9"/>
    <path d="M28.444 31.573l.11-3.951-3.096 1.192 2.986 2.76z" fill="#9C5DFB"/>
    <path d="M23.443 62.966l-3.496-3.543-1.263 3.95 4.76-.407z" fill="#7C3BF1"/>
    <path d="M104.036 64.096l.477.21 1.071-1.16-1.548.95z" fill="#D193F6"/>
    <path d="M63.884 98.88l3.008-3.313-3.427-1.24.42 4.553z" fill="#5814DB"/>
    <path d="M28.554 27.622l3.143-2.573-4.09-.607.947 3.18z" fill="#9E5FFB"/>
    <path d="M89.142 88.901l2.167-2.52-.847-.653-1.32 3.173z" fill="#520ED7"/>
    <path d="M34.38 17.872l-2.139-2.977-.78 3.575 2.92-.598z" fill="#A567FC"/>
    <path d="M55.625 109.224l.196-2.695-.915 2.36.72.335z" fill="#5A17DD"/>
    <path d="M9.447 30.017l-.44.509 2.142 1.41-1.702-1.919z" fill="#9354F9"/>
    <path d="M35.772 23.959l-.457 3.85 1.805-.8-1.348-3.05z" fill="#A466FC"/>
    <path d="M41.55 21.84l-3.332-.148 2.448 3.95.884-3.803z" fill="#A96BFC"/>
    <path d="M58.615 107.5l4.033-4.458-3.699-1.007-.334 5.465z" fill="#5A16DD"/>
    <path d="M46.123 19.473L41.55 21.84l2.846 2.639 1.727-5.005z" fill="#AD6FFC"/>
    <path d="M61.327 110.034l.654-.097-.574-1.615-.08 1.712z" fill="#5916DC"/>
    <path d="M109.044 28.535l-1.469-1.353-3.418 1.533 4.887-.18z" fill="#CD8FF7"/>
    <path d="M38.218 21.692l-4.642-.243 2.196 2.51 2.446-2.267z" fill="#A768FC"/>
    <path d="M14.522 35.254l-3.372-3.319-1.261 1.862 4.633 1.457z" fill="#9253F9"/>
    <path d="M38.905 26.288l1.761-.646-2.448-3.95.687 4.596z" fill="#A668FC"/>
    <path d="M49.946 23.222l2.018-.322-.947-3.34-1.071 3.662z" fill="#AF71FC"/>
    <path d="M81.426 26.454l2.908-3.076-2.996-.104.088 3.18z" fill="#C486F9"/>
    <path d="M51.964 22.9l1.917-.242.276-3.129-2.193 3.37z" fill="#B172FC"/>
    <path d="M24.517 22.703l.219-4.213-2.07 1.188 1.85 3.025z" fill="#9D5FFB"/>
    <path d="M109.994 34.194l-4.682 1.68 3.255 1.707 1.427-3.387z" fill="#CE90F7"/>
    <path d="M41.676 18.506l-.126 3.333 4.573-2.366-4.447-.967z" fill="#AA6CFC"/>
    <path d="M57.64 22.366l.859-4.35-4.342 1.513 3.484 2.837z" fill="#B577FB"/>
    <path d="M100.351 26.44l4.158-1.83-1.866-1.418-2.292 3.248z" fill="#CB8DF8"/>
    <path d="M59.6 22.311l-1.1-4.294-.86 4.349 1.96-.055z" fill="#B678FB"/>
    <path d="M61.352 19.574l1.633 2.837 1.209-4.413-2.842 1.576z" fill="#B779FB"/>
    <path d="M49.699 13.533l2.206-3.909-1.956.283-.25 3.626z" fill="#B072FC"/>
    <path d="M55.432 16.659l-.314-3.34-3.017 2.942 3.33.398z" fill="#B375FB"/>
    <path d="M13.694 26.078L14.93 30.4l1.948-2.73-3.185-1.593z" fill="#9657FA"/>
    <path d="M51.016 19.56l.948 3.34 2.193-3.37-3.14.03z" fill="#B072FC"/>
    <path d="M18.968 22.048l-1.911 1.365 2.329 2.23-.418-3.595z" fill="#9A5CFB"/>
    <path d="M46.139 24.024l1.936-.44-1.952-4.11.016 4.55z" fill="#AC6EFC"/>
    <path d="M79.352 86.787l-4.187-2.113.996 4.328 3.191-2.215z" fill="#530FD7"/>
    <path d="M33.883 14.24l-1.642.655 2.14 2.977-.498-3.632z" fill="#A667FC"/>
    <path d="M80.945 83.53l-1.593 3.257 5.154-2.58-3.561-.677z" fill="#520ED7"/>
    <path d="M35.888 13.498l-1.508 4.374 3.662.159-2.154-4.533z" fill="#A769FC"/>
    <path d="M35.888 13.498l-2.005.742.497 3.632 1.508-4.374z" fill="#A769FC"/>
    <path d="M86.64 91.615l-4.627-2.372 2.02 4.998 2.606-2.626z" fill="#520ED7"/>
    <path d="M79.159 91.472l2.854-2.229-2.66-2.456-.194 4.685z" fill="#530FD8"/>
    <path d="M39.304 15.37l.321-3.097-1.848.58 1.527 2.517z" fill="#A96BFC"/>
    <path d="M46.047 97.499l4.016-1.82-4.733-1.77.717 3.59z" fill="#601EE1"/>
    <path d="M43.743 11.155l-1.507 3.94 3.457.002-1.95-3.942z" fill="#AC6EFC"/>
    <path d="M41.676 18.506l4.447.967-.43-4.376-4.017 3.409z" fill="#AA6CFC"/>
    <path d="M53.004 99.892l-2.941-4.212-1.37 4.347 4.311-.135z" fill="#5D1ADF"/>
    <path d="M30.306 15.724l1.156 2.746.78-3.575-1.936.83z" fill="#A365FC"/>
    <path d="M79.352 86.787l2.66 2.456 2.494-5.035-5.154 2.579z" fill="#530FD7"/>
    <path d="M48.694 100.027l2.578 2.969 1.732-3.104-4.31.135z" fill="#5E1CE0"/>
    <path d="M45.727 10.7l3.971 2.833-1.813-3.269-2.157.435z" fill="#AE70FC"/>
    <path d="M71.723 97.073l3.787.578-1.247-3.447-2.54 2.869z" fill="#5512D9"/>
    <path d="M55.118 13.319l4.111.325-1.755-4.48-2.356 4.155z" fill="#B375FB"/>
    <path d="M45.693 15.097l4.005-1.564-3.97-2.834-.035 4.398z" fill="#AD6FFC"/>
    <path d="M78.978 98.841l2.65-2.336-3.434-1.437.784 3.773z" fill="#5410D9"/>
    <path d="M66.892 95.567l1.466 3.337 3.365-1.831-4.831-1.505z" fill="#5613DA"/>
    <path d="M53.825 9.403l1.293 3.916.63-4.076-1.923.16z" fill="#B375FB"/>
    <path d="M76.492 20.488l-.095 4.238 1.974.618-1.88-4.856z" fill="#C183FA"/>
    <path d="M55.118 13.319l2.356-4.156-1.726.08-.63 4.076z" fill="#B375FB"/>
    <path d="M45.728 10.7l-1.985.455 1.95 3.942.035-4.398z" fill="#AE70FC"/>
    <path d="M68.359 98.903l-1.467-3.336-3.007 3.313 4.474.023z" fill="#5613DA"/>
    <path d="M55.118 13.319l-3.213-3.695-2.206 3.91 5.42-.215z" fill="#B375FB"/>
    <path d="M70.873 105.114l-4.392-2.178 1.392 4.224 3-2.046z" fill="#5713DA"/>
    <path d="M59.23 13.644l1.4-2.044-1.809-2.446.408 4.49z" fill="#B678FB"/>
    <path d="M63.885 98.88l-.42-4.554L60 96.661l3.886 2.22z" fill="#5814DB"/>
    <path d="M58.822 9.154L60.63 11.6l-.628-2.397-1.181-.049z" fill="#B678FB"/>
    <path d="M55.303 102.833l-4.087 3.718 4.605-.022-.518-3.696z" fill="#5B18DE"/>
    <path d="M64.768 22.537l-.575-4.539-1.209 4.413 1.784.126z" fill="#BA7CFB"/>
    <path d="M31.697 25.05l3.618 2.759.457-3.85-4.075 1.09z" fill="#A163FB"/>
    <path d="M49.946 23.222l-3.823-3.749 1.952 4.111 1.87-.362z" fill="#AF71FC"/>
    <path d="M86.64 91.615L85.4 87.96l-3.387 1.282 4.626 2.372z" fill="#520ED7"/>
    <path d="M62.649 103.042l-1.242 5.28 2.595-1.693-1.353-3.587z" fill="#5915DC"/>
    <path d="M101.309 34.16l1.188 3.657 2.816-1.944-4.004-1.712z" fill="#CD8FF7"/>
    <path d="M63.514 109.549l.62-.225-.826-1.31.206 1.535z" fill="#5915DC"/>
    <path d="M15.937 66.478l5.34-.82-2.593-2.286-2.747 3.106z" fill="#7C3BF1"/>
    <path d="M64.86 109.006l-1.552-.992.826 1.31.726-.318z" fill="#5815DC"/>
    <path d="M14.612 54.297l2.929-1.701-3.29-2.794.36 4.495z" fill="#8444F4"/>
    <path d="M12.254 57.56l2.358-3.264-3.38.228 1.022 3.036z" fill="#8243F4"/>
    <path d="M58.615 107.5l-2.794-.971.543 2.978 2.25-2.007z" fill="#5A16DD"/>
    <path d="M64.86 109.006l.589-.305-1.447-2.072.858 2.377zm0 0l-.858-2.377-.694 1.385 1.552.992z" fill="#5815DC"/>
    <path d="M66.481 102.936l4.392 2.178.53-4.624-4.922 2.446z" fill="#5714DB"/>
    <path d="M13.405 60.63l3.703-4.044-4.854.974 1.15 3.07z" fill="#8040F3"/>
    <path d="M21.054 55.476l-1.107 3.947 3.13-1.25-2.023-2.697z" fill="#8242F3"/>
    <path d="M60.884 99.624l1.764 3.418 1.236-4.162-3 .744z" fill="#5916DC"/>
    <path d="M21.053 55.476l3.732-1.698-.703-2.037-3.029 3.735z" fill="#8242F3"/>
    <path d="M67.873 107.16l-3.871-.531 1.447 2.072 2.424-1.541z" fill="#5814DB"/>
    <path d="M73.48 103.223l-2.077-2.733-.53 4.624 2.608-1.891z" fill="#5612DA"/>
    <path d="M14.538 63.378l2.241-2.791-3.374.044 1.133 2.747z" fill="#7E3EF2"/>
    <path d="M66.749 91.926l-3.284 2.4 3.427 1.242-.143-3.642z" fill="#5612DA"/>
    <path d="M16.917 38.733l-4.233 2.175 3.325 1.265.908-3.44z" fill="#9051F8"/>
    <path d="M21.054 55.476l-3.947 1.11 2.84 2.837 1.107-3.947z" fill="#8242F3"/>
    <path d="M75.51 97.65l-4.108 2.84 4.602.793-.494-3.632z" fill="#5511D9"/>
    <path d="M75.511 97.65l.493 3.633 2.974-2.442-3.467-1.19z" fill="#5511D9"/>
    <path d="M71.724 97.072l-1.136-3.564-3.696 2.06 4.832 1.504z" fill="#5512D9"/>
    <path d="M79.159 91.472l2.47 5.033 2.405-2.264-4.875-2.769z" fill="#530FD8"/>
    <path d="M97.763 45.195l4.05 3.697.44-3.747-4.49.05z" fill="#D092F7"/>
    <path d="M96.604 49.57l5.209-.678-4.575-1.58-.634 2.258z" fill="#D092F6"/>
    <path d="M78.193 95.068l-3.93-.864 1.248 3.447 2.682-2.583z" fill="#5410D8"/>
    <path d="M16.01 42.173l-.386 3.537 6.193-2.48-5.808-1.057z" fill="#8D4EF8"/>
    <path d="M67.873 107.16l-1.392-4.224-2.479 3.693 3.871.531z" fill="#5814DB"/>
    <path d="M14.612 54.297l2.496 2.29.433-3.991-2.93 1.7z" fill="#8444F4"/>
    <path d="M60.001 110.113l1.326-.079-1.614-1.443.288 1.522z" fill="#5916DC"/>
    <path d="M59.23 13.644l-.408-4.49-1.348.01 1.755 4.48z" fill="#B678FB"/>
    <path d="M73.367 90.93l-4.268-.854 1.49 3.432 2.778-2.578z" fill="#5410D8"/>
    <path d="M79.767 25.828l1.571-2.553-2.966 2.07 1.395.483z" fill="#C385F9"/>
    <path d="M76.16 89.002l-1.897 5.202 4.896-2.732-2.998-2.47z" fill="#530FD8"/>
    <path d="M73.366 90.93l2.794-1.928-3.105-2.334.311 4.262z" fill="#5410D8"/>
    <path d="M8.427 43.036l3.834 1.432.423-3.56-4.257 2.128z" fill="#8D4EF8"/>
    <path d="M99.114 37.299l2.195-3.138-2.737-1.219.542 4.357z" fill="#CE90F7"/>
    <path d="M79.353 86.787l1.592-3.257-3.745-.91 2.153 4.167z" fill="#530FD7"/>
    <path d="M68.274 18.84l-3.505 3.697 2.07.215 1.435-3.911z" fill="#BC7EFB"/>
    <path d="M84.158 75.91l.808-.404-.21-.194-.598.598zm-.11 4.613l-4.672-.262 1.569 3.269 3.103-3.007z" fill="#520ED7"/>
    <path d="M28.41 16.6l1.04 4.068 2.012-2.198-3.052-1.87z" fill="#A263FB"/>
    <path d="M73.055 86.668l3.105 2.334-.995-4.328-2.11 1.994z" fill="#5310D8"/>
    <path d="M110.537 30l-1.493-1.465-.672 3.857L110.537 30z" fill="#CE90F7"/>
    <path d="M84.158 75.91l.598-.598-.213-.115-.385.713zm1.492.499l-.684-.904-.808.405 1.492.499z" fill="#520ED7"/>
    <path d="M89.032 26.383l.386 3.933 2.857-3.086-3.243-.847z" fill="#C88AF8"/>
    <path d="M84.158 75.91l-.058-.79-.241.037.3.753zm1.492.499l-1.602 4.114 3.096-2.05-1.493-2.064z" fill="#520ED7"/>
    <path d="M83.565 75.288l.594.622-.3-.753-.294.13z" fill="#520ED7"/>
    <path d="M37.263 82.957l4.786-1.12-1.47-1.609-3.316 2.729z" fill="#6A28E7"/>
    <path d="M83.348 75.471l.81.44-.593-.623-.217.183z" fill="#520ED7"/>
    <path d="M38.075 87.174l3.423-.89-4.235-3.328.812 4.218z" fill="#6826E6"/>
    <path d="M84.309 75.132l-.208-.012.058.79.15-.778z" fill="#520ED7"/>
    <path d="M84.308 75.132l-.15.778.385-.713-.235-.065z" fill="#520ED7"/>
    <path d="M29.852 82.43l.195 5.545 3.848-2.062-4.043-3.484z" fill="#6D2CE9"/>
    <path d="M48.693 100.027l-2.646-2.528-1.224 4.431 3.87-1.903z" fill="#5E1CE0"/>
    <path d="M47.955 104.276l3.26 2.275.056-3.555-3.316 1.28z" fill="#5D1BDF"/>
    <path d="M77.2 82.62l-2.035 2.054 4.187 2.113L77.2 82.62z" fill="#520ED7"/>
    <path d="M26.063 65.16l2.166-3.275-4.786 1.08 2.62 2.194z" fill="#7939EF"/>
    <path d="M89.141 88.901l-3.742-.94 1.24 3.654L89.14 88.9z" fill="#520ED7"/>
    <path d="M71.354 20.093l-2.75 2.9 2.045.35.705-3.25z" fill="#BE80FA"/>
    <path d="M84.506 84.208l.893 3.753 5.063-2.233-5.956-1.52z" fill="#520ED7"/>
    <path d="M73.146 13.825l-.32 3.287 5.064-.626-4.744-2.662z" fill="#BE80FA"/>
    <path d="M90.461 85.728l.848.652.142-.247-.99-.405zm1.066.095l-.02-.318-1.046.223 1.066.096z" fill="#520ED7"/>
    <path d="M47.885 10.264l1.814 3.27.25-3.627-2.064.357z" fill="#AF71FC"/>
    <path d="M90.118 83.027l.344 2.7.95-.49-1.294-2.21z" fill="#520ED7"/>
    <path d="M71.353 20.093l5.139.395-3.666-3.376-1.472 2.98z" fill="#BE80FA"/>
    <path d="M85.65 76.409l-1.491-.499-.11 4.613 1.602-4.114z" fill="#520ED7"/>
    <path d="M68.273 18.84l4.553-1.728-2.975-3.05-1.578 4.779z" fill="#BC7EFB"/>
    <path d="M84.048 80.523l4.722.36-1.626-2.41-3.096 2.05z" fill="#520ED7"/>
    <path d="M88.77 80.882l-4.264 3.326 5.612-1.181-1.348-2.145z" fill="#520ED7"/>
    <path d="M89.097 19.046L87.445 22.3l3.105 1.096-1.453-4.349z" fill="#C688F9"/>
    <path d="M94.534 22.716l-2.26 4.514 4.105-.917-1.845-3.597z" fill="#C98BF8"/>
    <path d="M90.462 85.728l-5.063 2.233 3.742.94 1.32-3.173z" fill="#520ED7"/>
    <path d="M90.461 85.728l.99.405.076-.31-1.066-.095zm0 0l1.047-.223-.096-.268-.95.49z" fill="#520ED7"/>
    <path d="M41.498 86.284l3.898-1.067-1.83-1.803-2.068 2.87z" fill="#6624E5"/>
    <path d="M48.694 100.027l1.369-4.347-4.016 1.819 2.647 2.528z" fill="#5E1CE0"/>
    <path d="M53.48 96.427l-3.417-.747 2.941 4.212.476-3.465z" fill="#5D1ADF"/>
    <path d="M23.076 58.172l4.234 1.775-.869-1.967-3.365.192z" fill="#7F3FF2"/>
    <path d="M103.773 64.482l.347.543.235-.035-.582-.508z" fill="#D193F6"/>
    <path d="M94.534 22.716l4.209-2.174-2.033-1.232-2.176 3.406z" fill="#C98BF8"/>
    <path d="M104.513 64.306l-.74.176.582.508.158-.684z" fill="#D193F6"/>
    <path d="M36.853 95.093l2.752-4.977-5.103 2.672 2.351 2.305z" fill="#6523E4"/>
    <path d="M104.513 64.306l-.158.684.257-.105-.099-.579z" fill="#D193F6"/>
    <path d="M104.831 64.719l-.319-.413.099.579.22-.166z" fill="#D193F6"/>
    <path d="M110.817 46.882l-5.234 2.163 4.714.091.52-2.254z" fill="#D092F7"/>
    <path d="M19.947 59.423l-3.168 1.164 1.905 2.785 1.263-3.949z" fill="#7F3FF2"/>
    <path d="M72.827 17.112l3.665 3.376 1.398-4.002-5.063.626z" fill="#BE80FA"/>
    <path d="M69.505 9.816L67.52 9.55l-.227 2.976 2.212-2.71z" fill="#BC7EFB"/>
    <path d="M95.119 54.061l-.04.22.852.037-.812-.257z" fill="#D193F6"/>
    <path d="M47.015 86.729l-4.144 2.815 3.293 1.02.851-3.835z" fill="#6421E3"/>
    <path d="M102.488 52.603l-6.557 1.715 5.068 1.845 1.489-3.56z" fill="#D193F6"/>
    <path d="M89.097 19.046l2.99 1.342.395-3.354-3.385 2.012z" fill="#C688F9"/>
    <path d="M95.93 54.318l6.558-1.715-6.562-.87.005 2.585zm-.005-2.585l-.807 2.328.812.257-.005-2.585zm-.833 2.799l.838-.214-.85-.037.012.252z" fill="#D193F6"/>
    <path d="M12.254 57.56l4.854-.974-2.496-2.29-2.358 3.264z" fill="#8243F4"/>
    <path d="M95.93 54.318l-.838.215.074.25.764-.465z" fill="#D193F6"/>
    <path d="M95.93 54.318l-.764.465.155.253.61-.718z" fill="#D193F6"/>
    <path d="M51.216 106.551l4.087-3.718-4.031.163-.056 3.555z" fill="#5C19DE"/>
    <path d="M23.402 49.569l-.581-2.066-4.083 1.05 4.664 1.016z" fill="#8646F5"/>
    <path d="M101.375 62.161l4.209.985-2.118-4.041-2.091 3.056z" fill="#D193F6"/>
    <path d="M32.234 90.416l2.268 2.372 3.573-5.614-5.84 3.242z" fill="#6927E6"/>
    <path d="M103.637 64.929l.135-.447-.324.336.189.111z" fill="#D193F6"/>
    <path d="M81.338 23.274l2.996.104-3.437-3.069.44 2.965z" fill="#C486F9"/>
    <path d="M103.868 65.004l.252.02-.347-.542.095.522z" fill="#D193F6"/>
    <path d="M101.813 48.892l3.769.153-3.329-3.9-.44 3.747z" fill="#D092F6"/>
    <path d="M104.981 64.534l-.469-.228.319.413.15-.185zm-1.716.113l.184.171.323-.336-.507.165zm5.701-10.678l-4.359 1.612 3.522.98.837-2.592z" fill="#D193F6"/>
    <path d="M52.101 16.261l-3.447.754 2.363 2.544 1.084-3.298z" fill="#B173FC"/>
    <path d="M105.921 52.436l-1.314 3.145 4.359-1.612-3.045-1.533z" fill="#D193F6"/>
    <path d="M51.016 19.56l-4.893-.087 3.823 3.75 1.07-3.663z" fill="#B072FC"/>
    <path d="M48.654 17.015l3.447-.754-2.402-2.728-1.045 3.482z" fill="#AF71FC"/>
    <path d="M106.186 61.758l.981-2.503-3.701-.15 2.72 2.653z" fill="#D193F6"/>
    <path d="M51.016 19.56l-2.362-2.545-2.531 2.458 4.893.087z" fill="#B072FC"/>
    <path d="M104.036 64.096l-2.661-1.935 1.89 2.486.771-.55z" fill="#D193F6"/>
    <path d="M75.868 11.053l2.022 5.433.235-4.859-2.257-.574z" fill="#BF81FA"/>
    <path d="M95.93 54.318l1.36 2.904 3.709-1.06-5.068-1.844z" fill="#D193F6"/>
    <path d="M49.699 13.533l2.402 2.728 3.017-2.942-5.42.214z" fill="#B072FC"/>
    <path d="M109.752 51.249l-4.169-2.204.339 3.391 3.83-1.187z" fill="#D092F6"/>
    <path d="M71.533 10.148l1.613 3.677.586-3.25-2.199-.427z" fill="#BD7FFA"/>
    <path d="M22.107 70.87l-1.879-2.372-1.507 3.416 3.386-1.043z" fill="#7736EE"/>
    <path d="M76.492 20.488l-5.139-.395 1.036 3.604 4.103-3.209z" fill="#C183FA"/>
    <path d="M15.936 66.478l2.748-3.105-4.147.005 1.4 3.1z" fill="#7C3BF1"/>
    <path d="M77.89 16.486l-1.398 4.002 4.405-.179-3.008-3.823z" fill="#C183FA"/>
    <path d="M10.401 51.755l3.85-1.953-1.916-2.323-1.934 4.276z" fill="#8747F5"/>
    <path d="M18.684 63.372l-1.905-2.785-2.242 2.791 4.147-.006z" fill="#7D3DF1"/>
    <path d="M74.403 24.177l1.995.549.094-4.238-2.089 3.689z" fill="#C082FA"/>
    <path d="M63.932 9.228l.516 4.202 1.122-4.082-1.638-.12z" fill="#B97BFB"/>
    <path d="M43.743 11.155l-2.037.524.53 3.415 1.507-3.939z" fill="#AC6EFC"/>
    <path d="M64.448 13.43l-.255 4.568 4.08.843-3.825-5.411z" fill="#B97BFB"/>
    <path d="M25.551 82.465l1.654-3.263-3.616.55 1.962 2.713z" fill="#6F2EEA"/>
    <path d="M12.26 44.468l-3.305 1.39 3.38 1.62-.074-3.01z" fill="#8C4CF7"/>
    <path d="M64.193 17.998l.575 4.54 3.505-3.697-4.08-.843z" fill="#B97BFB"/>
    <path d="M68.603 22.994l2.75-2.901-3.08-1.252.33 4.153z" fill="#BC7EFA"/>
    <path d="M29.102 71.891l4.654-.445-1.172-1.79-3.482 2.235z" fill="#7433ED"/>
    <path d="M94.534 22.716l.089-4.576-2.535 2.248 2.447 2.328z" fill="#C98BF8"/>
    <path d="M25.459 28.814l-3.049 2.69 4.423 1.137-1.374-3.827z" fill="#9B5DFB"/>
    <path d="M97.031 30.374l-2.961-.69.35 3.869 2.611-3.179z" fill="#CB8DF8"/>
    <path d="M55.432 16.659l3.797-3.015-4.11-.325.313 3.34z" fill="#B375FB"/>
    <path d="M45.693 15.097l2.961 1.918 1.044-3.482-4.005 1.564z" fill="#AD6FFC"/>
    <path d="M91.955 31.87l2.115-2.185-1.795-2.455-.32 4.64z" fill="#CA8CF8"/>
    <path d="M80.25 12.233l-2.36 4.253 3.769.13-1.408-4.383z" fill="#C183FA"/>
    <path d="M48.654 17.015l-2.961-1.918.43 4.376 2.531-2.458z" fill="#AF71FC"/>
    <path d="M92.088 20.388l-2.99-1.342 1.452 4.35 1.538-3.008z" fill="#C88AF9"/>
    <path d="M22.61 25.694l-.2 5.81 3.049-2.69-2.85-3.12z" fill="#9B5CFB"/>
    <path d="M73.146 13.825l-3.294.237 2.975 3.05.319-3.287z" fill="#BE80FA"/>
    <path d="M84.148 27.607l.186-4.229-2.908 3.076 2.722 1.152z" fill="#C688F9"/>
    <path d="M87.445 22.3l-3.111 1.078 4.699 3.005-1.588-4.084z" fill="#C688F9"/>
    <path d="M111.967 40.23l-4.535.734 4.218 1.488.317-2.222z" fill="#CF91F7"/>
    <path d="M28.444 31.573l1.612-.992-1.502-2.96-.11 3.952z" fill="#9C5DFB"/>
    <path d="M76.492 20.488l1.88 4.856 2.966-2.07-4.846-2.786z" fill="#C183FA"/>
    <path d="M71.403 100.49l.32-3.417-3.364 1.83 3.044 1.587z" fill="#5612DA"/>
    <path d="M68.273 18.84l1.578-4.778-2.558-1.536.98 6.315z" fill="#BC7EFB"/>
    <path d="M66.481 102.936l1.878-4.033-4.474-.023 2.596 4.056z" fill="#5714DB"/>
    <path d="M69.505 9.816l.347 4.246 1.681-3.914-2.028-.332z" fill="#BC7EFB"/>
    <path d="M67.293 12.526l.228-2.976-1.951-.202 1.723 3.178z" fill="#BB7DFB"/>
    <path d="M60.884 99.624l3-.744L60 96.661l.885 2.963z" fill="#5916DC"/>
    <path d="M29.023 76.028l-1.818 3.174 3.512-.096-1.694-3.078z" fill="#7130EB"/>
    <path d="M62.344 9.163L60.631 11.6l3.817 1.83-2.104-4.267z" fill="#B87AFB"/>
    <path d="M99.356 59.654l4.11-.55-2.467-2.941-1.643 3.49z" fill="#D193F6"/>
    <path d="M62.344 9.163l2.104 4.267-.516-4.202-1.588-.065z" fill="#B87AFB"/>
    <path d="M64.448 13.43l2.845-.904-1.724-3.178-1.121 4.082z" fill="#B97BFB"/>
    <path d="M102.488 52.603l-1.489 3.56 3.609-.582-2.12-2.978z" fill="#D193F6"/>
    <path d="M71.724 97.072l2.54-2.868-3.676-.696 1.136 3.564z" fill="#5512D9"/>
    <path d="M73.732 10.574l-.586 3.25 2.722-2.771-2.136-.479z" fill="#BE80FA"/>
    <path d="M70.588 93.508l-1.49-3.431-2.35 1.85 3.84 1.581z" fill="#5511D9"/>
    <path d="M86.733 14.48l-1.993-.757 1.102 5.7.891-4.943z" fill="#C486F9"/>
    <path d="M76.004 101.283l-4.602-.793 2.078 2.733 2.524-1.94z" fill="#5511D9"/>
    <path d="M85.842 19.424l2.846-4.14-1.955-.804-.891 4.944z" fill="#C587F9"/>
    <path d="M84.74 13.723l-3.081 2.893 4.182 2.808-1.1-5.701z" fill="#C386F9"/>
    <path d="M71.403 100.49l-3.044-1.587-1.878 4.033 4.922-2.446z" fill="#5612DA"/>
    <path d="M27.205 79.202l2.647 3.227.865-3.323-3.512.096z" fill="#702FEB"/>
    <path d="M80.897 20.31l.762-3.694-3.77-.13 3.008 3.823z" fill="#C385F9"/>
    <path d="M36.245 74.939l-2.02 3.172 3.336-1.47-1.316-1.702z" fill="#6F2DEA"/>
    <path d="M73.146 13.825l4.743 2.66-2.02-5.432-2.723 2.771z" fill="#BE80FA"/>
    <path d="M78.124 11.627l-.235 4.859 2.362-4.253-2.127-.606z" fill="#C082FA"/>
    <path d="M33.186 81.606l4.077 1.35-.767-2.894-3.31 1.544z" fill="#6C2BE9"/>
    <path d="M70.588 93.508l3.676.696-.897-3.274-2.779 2.578z" fill="#5511D9"/>
    <path d="M84.74 13.723l-2.28-.793-.801 3.686 3.081-2.893z" fill="#C386F9"/>
    <path d="M88.688 15.284l-2.846 4.14 3.255-.378-.41-3.762z" fill="#C587F9"/>
    <path d="M33.186 81.606l-2.47-2.5-.864 3.323 3.334-.823z" fill="#6C2BE9"/>
    <path d="M94.42 33.553l2.388 1.81 1.764-2.42-4.152.61z" fill="#CB8DF8"/>
    <path d="M60.003 9.203l.628 2.397.426-2.441-1.054.044z" fill="#B678FB"/>
    <path d="M25.223 33.785l1.61-1.144-4.423-1.136 2.813 2.28z" fill="#985AFA"/>
    <path d="M95.926 51.733l6.562.87-5.884-3.033-.678 2.163z" fill="#D193F6"/>
    <path d="M51.905 9.624l3.213 3.695-1.293-3.916-1.92.221z" fill="#B274FC"/>
    <path d="M96.604 49.57l5.884 3.033-.675-3.711-5.209.678z" fill="#D092F6"/>
    <path d="M105.582 49.045l-3.769-.153.675 3.711 3.094-3.558z" fill="#D092F6"/>
    <path d="M74.403 24.177l2.089-3.689-4.103 3.21 2.014.479z" fill="#C082FA"/>
    <path d="M38.218 21.692l-2.446 2.267 3.133 2.33-.687-4.597z" fill="#A768FC"/>
    <path d="M98.191 43.231l-.428 1.964 4.49-.05-4.062-1.914z" fill="#CF91F7"/>
    <path d="M23.848 34.828l-1.438-3.323.035 4.454 1.403-1.131z" fill="#9758FA"/>
    <path d="M98.884 39.191l4.98 1.763-1.368-3.137-3.612 1.374z" fill="#CE90F7"/>
    <path d="M98.584 41.13l5.28-.176-4.98-1.763-.3 1.938z" fill="#CF91F7"/>
    <path d="M39.626 12.273l-.322 3.097 2.932-.275-2.61-2.822z" fill="#AA6BFC"/>
    <path d="M102.253 45.145l1.611-4.191-5.28.175 3.669 4.016z" fill="#D092F7"/>
    <path d="M11.464 37.385l1.22 3.523 4.233-2.175-5.453-1.348z" fill="#9051F9"/>
    <path d="M106.737 44.463l-1.154 4.582 5.234-2.163-4.08-2.419z" fill="#D092F7"/>
    <path d="M103.865 40.954l-1.612 4.19 4.484-.68-2.872-3.51z" fill="#CF91F7"/>
    <path d="M111.269 44.648l.381-2.196-4.912 2.011 4.531.185z" fill="#D092F7"/>
    <path d="M41.676 18.506l.56-3.412-2.932.276 2.372 3.136z" fill="#AA6CFC"/>
    <path d="M38.042 18.03l1.262-2.66-3.416-1.872 2.154 4.533z" fill="#A769FC"/>
    <path d="M103.864 40.954l1.448-5.08-2.816 1.943 1.368 3.137zm3.568.01l1.135-3.383-3.255-1.708 2.12 5.09z" fill="#CF91F7"/>
    <path d="M44.396 24.477L41.55 21.84 42.614 25l1.782-.523z" fill="#AB6CFC"/>
    <path d="M112.358 36.05l-3.791 1.531 3.634.55.157-2.08z" fill="#CE90F7"/>
    <path d="M33.577 21.45l-1.88 3.6 4.075-1.091-2.195-2.51z" fill="#A465FC"/>
    <path d="M38.905 26.288l-3.133-2.33 1.348 3.051 1.785-.72z" fill="#A668FC"/>
    <path d="M107.432 40.964l4.535-.734-3.4-2.649-1.135 3.383z" fill="#CF91F7"/>
    <path d="M41.676 18.506l-3.458 3.186 3.332.147.127-3.333z" fill="#AA6CFC"/>
    <path d="M104.608 55.581l1.314-3.145-3.434.167 2.12 2.978z" fill="#D193F6"/>
    <path d="M109.752 51.249l.545-2.113-4.714-.09 4.169 2.203z" fill="#D092F6"/>
    <path d="M112.358 36.05l-2.364-1.856-1.427 3.387 3.791-1.53z" fill="#CE90F7"/>
    <path d="M100.72 21.836l-1.978-1.294-2.364 5.77 4.342-4.476zm-4.342 4.477l3.973.127.369-4.604-4.342 4.477z" fill="#CA8CF8"/>
    <path d="M105.313 35.873l3.06-3.481-3.828-.279.768 3.76z" fill="#CE90F7"/>
    <path d="M104.157 28.715l.352-4.105-4.158 1.83 3.806 2.275z" fill="#CC8FF7"/>
    <path d="M104.545 32.113l-3.236 2.048 4.004 1.712-.768-3.76zm-3.237 2.047l3.237-2.047-3.401-1.778.164 3.826z" fill="#CD8FF7"/>
    <path d="M111.967 40.23l.234-2.1-3.634-.549 3.4 2.65z" fill="#CF91F7"/>
    <path d="M92.088 20.388l2.535-2.248-2.142-1.106-.393 3.354z" fill="#C88AF9"/>
    <path d="M14.93 30.401l4.08-.14-2.132-2.59-1.947 2.73z" fill="#9556FA"/>
    <path d="M98.743 20.542l-4.209 2.174 1.844 3.597 2.365-5.771z" fill="#CA8CF8"/>
    <path d="M97.031 30.374l3.32-3.934-3.973-.127.653 4.061z" fill="#CB8DF8"/>
    <path d="M14.522 35.254l.409-4.853-3.782 1.534 3.373 3.319z" fill="#9253F9"/>
    <path d="M108.372 32.392l.672-3.857-4.887.18 4.215 3.677zm-9.258 4.907l-.541-4.357-1.765 2.42 2.306 1.937z" fill="#CE90F7"/>
    <path d="M60.631 11.6l1.292 3.98 2.525-2.15-3.817-1.83z" fill="#B779FB"/>
    <path d="M109.994 34.194l1.637-2.685-3.259.883 1.622 1.802z" fill="#CE90F7"/>
    <path d="M62.984 22.411l-1.633-2.837-1.752 2.737 3.385.1z" fill="#B97BFB"/>
    <path d="M112.037 32.444l-.406-.935-1.637 2.685 2.043-1.75z" fill="#CE90F7"/>
    <path d="M111.631 31.51l-.546-.865-2.713 1.747 3.259-.883z" fill="#CE90F7"/>
    <path d="M58.499 18.016l3.423-2.436-2.693-1.936-.73 4.372z" fill="#B577FB"/>
    <path d="M101.144 30.335l3.401 1.778-.388-3.398-3.013 1.62zm4.919-4.461l-1.906 2.84 3.418-1.532-1.512-1.308z" fill="#CC8EF7"/>
    <path d="M112.403 34.467l-2.409-.273 2.364 1.857.045-1.584zm-4.031-2.075l-4.215-3.677.388 3.398 3.827.279z" fill="#CE90F7"/>
    <path d="M51.016 19.56l3.141-.03-2.056-3.269-1.085 3.299z" fill="#B072FC"/>
    <path d="M101.309 34.16l-2.195 3.14 3.382.518-1.187-3.656z" fill="#CD8FF7"/>
    <path d="M111.085 30.645l-.548-.645-2.165 2.392 2.713-1.747z" fill="#CE90F7"/>
    <path d="M101.144 30.335l-4.113.039 1.541 2.568 2.572-2.607z" fill="#CC8EF7"/>
    <path d="M59.23 13.644l-3.798 3.014 3.067 1.358.73-4.372z" fill="#B678FB"/>
    <path d="M112.296 33.434l-.259-.99-2.043 1.75 2.302-.76zm0 0l-2.302.76 2.409.273-.107-1.033z" fill="#CE90F7"/>
    <path d="M104.509 24.61l-.352 4.105 1.906-2.841-1.554-1.264z" fill="#CC8EF8"/>
    <path d="M61.923 15.58l-.571 3.994 2.842-1.576-2.271-2.418z" fill="#B87AFB"/>
    <path d="M33.576 21.45l4.642.242-3.838-3.82-.804 3.577z" fill="#A465FC"/>
    <path d="M110.818 46.882l.451-2.234-4.531-.185 4.08 2.42z" fill="#D092F7"/>
    <path d="M107.432 40.964l-2.12-5.09-1.448 5.08 3.568.01z" fill="#CF91F7"/>
    <path d="M105.583 49.045l1.154-4.582-4.484.682 3.33 3.9z" fill="#D092F6"/>
    <path d="M63.308 108.014l-.553 1.756.76-.221-.207-1.535z" fill="#5915DC"/>
    <path d="M23.952 67.846l-3.723.652 1.879 2.373 1.844-3.025z" fill="#7838EF"/>
    <path d="M30.717 79.106l2.469 2.5 1.039-3.495-3.508.995z" fill="#6F2DEA"/>
    <path d="M72.389 23.697l-1.036-3.604-.705 3.25 1.74.354z" fill="#BF81FA"/>
    <path d="M72.826 17.112l-4.553 1.729 3.08 1.252 1.473-2.981z" fill="#BE80FA"/>
    <path d="M31.664 29.66l-3.11-2.038 1.502 2.959 1.608-.922z" fill="#9F61FB"/>
    <path d="M27.608 24.442l-2.15 4.372 3.096-1.192-.946-3.18z" fill="#9E60FB"/>
    <path d="M39.626 12.273l2.61 2.822-.53-3.417-2.08.595z" fill="#AA6BFC"/>
    <path d="M41.676 18.506l4.017-3.41-3.457-.002-.56 3.412z" fill="#AA6CFC"/>
    <path d="M81.659 16.616l-.762 3.693 4.944-.886-4.182-2.807z" fill="#C385F9"/>
    <path d="M80.251 12.233l1.408 4.383.801-3.686-2.209-.697z" fill="#C183FA"/>
    <path d="M68.273 18.84l-.98-6.314-2.845.904 3.825 5.41zm1.232-9.024l-2.212 2.71 2.558 1.536-.346-4.246z" fill="#BC7EFB"/>
    <path d="M23.951 67.846l3.63.68-1.518-3.367-2.112 2.686z" fill="#7838EF"/>
    <path d="M28.229 61.885l-2.166 3.274 3.133-1.363-.967-1.91z" fill="#7B3AF0"/>
    <path d="M45.33 93.91l4.733 1.77-1.254-3.088-3.479 1.317z" fill="#621FE2"/>
    <path d="M47.015 86.729l-.851 3.835 2.518-2.353-1.667-1.482z" fill="#6421E3"/>
    <path d="M50.397 89.661l-4.233.903 2.645 2.028 1.588-2.93z" fill="#611EE2"/>
    <path d="M45.33 93.91l3.48-1.318-2.646-2.028-.834 3.345z" fill="#621FE2"/>
    <path d="M42.05 81.836l-.551 4.448 2.067-2.87-1.517-1.578z" fill="#6826E6"/>
    <path d="M39.605 90.116l1.893-3.832-3.423.89 1.53 2.942z" fill="#6623E4"/>
    <path d="M53.48 96.427l-.476 3.465 3.724-1.01-3.248-2.455z" fill="#5D1ADF"/>
    <path d="M53.966 92.47l-.486 3.957 2.34-2.6-1.854-1.357z" fill="#5E1CE0"/>
    <path d="M51.272 102.996l4.031-.163-2.299-2.94-1.732 3.103z" fill="#5D1ADF"/>
    <path d="M55.821 106.529l3.128-4.494-3.646.798.518 3.696z" fill="#5B17DD"/>
    <path d="M12.334 47.479l-3.379-1.622.658 2.911 2.721-1.29z" fill="#894AF6"/>
    <path d="M16.01 42.173l-3.749 2.295 3.363 1.242.385-3.537z" fill="#8D4EF8"/>
    <path d="M74.263 94.204l3.93.864.966-3.596-4.896 2.732zm4.715 4.637l-.784-3.773-2.683 2.583 3.467 1.19z" fill="#5410D9"/>
    <path d="M33.756 71.446l-1.428 3.865 2.648-2.104-1.22-1.761z" fill="#7231EC"/>
    <path d="M30.718 79.106l1.61-3.795-3.305.717 1.695 3.078z" fill="#6F2DEA"/>
    <path d="M73.367 90.93l-2.256-2.537-2.012 1.683 4.268.854z" fill="#5410D8"/>
    <path d="M74.263 94.204l1.898-5.202-2.794 1.928.896 3.274z" fill="#5410D9"/>
    <path d="M31.697 25.05l1.799 3.64 1.82-.881-3.619-2.76z" fill="#A163FB"/>
    <path d="M31.697 25.05l1.88-3.6-4.127-.782 2.247 4.381z" fill="#A163FB"/>
    <path d="M35.888 13.498l3.416 1.872-1.526-2.518-1.89.646z" fill="#A769FC"/>
    <path d="M41.676 18.506l-2.372-3.136-1.262 2.66 3.634.476z" fill="#AA6CFC"/>
    <path d="M79.376 80.261l4.672.262-2.782-2.459-1.89 2.197zm9.394.621l-4.722-.359.458 3.685 4.264-3.326z" fill="#520ED7"/>
    <path d="M22.445 35.959l-4.074-1.76 2.517 3.098 1.557-1.338zm-7.515-5.558l3.44 3.799.64-3.94-4.08.141z" fill="#9556FA"/>
    <path d="M26.553 17.522l2.897 3.146-1.04-4.068-1.857.922z" fill="#A062FB"/>
    <path d="M31.697 25.05l-2.247-4.382-1.842 3.774 4.09.607z" fill="#A163FB"/>
    <path d="M28.41 16.6l3.052 1.87-1.156-2.746-1.896.876z" fill="#A263FB"/>
    <path d="M33.576 21.45l-2.114-2.98-2.012 2.198 4.126.781z" fill="#A465FC"/>
    <path d="M104.157 28.715l-3.806-2.275.794 3.895 3.012-1.62z" fill="#CC8FF7"/>
    <path d="M100.72 21.836l-.369 4.604 2.292-3.248-1.923-1.356z" fill="#CA8CF8"/>
    <path d="M94.623 18.14l-.089 4.576 2.176-3.406-2.087-1.17z" fill="#C88AF8"/>
    <path d="M92.275 27.23l2.26-4.514-3.985.68 1.725 3.834z" fill="#C98BF8"/>
    <path d="M92.482 17.034l-1.878-.898-1.507 2.91 3.385-2.012z" fill="#C789F9"/>
    <path d="M90.55 23.395l3.985-.679-2.447-2.328-1.538 3.007z" fill="#C88AF9"/>
    <path d="M88.687 15.284l.41 3.762 1.507-2.91-1.917-.852z" fill="#C587F9"/>
    <path d="M87.445 22.3l1.652-3.254-3.255.378 1.603 2.876z" fill="#C688F9"/>
    <path d="M89.032 26.383l3.243.847-1.725-3.835-1.517 2.988z" fill="#C88AF8"/>
    <path d="M91.955 31.87l.32-4.64-2.857 3.086 2.537 1.554z" fill="#CA8CF8"/>
    <path d="M87.445 22.3l1.588 4.083 1.517-2.988-3.105-1.096z" fill="#C688F9"/>
    <path d="M89.418 30.316l-.386-3.933-2.218 2.512 2.604 1.421z" fill="#C98BF8"/>
    <path d="M100.351 26.44l-3.32 3.934 4.113-.04-.793-3.894z" fill="#CB8DF8"/>
    <path d="M96.379 26.313l-4.104.917 1.795 2.455 2.309-3.372z" fill="#CA8CF8"/>
    <path d="M101.144 30.335l-2.572 2.607 2.737 1.219-.165-3.826z" fill="#CC8EF7"/>
    <path d="M94.42 33.553l4.153-.61-1.542-2.569-2.61 3.179z" fill="#CB8DF8"/>
    <path d="M94.42 33.553l-.35-3.868-2.115 2.185 2.465 1.683z" fill="#CB8DF8"/>
    <path d="M96.378 26.313l-2.308 3.372 2.961.689-.653-4.061z" fill="#CA8CF8"/>
    <path d="M55.303 102.833l1.425-3.952-3.724 1.011 2.3 2.941z" fill="#5B18DE"/>
    <path d="M56.727 98.881l2.222 3.154 1.934-2.411-4.156-.743z" fill="#5B18DE"/>
    <path d="M9.889 33.797l1.575 3.588 3.058-2.131-4.633-1.457z" fill="#9253F9"/>
    <path d="M7.998 40.077l3.465-2.692-3.726.104.26 2.588z" fill="#8F50F8"/>
    <path d="M84.048 80.523l-3.103 3.007 3.561.678-.458-3.685zM77.2 82.62l3.745.91-1.569-3.269-2.177 2.36z" fill="#520ED7"/>
    <path d="M25.275 76.297l-4.92-1.55 1.57 2.52 3.35-.97z" fill="#7231EC"/>
    <path d="M25.07 72.816l3.953 3.212.08-4.137-4.034.925z" fill="#7534ED"/>
    <path d="M23.952 67.846l-2.676-2.188-1.047 2.84 3.723-.653z" fill="#7838EF"/>
    <path d="M20.354 74.746l1.753-3.875-3.386 1.043 1.633 2.832z" fill="#7534ED"/>
    <path d="M23.589 79.753l1.685-3.455-3.35.969 1.665 2.486zm5.434-3.725l-3.748.27 1.93 2.904 1.818-3.174z" fill="#7130EB"/>
    <path d="M32.328 75.31l-3.225-3.419-.08 4.137 3.305-.718z" fill="#702FEB"/>
    <path d="M31.28 67.53l-2.178 4.361 3.482-2.235-1.305-2.126z" fill="#7635EE"/>
    <path d="M25.069 72.816l2.512-4.29-3.63-.68 1.118 4.97z" fill="#7534ED"/>
    <path d="M31.28 67.53l-3.698.996 1.52 3.365 2.177-4.36z" fill="#7635EE"/>
    <path d="M15.937 66.478l4.292 2.02 1.047-2.84-5.34.82z" fill="#7C3BF1"/>
    <path d="M18.721 71.914l1.507-3.416-2.937.733 1.43 2.683z" fill="#7737EF"/>
    <path d="M22.286 45.37l-3.548 3.183 4.083-1.05-.535-2.132z" fill="#8A4AF6"/>
    <path d="M14.25 49.802l4.488-1.249-3.114-2.843-1.373 4.092z" fill="#8748F6"/>
    <path d="M15.624 45.71l-3.363-1.242.074 3.01 3.29-1.768z" fill="#8A4BF7"/>
    <path d="M14.612 54.297l-.361-4.495-3.85 1.953 4.211 2.541z" fill="#8444F4"/>
    <path d="M10.4 51.755l1.934-4.276-2.721 1.289.788 2.987z" fill="#8747F5"/>
    <path d="M15.624 45.71l-3.29 1.769 1.917 2.323 1.373-4.092z" fill="#8A4BF7"/>
    <path d="M32.234 90.416l1.661-4.503-3.848 2.062 2.187 2.442z" fill="#6927E6"/>
    <path d="M37.263 82.956l-3.368 2.957 4.18 1.261-.812-4.218z" fill="#6A28E7"/>
    <path d="M36.496 80.062l4.084.166-1.653-1.914-2.431 1.748z" fill="#6C2AE8"/>
    <path d="M33.896 85.913l3.367-2.957-4.077-1.35.71 4.307z" fill="#6A28E7"/>
    <path d="M33.186 81.606l3.31-1.544-2.271-1.951-1.039 3.495z" fill="#6C2BE9"/>
    <path d="M40.58 80.228l-4.084-.166.767 2.895 3.317-2.729z" fill="#6A28E7"/>
    <path d="M7.681 115.727l-.08 1.747 2.307.413-2.227-2.16z" fill="#510DD7"/>
    <path d="M99.576 92.759l2.882.84-.023-3.3-2.859 2.46z" fill="#A96AFB"/>
    <path d="M102.435 90.299l4.327 1.87-1.216-2.972-3.111 1.102z" fill="#AA6AFB"/>
    <path d="M10.746 123.64l.343-3.729-1.626 2.464 1.283 1.265z" fill="#530FD7"/>
    <path d="M11.09 119.911l-1.182-2.024-1.776 2.477 2.958-.453z" fill="#520ED7"/>
    <path d="M102.834 83.407l-1.848 3.926 3.249-1.059-1.401-2.867z" fill="#AF6FFB"/>
    <path d="M8.553 121.189l2.537-1.278-2.958.453.421.825z" fill="#520ED7"/>
    <path d="M104.106 104.083l-3.753-1.719.576 3.701 3.177-1.982z" fill="#9F5FFB"/>
    <path d="M99.576 92.759l2.859-2.46-3.723-.415.864 2.875z" fill="#A96AFB"/>
    <path d="M9.907 117.887l-2.101 1.511.326.966 1.775-2.477z" fill="#520ED7"/>
    <path d="M11.994 124.806l3.79-2.623-5.038 1.457 1.248 1.166z" fill="#530FD8"/>
    <path d="M100.929 106.065l-2.886 2.387 3.733 2.768-.847-5.155z" fill="#9E5EFB"/>
    <path d="M23.227 117.055l-2.339-1.977-2.104 3.875 4.443-1.898z" fill="#5410D8"/>
    <path d="M107.6 108.189l-3.67.726 3.782 3.013-.112-3.739z" fill="#9C5BFA"/>
    <path d="M24.838 123.864l-4.537-.771 1.647 4.042 2.89-3.271z" fill="#5612DA"/>
    <path d="M52.03 61.409l-.866-5.488-3.449 2.077 4.314 3.41z" fill="#D193F6"/>
    <path d="M55.918 58.486l-4.753-2.564 2.784 4.007 1.97-1.443z" fill="#D092F7"/>
    <path d="M26.428 131.032l-4.48-3.897 1.02 5.742 3.46-1.845z" fill="#5815DC"/>
    <path d="M17.551 125.075l-3.88 1.204 1.806 1.476 2.074-2.68z" fill="#5410D9"/>
    <path d="M11.115 98.15l3.828-1.18-2.98-1.421-.848 2.602z" fill="#4F0BD5"/>
    <path d="M15.784 122.183l-2.112 4.096 3.88-1.205-1.768-2.891z" fill="#530FD8"/>
    <path d="M69.964 53.072l1.738 2.985 3.182-1.77-4.92-1.215z" fill="#CA8CF8"/>
    <path d="M65.283 50.5l4.68 2.572-1.022-3.299-3.658.728z" fill="#CC8EF7"/>
    <path d="M21.948 127.135l-4.879 1.837 1.91 1.363 2.969-3.2z" fill="#5612DA"/>
    <path d="M11.09 119.911l-.344 3.729 5.037-1.457-4.694-2.272z" fill="#520ED7"/>
    <path d="M103.93 108.915l.176-4.832-3.178 1.982 3.002 2.85z" fill="#9B5BFA"/>
    <path d="M17.662 98.84l-.589-4.392-2.13 2.521 2.719 1.871z" fill="#4F0BD5"/>
    <path d="M21.948 127.135l5.27.668-2.38-3.939-2.89 3.271z" fill="#5612DA"/>
    <path d="M11.37 114.575l-3.689 1.152 2.227 2.16 1.462-3.312z" fill="#510DD6"/>
    <path d="M16.656 113.594l-3.953-2.385-1.334 3.366 5.287-.981z" fill="#510DD7"/>
    <path d="M87.917 69.26l2.979 1.128 1.986-2.49-4.965 1.361z" fill="#BD7EFA"/>
    <path d="M85.23 79.455l1.511-3.343-3.64.464 2.129 2.879z" fill="#B879FA"/>
    <path d="M103.67 113.744l1.412 4.532 2.351-2.745-3.763-1.787z" fill="#9756FA"/>
    <path d="M11.37 114.575l-3.515-.871-.174 2.023 3.689-1.152z" fill="#510DD6"/>
    <path d="M79.92 67.15l-4.003 1.287 2.528 2.63 1.475-3.917z" fill="#C183F9"/>
    <path d="M12.703 111.209l-4.277-1.74-.322 2.148 4.599-.408zm0 0l-.13-3.773-4.146 2.033 4.276 1.74z" fill="#510DD6"/>
    <path d="M80.874 55.178l-3.838 2.046 3.806 2.65.032-4.696z" fill="#C687F9"/>
    <path d="M7.64 118.477l2.268-.59-2.308-.413.04 1.003z" fill="#520ED7"/>
    <path d="M107.6 108.189l4.097 1.803-.512-2.874-3.585 1.071z" fill="#9C5BFA"/>
    <path d="M20.888 115.078l.231-1.917-4.463.433 4.232 1.484z" fill="#520ED7"/>
    <path d="M18.784 118.953l-4.546-1.582 1.545 4.812 3.001-3.23z" fill="#530FD8"/>
    <path d="M66.397 47.58l-1.728-2.603-1.747 3.491 3.475-.887z" fill="#CC8EF7"/>
    <path d="M56.98 42.67l-.755.24 1.676 2.105-.921-2.345z" fill="#CF91F7"/>
    <path d="M11.995 124.806l1.677 1.473 2.111-4.096-3.788 2.623z" fill="#530FD8"/>
    <path d="M21.12 113.161l.304-1.966-4.768 2.399 4.463-.433z" fill="#510DD7"/>
    <path d="M16.395 109.56l-.55-4.006-3.273 1.882 3.823 2.124z" fill="#500CD6"/>
    <path d="M8.553 121.189l.42.615 2.116-1.893-2.536 1.278z" fill="#520ED7"/>
    <path d="M12.572 107.436l-3.308-2.305-.467 2.262 3.775.043z" fill="#500CD6"/>
    <path d="M109.986 118.089l1.73 2.612.379-.945-2.109-1.667z" fill="#9554F9"/>
    <path d="M59.887 49.174l-1.986-4.16-2.245.666 4.23 3.494z" fill="#CE90F7"/>
    <path d="M18.849 107.182l-2.454 2.378 5.03 1.635-2.576-4.013z" fill="#500CD5"/>
    <path d="M59.887 49.174l1.706-4.894-3.692.735 1.986 4.159z" fill="#CE90F7"/>
    <path d="M14.238 117.371l4.546 1.582-2.128-5.359-2.418 3.777zm-4.33.516l-2.269.59.167.921 2.102-1.511z" fill="#520ED7"/>
    <path d="M24.152 100.416l-3.325-.462 2.626 2.663.699-2.201z" fill="#4F0BD5"/>
    <path d="M29.707 131.58l-3.279-.548.44 3.982 2.839-3.434z" fill="#5A16DD"/>
    <path d="M99.842 77.974l-1.466 4.248 2.971-1.622-1.505-2.626z" fill="#B374FB"/>
    <path d="M36.566 139.114l3.096-2.447-2.646-1.964-.45 4.411z" fill="#5F1BE0"/>
    <path d="M60.002 55.713L56.1 54.236l1.835 2.845 2.066-1.368z" fill="#CE90F7"/>
    <path d="M56.101 54.235L53.22 52.46l-2.054 3.462 4.936-1.686z" fill="#CF91F7"/>
    <path d="M38.572 139.777l1.09-3.11-3.096 2.447 2.006.663z" fill="#601CE0"/>
    <path d="M26.867 135.014l1.863.913.977-4.347-2.84 3.434z" fill="#5916DC"/>
    <path d="M80.842 59.874L83.4 57.51l-2.526-2.332-.032 4.696z" fill="#C485F9"/>
    <path d="M33.039 123.45l-1.433 4.153 3.29.362-1.857-4.515z" fill="#5A16DC"/>
    <path d="M80.842 59.874l-3.358.926 2.618 2.477.74-3.403z" fill="#C485F9"/>
    <path d="M80.102 63.277l3.116 1.696.103-3.152-3.219 1.456z" fill="#C384F9"/>
    <path d="M37.016 134.703l-2.466 3.685 2.016.726.45-4.411z" fill="#5E1ADF"/>
    <path d="M40.409 140.333l2.065.566 2.023-3.59-4.088 3.024z" fill="#611DE1"/>
    <path d="M76.787 64.865l.697-4.065-3.564-.541 2.867 4.606z" fill="#C485F9"/>
    <path d="M52.615 129.565l-1.986-.295-.17 3.815 2.156-3.52z" fill="#6724E5"/>
    <path d="M27.218 127.803l-5.27-.668 4.48 3.897.79-3.229z" fill="#5814DB"/>
    <path d="M54.805 143.06l1.827.118-.64-4.254-1.187 4.136z" fill="#6926E7"/>
    <path d="M68.33 139.307l1.394-3.479-4.36-1.503 2.967 4.982z" fill="#7230EC"/>
    <path d="M74.73 141.571l-3.04-2.897.868 3.347 2.173-.45z" fill="#7734EE"/>
    <path d="M48.544 137.886l.267 4.39 2.724-2.927-2.991-1.463z" fill="#6522E4"/>
    <path d="M44.497 137.309l2.197 4.568 1.85-3.991-4.047-.577z" fill="#621FE2"/>
    <path d="M56.101 54.235l.486-3.35-3.368 1.574 2.882 1.776z" fill="#CF91F7"/>
    <path d="M48.544 137.886l-1.82-4.004-2.227 3.427 4.047.577z" fill="#6522E4"/>
    <path d="M49.197 47.221l4.347 1.528-2.148-3.044-2.2 1.516z" fill="#D092F7"/>
    <path d="M53.544 48.748l-.325 3.711 3.368-1.574-3.043-2.136z" fill="#CF91F7"/>
    <path d="M48.544 137.886l-1.85 3.991 2.117.399-.267-4.39z" fill="#6522E4"/>
    <path d="M44.492 141.397l2.203.48-2.198-4.568-.005 4.088z" fill="#6320E3"/>
    <path d="M26.867 135.014l-.439-3.982-1.384 3.022 1.823.96z" fill="#5916DC"/>
    <path d="M56.586 50.885l-.485 3.35 4.427-1.802-3.942-1.548z" fill="#CF91F7"/>
    <path d="M52.652 136.212l-1.117 3.137 4.456-.425-3.34-2.712z" fill="#6724E5"/>
    <path d="M29.707 131.58l.924 5.214 3.066-2.31-3.99-2.904z" fill="#5A16DD"/>
    <path d="M28.175 124.536l3.43 3.067 1.433-4.153-4.863 1.086z" fill="#5814DB"/>
    <path d="M55.991 138.924l-4.456.425 1.255 3.509 3.201-3.934z" fill="#6A27E7"/>
    <path d="M38.46 125.914l-2.692-1.14-.873 3.191 3.565-2.051z" fill="#5D19DF"/>
    <path d="M34.145 131.188l4.353-.686-3.603-2.537-.75 3.223z" fill="#5C18DE"/>
    <path d="M65.897 129.744l-.533 4.581 2.964-1.525-2.431-3.056z" fill="#712FEB"/>
    <path d="M47.715 57.998l2.447 4.925 1.867-1.514-4.314-3.411z" fill="#D193F6"/>
    <path d="M27.984 120.504l-5.002.547 1.856 2.813 3.146-3.36z" fill="#5713DA"/>
    <path d="M17.07 128.972l4.878-1.837-4.397-2.06-.482 3.897z" fill="#5511D9"/>
    <path d="M33.038 123.45l-2.523-1.385-2.34 2.471 4.863-1.086z" fill="#5A16DC"/>
    <path d="M24.838 123.864l2.38 3.939.957-3.267-3.337-.672z" fill="#5612DA"/>
    <path d="M108.224 119.769l-.792-4.238-2.35 2.745 3.142 1.493z" fill="#9453F9"/>
    <path d="M90.009 132.859l3.09 2.171-.67-4.443-2.42 2.272z" fill="#8442F4"/>
    <path d="M30.631 136.794l-.924-5.214-.977 4.347 1.901.867z" fill="#5B18DE"/>
    <path d="M81.858 136.15l2.697-1.931-4.488-.861 1.79 2.792z" fill="#7D3BF1"/>
    <path d="M48.784 128.936l-1.912-.41-.148 5.356 2.06-4.946z" fill="#6421E3"/>
    <path d="M71.885 132.424l1.518-3.975-1.872.415.354 3.56z" fill="#7633EE"/>
    <path d="M52.615 129.565l-2.155 3.52 3.327-.083-1.172-3.437z" fill="#6724E5"/>
    <path d="M50.46 133.085l-1.676-4.149-2.06 4.946 3.735-.797z" fill="#6623E4"/>
    <path d="M46.724 133.882l1.82 4.004 1.915-4.801-3.735.797z" fill="#6320E3"/>
    <path d="M98.335 95.492l-5.203-2.084.808 1.89 4.395.194z" fill="#A868FB"/>
    <path d="M38.46 125.914l-3.565 2.051 3.603 2.537-.038-4.588z" fill="#5D19DF"/>
    <path d="M60.816 138.404l-4.77-2.958-.054 3.478 4.824-.52z" fill="#6D2AE9"/>
    <path d="M46.872 128.526l-2.81 2.979 2.663 2.377.147-5.356z" fill="#631FE2"/>
    <path d="M38.498 130.502l4.629-2.97-1.808-.576-2.821 3.546z" fill="#5E1ADF"/>
    <path d="M68.796 57.772l-3.683 1.448 1.831 1.373 1.852-2.82z" fill="#C98BF8"/>
    <path d="M105.082 118.276l-1.412-4.532-2.621 4.888 4.033-.356z" fill="#9453F9"/>
    <path d="M44.899 128.034l-.838 3.47 2.811-2.978-1.973-.492z" fill="#611EE2"/>
    <path d="M62.347 135.537l2.58 3.461.437-4.673-3.017 1.212z" fill="#6E2BE9"/>
    <path d="M112.404 117.814l-.097-2.432-2.321 2.707 2.418-.275z" fill="#9555F9"/>
    <path d="M58.376 143.221l-2.384-4.297.64 4.254 1.744.043z" fill="#6B29E8"/>
    <path d="M39.622 54.733l5.086.763-2.888-2.64-2.198 1.877zm5.56 4.98l-.475-4.217-2.437 3.276 2.912.94z" fill="#D193F6"/>
    <path d="M85.762 127.743l-2.428 2.312 4.78.079-2.352-2.391z" fill="#8240F3"/>
    <path d="M17.661 98.84l3.166 1.114 2.568-4.343-5.734 3.23zm-7.899 4.167l2.945 1.237-2.39-3.361-.555 2.124z" fill="#4F0BD5"/>
    <path d="M98.123 75.196l-5.221 1.728 3.254 1.952 1.967-3.68z" fill="#B676FB"/>
    <path d="M106.762 92.168l-4.304 1.431 2.19 2.568 2.114-3.999z" fill="#A868FB"/>
    <path d="M78.514 53.133l-3-2.43-.63 3.585 3.63-1.155z" fill="#C789F8"/>
    <path d="M17.073 94.448l-4.134-1.603 2.004 4.124 2.13-2.52z" fill="#4F0AD4"/>
    <path d="M32.572 137.614l1.125-3.13-3.065 2.31 1.94.82z" fill="#5C19DE"/>
    <path d="M21.33 93.217l-2.19-2.689-2.067 3.92 4.257-1.23z" fill="#4F0AD4"/>
    <path d="M10.317 100.883l4.15.695-3.352-3.427-.798 2.732z" fill="#4F0BD5"/>
    <path d="M21.33 93.218l-4.257 1.23.589 4.392 3.668-5.623z" fill="#4F0AD4"/>
    <path d="M12.707 104.244l1.76-2.666-4.15-.695 2.39 3.361z" fill="#500BD5"/>
    <path d="M90.805 88.577l1.976-3.127-3.699.006 1.723 3.121z" fill="#B070FB"/>
    <path d="M24.984 98.045l-.828-.262-.004 2.633.832-2.371z" fill="#4F0BD5"/>
    <path d="M8.104 111.617l-.249 2.087 3.514.871-3.265-2.958z" fill="#510DD6"/>
    <path d="M24.156 97.783l.828.262.039-.225-.867-.037z" fill="#4F0BD5"/>
    <path d="M65.364 134.325l-1.345-4.412-1.875.108 3.22 4.304z" fill="#712EEB"/>
    <path d="M39.94 62.478l4.614.229-2.283-3.935-2.33 3.706z" fill="#D194F6"/>
    <path d="M24.156 97.783l.867.037-.014-.26-.853.223z" fill="#4F0BD5"/>
    <path d="M12.572 107.436l.135-3.192-3.443.887 3.308 2.305z" fill="#500CD6"/>
    <path d="M24.534 96.847l-.378.936.64-.699-.262-.237z" fill="#4F0BD5"/>
    <path d="M78.514 53.133l-1.478 4.091 3.838-2.046-2.36-2.045z" fill="#C789F8"/>
    <path d="M24.932 97.31l-.137-.226-.639.699.776-.473zm0 0l-.776.473.853-.224-.077-.249z" fill="#4F0BD5"/>
    <path d="M27.983 120.504l-3.145 3.36 3.337.672-.192-4.032z" fill="#5713DA"/>
    <path d="M95.312 127.376l-.927-3.843-3.289 2.924 4.216.919z" fill="#8948F6"/>
    <path d="M14.467 101.578l4.636 1.255-1.441-3.993-3.195 2.738z" fill="#4F0BD5"/>
    <path d="M20.828 99.954l-1.725 2.879 4.351-.216-2.626-2.663z" fill="#4F0BD5"/>
    <path d="M25.044 134.054l1.384-3.022-3.46 1.845 2.076 1.177z" fill="#5915DC"/>
    <path d="M15.87 88.132l-.62-.657-.149.184.77.473z" fill="#4E0AD4"/>
    <path d="M15.87 88.132l-.401-.822-.218.165.62.657z" fill="#4E0AD4"/>
    <path d="M57.936 57.08l-1.835-2.844-.183 4.25 2.018-1.405z" fill="#CF91F7"/>
    <path d="M51.164 55.922l-3.147-2.511-.302 4.587 3.45-2.076z" fill="#D092F7"/>
    <path d="M76.923 136.706l2.107 3.785 2.09-.618-4.197-3.167z" fill="#7937EF"/>
    <path d="M15.469 87.31l.401.822-.147-.928-.255.106z" fill="#4E0AD4"/>
    <path d="M51.535 139.349l-2.724 2.927 1.986.319.738-3.246z" fill="#6724E5"/>
    <path d="M15.962 87.168l-.091.964.486-.272-.395-.692zm-.239.036l.147.928.091-.964-.238.036z" fill="#4E0AD4"/>
    <path d="M84.555 134.219l2.505 3.544 1.95-.812-4.455-2.732z" fill="#7F3DF2"/>
    <path d="M16.357 87.86l.294-.472-.21-.126-.084.598z" fill="#4E0AD4"/>
    <path d="M31.606 127.603l-1.899 3.977 4.438-.392-2.539-3.585z" fill="#5A16DD"/>
    <path d="M38.498 130.502l-1.482 4.201 4.35-.856-2.868-3.345z" fill="#5E1ADF"/>
    <path d="M16.357 87.86l.084-.598-.234-.074.15.672z" fill="#4E0AD4"/>
    <path d="M44.088 51.024l.62 4.472 3.31-2.086-3.93-2.386z" fill="#D193F6"/>
    <path d="M15.962 87.168l.395.692-.15-.672-.245-.02zm.848.369l-.159-.15-.294.473.454-.323z" fill="#4E0AD4"/>
    <path d="M11.09 119.911l4.693 2.272-1.545-4.812-3.148 2.54z" fill="#520ED7"/>
    <path d="M37.272 57.501l.09.298.768-.447-.858.15z" fill="#D193F6"/>
    <path d="M80.067 133.358l4.488.861-1.222-4.164-3.266 3.303z" fill="#7C3AF1"/>
    <path d="M37.272 57.501l.858-.149-.867-.079.009.228z" fill="#D193F6"/>
    <path d="M38.13 57.352l-.817-.34-.05.261.867.08z" fill="#D193F6"/>
    <path d="M50.46 133.085l-1.916 4.801 4.108-1.674-2.192-3.127z" fill="#6623E4"/>
    <path d="M76.923 136.706l-1.458-4.079-2.069 3.039 3.527 1.04z" fill="#7937EF"/>
    <path d="M14.467 101.578l.476-4.609-3.828 1.182 3.352 3.427z" fill="#4F0BD5"/>
    <path d="M33.697 134.484l3.319.219-2.87-3.515-.45 3.296z" fill="#5C19DE"/>
    <path d="M15.87 88.132l-1.957 2.252 2.8-1.313-.843-.94z" fill="#4E0AD4"/>
    <path d="M26.428 131.032l3.279.548-2.49-3.777-.788 3.229z" fill="#5815DC"/>
    <path d="M104.567 122.425l.515-4.149-4.033.356 3.518 3.793z" fill="#9150F8"/>
    <path d="M77.484 60.8l-.448-3.576-3.116 3.035 3.564.541z" fill="#C586F9"/>
    <path d="M44.116 67.18l-.532.629.354.138.178-.768z" fill="#D194F6"/>
    <path d="M37.016 134.703l-3.32-.219.853 3.904 2.467-3.685z" fill="#5E1ADF"/>
    <path d="M18.849 107.182l3.954-2.268-3.7-2.081-.254 4.349z" fill="#500CD5"/>
    <path d="M43.584 67.809l.531-.63-.832.382.301.248zm1.437-1.004l-.468-4.098-2.735 2.804 3.203 1.294z" fill="#D194F6"/>
    <path d="M16.395 109.56l-3.692 1.649 3.953 2.385-.261-4.034z" fill="#500CD6"/>
    <path d="M44.115 67.18l.906-.375-2.396-.12 1.49.495z" fill="#D194F6"/>
    <path d="M51.165 55.921l.865 5.488 1.919-1.48-2.784-4.008z" fill="#D092F7"/>
    <path d="M18.785 118.953l-3.001 3.23 4.517.91-1.516-4.14z" fill="#530FD8"/>
    <path d="M44.553 62.707l-3.696 1.297.96 1.507 2.736-2.804z" fill="#D193F6"/>
    <path d="M43.938 67.947l.205.02.21-.445-.416.425z" fill="#D194F6"/>
    <path d="M23.395 95.611l-2.568 4.343 3.329-2.171-.761-2.172z" fill="#4F0AD5"/>
    <path d="M44.385 67.939l.194-.065-.226-.352.032.417z" fill="#D194F6"/>
    <path d="M91.096 126.457l-2.983 3.677 4.317.453-1.334-4.13z" fill="#8745F5"/>
    <path d="M44.354 67.522l-.238-.343-.178.768.416-.425z" fill="#D194F6"/>
    <path d="M76.923 136.706l-3.526-1.04-1.708 3.008 5.234-1.968z" fill="#7937EF"/>
    <path d="M68.33 139.307l-2.966-4.982-.437 4.673 3.404.309z" fill="#7230EC"/>
    <path d="M44.115 67.18l-1.49-.496.658.877.832-.382z" fill="#D194F6"/>
    <path d="M50.162 62.923l-4.98-3.21 3.167 4.758 1.813-1.548z" fill="#D193F6"/>
    <path d="M94.385 123.533l.28-4.863-1.625 1.147 1.345 3.716z" fill="#8B49F6"/>
    <path d="M44.708 55.496l-5.086-.763 2.649 4.04 2.437-3.277z" fill="#D193F6"/>
    <path d="M83.334 130.055l2.428-2.312-3.173-2.274.745 4.586z" fill="#803EF2"/>
    <path d="M43.127 127.531l-4.63 2.971 5.564 1.002-.934-3.973z" fill="#601DE1"/>
    <path d="M47.715 57.998l-2.533 1.715 4.98 3.21-2.447-4.925z" fill="#D193F6"/>
    <path d="M69.724 135.828l-1.396-3.028-2.964 1.525 4.36 1.503z" fill="#7431EC"/>
    <path d="M44.143 67.967l.242-.028-.032-.416-.21.444z" fill="#D194F6"/>
    <path d="M73.257 65.892l.664-5.633-2.323 4.146 1.66 1.487z" fill="#C586F9"/>
    <path d="M42.27 58.772l2.283 3.935.629-2.994-2.912-.94z" fill="#D193F6"/>
    <path d="M97.235 105.07l3.118-2.706-4.08-.633.962 3.339z" fill="#A05FFB"/>
    <path d="M37.313 57.013l.817.34-.723-.549-.094.209z" fill="#D193F6"/>
    <path d="M38.13 57.352l-.585-.735-.139.187.724.548zm0 0l-.236 1.46 4.377-.04-4.14-1.42z" fill="#D193F6"/>
    <path d="M37.894 58.813l.236-1.46-.768.445.532 1.014z" fill="#D194F6"/>
    <path d="M100.353 102.364l-3.118 2.706 3.693.995-.575-3.701z" fill="#A261FB"/>
    <path d="M71.701 56.057l-1.737-2.985-2.933 1.824 4.67 1.16z" fill="#C98BF8"/>
    <path d="M48.018 53.41l-3.31 2.086 3.008 2.502.302-4.587z" fill="#D193F6"/>
    <path d="M94.87 88.556l3.176-2.965-5.265-.14 2.089 3.105z" fill="#AE6EFB"/>
    <path d="M44.088 51.024l-2.268 1.832 2.887 2.64-.619-4.472z" fill="#D193F6"/>
    <path d="M46.748 48.992l-2.66 2.032 3.93 2.386-1.27-4.418z" fill="#D092F7"/>
    <path d="M98.046 85.591l-3.176 2.965 3.842 1.329-.666-4.294z" fill="#AF6FFB"/>
    <path d="M38.13 57.352l4.14 1.42-2.648-4.039-1.492 2.62z" fill="#D193F6"/>
    <path d="M67.031 54.896l2.933-1.824-4.68-2.571 1.747 4.395z" fill="#CB8DF8"/>
    <path d="M51.396 45.706l2.148 3.043 2.111-3.07-4.259.026z" fill="#CF92F7"/>
    <path d="M48.017 53.41l3.147 2.511 2.055-3.462-5.202.951z" fill="#D193F6"/>
    <path d="M55.655 45.68l-1.577-1.732-2.682 1.758 4.26-.026z" fill="#CF91F7"/>
    <path d="M55.656 45.68l2.245-.665-1.676-2.105-.57 2.77z" fill="#CF91F7"/>
    <path d="M63.591 53.72l-.04 4.38 3.48-3.204-3.44-1.177z" fill="#CC8EF7"/>
    <path d="M14.943 96.97l-2.004-4.125-.975 2.703 2.979 1.421z" fill="#4F0BD5"/>
    <path d="M79.92 67.15l.183-3.873-3.316 1.588 3.133 2.285z" fill="#C183F9"/>
    <path d="M55.655 45.68l-.648-2.251-.929.52 1.577 1.73z" fill="#CF91F7"/>
    <path d="M84.23 68.373l.473 4.596 3.213-3.71-3.685-.886z" fill="#BF80FA"/>
    <path d="M61.593 44.28l-1.707 4.894 3.035-.706-1.328-4.188zm-3.972-1.769l-.641.16.921 2.344-.28-2.504z" fill="#CE90F7"/>
    <path d="M85.83 59.91l-2.508 1.912 4.75.456-2.243-2.368z" fill="#C283F9"/>
    <path d="M46.748 48.992l1.27 4.419 2.176-2.793-3.446-1.626z" fill="#D092F7"/>
    <path d="M87.916 69.259l-1.219-3.59-2.466 2.704 3.686.886z" fill="#BD7EFA"/>
    <path d="M51.165 55.922l4.753 2.564.183-4.25-4.936 1.686z" fill="#D092F7"/>
    <path d="M17.073 94.448l2.067-3.92-2.427-1.457.36 5.377z" fill="#4F0AD4"/>
    <path d="M60.816 138.404l.454 4.813 1.506-.019-1.96-4.794z" fill="#6D2AE9"/>
    <path d="M12.703 111.209l3.692-1.649-3.823-2.124.131 3.773zm0 0l-4.599.408 3.265 2.958 1.334-3.366z" fill="#510DD6"/>
    <path d="M50.194 50.618l-2.177 2.792 5.202-.951-3.025-1.84z" fill="#D092F7"/>
    <path d="M56.577 129.951l-2.79 3.051 2.258 2.444.532-5.495z" fill="#6A27E7"/>
    <path d="M97.235 105.07l.807 3.382 2.886-2.387-3.693-.995z" fill="#A05FFB"/>
    <path d="M56.1 54.236l3.902 1.477.526-3.28-4.427 1.803z" fill="#CF91F7"/>
    <path d="M73.403 128.449l-1.518 3.975 3.58.203-2.062-4.178z" fill="#7836EE"/>
    <path d="M85.073 138.528l-3.215-2.378 1.19 3.096 2.025-.718z" fill="#7E3CF2"/>
    <path d="M59.335 134.314l.938-4.249-1.765-.023.827 4.272z" fill="#6C29E8"/>
    <path d="M66.152 142.968l-1.225-3.97-.545 4.119 1.77-.149z" fill="#712EEB"/>
    <path d="M64.927 138.998l-2.15 4.2 1.605-.081.545-4.119z" fill="#702DEA"/>
    <path d="M68.33 139.307l-3.403-.309 1.225 3.97 2.179-3.661z" fill="#7230EC"/>
    <path d="M52.79 142.858l-1.255-3.509-.738 3.246 1.994.263z" fill="#6825E6"/>
    <path d="M52.652 136.212l-4.108 1.674 2.991 1.463 1.117-3.137z" fill="#6724E5"/>
    <path d="M58.376 143.221l1.627-.052.813-4.765-2.44 4.817z" fill="#6B29E8"/>
    <path d="M81.858 136.15l-1.79-2.792-3.145 3.348 4.935-.556z" fill="#7D3BF1"/>
    <path d="M64.927 138.998l-4.111-.594 1.96 4.794 2.151-4.2z" fill="#702DEA"/>
    <path d="M74.73 141.571l2.193-4.865-5.234 1.968 3.042 2.897z" fill="#7734EE"/>
    <path d="M46.724 133.882l-5.357-.035 3.13 3.462 2.227-3.427z" fill="#6320E3"/>
    <path d="M76.98 141.037l-.057-4.331-2.192 4.865 2.248-.534z" fill="#7836EF"/>
    <path d="M33.697 134.484l.448-3.296-4.438.392 3.99 2.904z" fill="#5C19DE"/>
    <path d="M34.55 138.388l-.853-3.904-1.126 3.13 1.979.774z" fill="#5D1ADF"/>
    <path d="M79.03 140.491l-2.107-3.785.056 4.331 2.05-.546z" fill="#7A37EF"/>
    <path d="M81.858 136.15l-4.935.556 4.197 3.167.738-3.723z" fill="#7D3BF1"/>
    <path d="M40.41 140.333l-.748-3.666-1.09 3.11 1.837.556z" fill="#611DE1"/>
    <path d="M81.858 136.15l-.738 3.723 1.928-.627-1.19-3.096z" fill="#7D3BF1"/>
    <path d="M22.803 104.914l-3.954 2.268 3.414-.116.54-2.152z" fill="#4F0BD5"/>
    <path d="M15.845 105.554l.55 4.006 2.453-2.378-3.003-1.628z" fill="#500CD5"/>
    <path d="M80.067 133.358l-4.601-.731 1.457 4.079 3.144-3.348z" fill="#7C3AF1"/>
    <path d="M41.367 133.847l-4.351.856 2.646 1.964 1.705-2.82z" fill="#601DE1"/>
    <path d="M71.689 138.674l-3.358.633 2.143 3.087 1.215-3.72z" fill="#7532ED"/>
    <path d="M39.662 136.667l4.835.642-3.13-3.462-1.705 2.82z" fill="#601CE1"/>
    <path d="M87.06 137.763l-2.505-3.544.518 4.309 1.987-.765z" fill="#803EF2"/>
    <path d="M68.33 139.307l-2.178 3.661 2.1-.244.079-3.417z" fill="#7230EC"/>
    <path d="M54.698 129.801l-.912 3.201 2.79-3.051-1.878-.15z" fill="#6825E6"/>
    <path d="M59.335 134.314l2.809-4.293-1.871.044-.938 4.249z" fill="#6C29E8"/>
    <path d="M73.921 60.259l-5.125-2.487-.36 3.988 5.485-1.501z" fill="#C788F8"/>
    <path d="M101.931 125.101l-3.137 2.595 4.121 1.287-.984-3.882z" fill="#8F4DF8"/>
    <path d="M60.815 138.404l1.532-2.867-3.012-1.223 1.48 4.09z" fill="#6D2AE9"/>
    <path d="M85.073 138.528l-.518-4.309-2.697 1.931 3.215 2.378z" fill="#7E3CF2"/>
    <path d="M67.776 129.512l.553 3.288 1.326-3.581-1.879.293z" fill="#7330EC"/>
    <path d="M64.02 129.913l1.344 4.412.533-4.581-1.878.169z" fill="#702DEA"/>
    <path d="M101.049 118.632l-.31 3.336 3.828.457-3.518-3.793z" fill="#9251F8"/>
    <path d="M59.335 134.314l3.012 1.223-.203-5.517-2.81 4.294z" fill="#6C29E8"/>
    <path d="M52.79 142.858l2.015.202 1.186-4.136-3.2 3.934z" fill="#6825E6"/>
    <path d="M65.284 50.5l-4.756 1.933 3.063 1.286 1.693-3.218z" fill="#CC8EF7"/>
    <path d="M80.067 133.358l-.077-3.343-4.524 2.612 4.601.731z" fill="#7C3AF1"/>
    <path d="M60.003 143.169l1.267.048-.454-4.813-.813 4.765z" fill="#6D2AE8"/>
    <path d="M75.27 127.972l-1.866.477 2.062 4.178-.195-4.655z" fill="#7A37EF"/>
    <path d="M69.654 129.219l2.232 3.205-.355-3.56-1.877.355z" fill="#7532ED"/>
    <path d="M112.068 112.734l-4.356-.806-.28 3.603 4.636-2.797z" fill="#9857FA"/>
    <path d="M64.385 43.151l-1.219 2.211 1.503-.385-.284-1.826z" fill="#CD8FF7"/>
    <path d="M83.334 130.055l-2.599-3.851-.745 3.811 3.344.04z" fill="#803EF2"/>
    <path d="M16.713 89.071l-2.8 1.313 3.16 4.064-.36-5.377z" fill="#4E0AD4"/>
    <path d="M80.735 126.204l2.598 3.851-.744-4.586-1.854.735zm0 0l-1.614.582.869 3.229.745-3.811z" fill="#7F3DF2"/>
    <path d="M9.463 122.375l1.627-2.464-2.118 1.894.49.57z" fill="#520ED7"/>
    <path d="M77.211 127.409l-1.745 5.218 4.524-2.612-2.779-2.606z" fill="#7B39F0"/>
    <path d="M18.784 118.953l4.198 2.098.245-3.996-4.443 1.898z" fill="#530FD8"/>
    <path d="M69.655 129.219l-1.326 3.581 3.557-.376-2.231-3.205z" fill="#7532ED"/>
    <path d="M17.975 89.033l-1.262.038 2.427 1.457-1.165-1.495z" fill="#4E0AD4"/>
    <path d="M84.555 134.219l4.454 2.732 1-4.092-5.454 1.36z" fill="#7F3DF2"/>
    <path d="M72.385 48.342l-2.42 4.73 5.55-2.37-3.13-2.36z" fill="#CB8CF8"/>
    <path d="M90.01 132.859l-1.001 4.092 2.225-1.007-1.225-3.085z" fill="#8442F4"/>
    <path d="M16.656 113.594l4.769-2.399-5.03-1.635.261 4.034zm0 0l-5.287.981 2.87 2.796 2.417-3.777z" fill="#510DD7"/>
    <path d="M85.762 127.743l.44-3.922-1.79.854 1.35 3.068z" fill="#8240F3"/>
    <path d="M16.713 89.071l-.356-1.21-.486.27.842.94z" fill="#4E0AD4"/>
    <path d="M91.096 126.457l-4.894-2.636-.44 3.922 5.334-1.286z" fill="#8745F5"/>
    <path d="M99.315 131.469l-.521-3.773-1.496 5.023 2.017-1.25z" fill="#8A49F6"/>
    <path d="M18.784 118.953l2.104-3.875-4.232-1.484 2.128 5.359z" fill="#530FD8"/>
    <path d="M92.43 130.587l.67 4.443 2.125-1.124-2.796-3.319z" fill="#8644F5"/>
    <path d="M91.097 126.457l-3.135-3.549-1.76.913 4.895 2.636z" fill="#8745F5"/>
    <path d="M9.908 117.887l4.33-.516-2.869-2.796-1.461 3.312z" fill="#520ED7"/>
    <path d="M84.555 134.219l3.558-4.085-4.78-.079 1.222 4.164z" fill="#7F3DF2"/>
    <path d="M99.315 131.469l1.962-1.312-2.483-2.461.521 3.773z" fill="#8A49F6"/>
    <path d="M20.301 123.093l-4.517-.91 1.768 2.892 2.75-1.982z" fill="#5511D9"/>
    <path d="M97.297 132.719l1.496-5.023-3.481-.32 1.985 5.343z" fill="#8947F6"/>
    <path d="M44.708 55.496l.474 4.217 2.533-1.715-3.008-2.502z" fill="#D193F6"/>
    <path d="M17.07 128.972l.481-3.897-2.074 2.68 1.592 1.217z" fill="#5511D9"/>
    <path d="M102.914 128.983l1.858-1.426-2.842-2.456.984 3.882z" fill="#8D4CF7"/>
    <path d="M108.001 124.811l-3.434-2.386 1.934 3.707 1.5-1.321z" fill="#9251F9"/>
    <path d="M97.298 132.719l-4.869-2.132 2.796 3.319 2.073-1.187z" fill="#8947F6"/>
    <path d="M104.567 122.425l3.434 2.386 1.457-1.365-4.891-1.021z" fill="#9150F8"/>
    <path d="M62.144 130.02l.203 5.517 3.017-1.212-3.22-4.305z" fill="#6E2CE9"/>
    <path d="M92.43 130.587l-4.317-.453 1.896 2.725 2.42-2.272z" fill="#8644F5"/>
    <path d="M104.567 122.425l-2.637 2.676 4.571 1.031-1.934-3.707z" fill="#9150F8"/>
    <path d="M45.182 59.713l-.629 2.994 3.796 1.764-3.167-4.758z" fill="#D193F6"/>
    <path d="M95.312 127.376l2.963-3.137-3.89-.706.927 3.843z" fill="#8948F6"/>
    <path d="M18.784 118.953l1.517 4.14 2.681-2.042-4.198-2.098z" fill="#530FD8"/>
    <path d="M109.458 123.446l-1.233-3.678-3.658 2.657 4.891 1.021z" fill="#9352F9"/>
    <path d="M42.27 58.772l-4.376.04 2.046 3.666 2.33-3.706z" fill="#D193F6"/>
    <path d="M89.688 121.936l-1.727.972 3.135 3.549-1.408-4.521z" fill="#8846F5"/>
    <path d="M16.713 89.071l.098-1.534-.454.323.356 1.211z" fill="#4E0AD4"/>
    <path d="M91.38 120.906l-1.693 1.03 4.698 1.597-3.005-2.627z" fill="#8A48F6"/>
    <path d="M89.687 121.936l1.409 4.521 3.289-2.924-4.698-1.597z" fill="#8846F5"/>
    <path d="M21.33 93.218l-3.67 5.622 5.734-3.229-2.065-2.394z" fill="#4F0AD4"/>
    <path d="M44.579 67.874l.203-.119-.428-.233.225.352z" fill="#D194F6"/>
    <path d="M96.255 117.465l-1.59 1.205 6.074 3.299-4.484-4.504z" fill="#904FF8"/>
    <path d="M101.049 118.632l2.621-4.888-4.556 1.331 1.935 3.557z" fill="#9251F8"/>
    <path d="M45.021 66.805l-.906.374.239.343.667-.717z" fill="#D194F6"/>
    <path d="M101.049 118.632l-1.935-3.557-1.304 1.128 3.239 2.429z" fill="#9251F8"/>
    <path d="M45.02 66.805l-.667.717.429.233.239-.95z" fill="#D194F6"/>
    <path d="M94.664 118.67l3.61 5.569 2.465-2.27-6.075-3.299z" fill="#8E4CF7"/>
    <path d="M16.81 87.537l-.097 1.534 1.262-.038-1.164-1.496z" fill="#4E0AD4"/>
    <path d="M110.603 122.307l.592-.728-2.97-1.811 2.378 2.539z" fill="#9453F9"/>
    <path d="M65.897 129.744l2.431 3.056-.552-3.288-1.879.232z" fill="#712FEB"/>
    <path d="M108.225 119.768l-3.143-1.492-.515 4.149 3.658-2.657z" fill="#9453F9"/>
    <path d="M82.59 125.469l3.172 2.274-1.35-3.068-1.823.794z" fill="#803FF2"/>
    <path d="M71.886 132.424l-2.162 3.404 3.673-.162-1.511-3.242z" fill="#7633EE"/>
    <path d="M112.095 119.755l.232-.999-2.341-.668 2.109 1.667z" fill="#9554F9"/>
    <path d="M103.67 113.744l-4.741-.224.185 1.555 4.556-1.331z" fill="#9756FA"/>
    <path d="M109.985 118.089l-2.553-2.558.792 4.238 1.761-1.68z" fill="#9554F9"/>
    <path d="M109.986 118.089l-1.761 1.679 3.491.933-1.73-2.612z" fill="#9554F9"/>
    <path d="M80.067 133.358l3.267-3.303-3.344-.04.078 3.343z" fill="#7C3AF1"/>
    <path d="M112.404 117.814l-2.418.275 2.341.667.077-.942z" fill="#9555F9"/>
    <path d="M77.21 127.409l2.78 2.606-.869-3.229-1.91.623z" fill="#7B39F0"/>
    <path d="M85.762 127.743l2.35 2.391 2.984-3.677-5.334 1.286z" fill="#8240F3"/>
    <path d="M96.255 117.465l4.485 4.504.309-3.337-4.794-1.167z" fill="#904FF8"/>
    <path d="M109.458 123.446l1.145-1.139-2.378-2.539 1.233 3.678z" fill="#9352F9"/>
    <path d="M112.306 115.382l-.238-2.648-4.636 2.797 4.874-.149z" fill="#9756FA"/>
    <path d="M64.927 138.998l-2.58-3.461-1.531 2.867 4.111.594z" fill="#702DEA"/>
    <path d="M45.02 66.805l1.571-.753-2.038-3.345.468 4.098z" fill="#D194F6"/>
    <path d="M18.849 107.182l2.575 4.013.401-2.134-2.976-1.879z" fill="#500CD5"/>
    <path d="M45.021 66.805l-3.203-1.294.807 1.173 2.396.121zm-5.081-4.327l.918 1.526 3.696-1.297-4.613-.23z" fill="#D194F6"/>
    <path d="M49.197 47.221l.997 3.397 3.35-1.87-4.347-1.527z" fill="#D092F7"/>
    <path d="M71.599 64.405l2.322-4.146-3.74 2.931 1.418 1.215z" fill="#C688F9"/>
    <path d="M72.385 48.342l-3.444 1.431 1.023 3.299 2.42-4.73z" fill="#CB8CF8"/>
    <path d="M55.655 45.68l.57-2.77-1.218.519.648 2.25z" fill="#CF91F7"/>
    <path d="M58.93 42.308l2.663 1.972-1.33-2.02-1.333.048z" fill="#CE90F7"/>
    <path d="M67.031 54.896l-1.918 4.324 3.683-1.448-1.765-2.876z" fill="#CB8DF8"/>
    <path d="M65.691 43.81l-1.022 1.167 1.728 2.604-.706-3.772z" fill="#CD8FF7"/>
    <path d="M111.195 121.579l.521-.878-3.491-.933 2.97 1.811z" fill="#9453F9"/>
    <path d="M67.032 54.896l-3.48 3.204 1.562 1.12 1.918-4.324z" fill="#CB8DF8"/>
    <path d="M65.284 50.5l-1.693 3.22 3.44 1.176-1.747-4.395z" fill="#CC8EF7"/>
    <path d="M18.849 107.182l2.976 1.879.438-1.995-3.414.116z" fill="#500CD5"/>
    <path d="M78.445 71.067l2.395 2.713.896-3.205-3.29.492z" fill="#C081FA"/>
    <path d="M68.435 61.76l1.745 1.43 3.741-2.931-5.486 1.501z" fill="#C88AF8"/>
    <path d="M86.741 76.112l-2.039-3.143-1.6 3.607 3.639-.464z" fill="#BA7BFA"/>
    <path d="M56.577 129.951l2.758 4.363-.826-4.272-1.932-.091z" fill="#6A27E7"/>
    <path d="M101.049 118.632l-3.239-2.429-1.555 1.262 4.794 1.167z" fill="#9251F8"/>
    <path d="M83.102 76.576l1.6-3.607-3.862.811 2.262 2.796z" fill="#BB7CFA"/>
    <path d="M76.787 64.865l-3.53 1.027 2.66 2.545.87-3.572z" fill="#C485F9"/>
    <path d="M48.35 64.471l-3.797-1.764 2.038 3.345 1.758-1.581z" fill="#D193F6"/>
    <path d="M76.787 64.865l-2.866-4.606-.664 5.633 3.53-1.026zm4.055-4.991l2.48 1.947.078-4.31-2.558 2.363z" fill="#C485F9"/>
    <path d="M77.211 127.409l-1.94.563.195 4.655 1.745-5.218z" fill="#7B39F0"/>
    <path d="M73.92 60.259l-2.219-4.203-2.905 1.716 5.125 2.487z" fill="#C788F8"/>
    <path d="M89.081 85.456l2.034-3.331-3.892.29 1.858 3.041z" fill="#B373FB"/>
    <path d="M44.497 137.309l-2.023 3.59 2.018.498.005-4.088z" fill="#621FE2"/>
    <path d="M56.045 135.446l4.77 2.958-1.48-4.09-3.29 1.132z" fill="#6A27E7"/>
    <path d="M80.842 59.874l-3.806-2.65.448 3.576 3.358-.926z" fill="#C485F9"/>
    <path d="M63.166 45.362l.603-2.452-.756-.24.154 2.692z" fill="#CD8FF7"/>
    <path d="M57.622 42.511l.28 2.504 1.028-2.707-1.308.203z" fill="#CE90F7"/>
    <path d="M76.787 64.865l3.316-1.588-2.619-2.477-.697 4.065z" fill="#C485F9"/>
    <path d="M61.594 44.28l1.419-1.61-.772-.186-.647 1.796z" fill="#CE90F7"/>
    <path d="M63.59 53.72l-3.588 1.993 1.633 1.072 1.956-3.066z" fill="#CC8EF7"/>
    <path d="M61.594 44.28l.647-1.796-.653-.113.006 1.909z" fill="#CE90F7"/>
    <path d="M81.736 70.575l2.967 2.394-.472-4.596-2.495 2.202z" fill="#BF80FA"/>
    <path d="M61.593 44.28l-2.663-1.972-1.029 2.707 3.692-.735z" fill="#CE90F7"/>
    <path d="M84.702 72.969l2.039 3.143 1.908-3.134-3.947-.01z" fill="#BC7DFA"/>
    <path d="M61.594 44.28l1.573 1.082-.154-2.692-1.42 1.61zm-.006-1.91l-1.325-.11 1.33 2.02-.005-1.91z" fill="#CE90F7"/>
    <path d="M88.934 79.114l-3.704.341 1.993 2.96 1.71-3.3z" fill="#B778FB"/>
    <path d="M79.92 67.15l-1.475 3.917 3.291-.492-1.816-3.425z" fill="#C183F9"/>
    <path d="M59.887 49.174l-4.231-3.494.93 5.205 3.3-1.711z" fill="#CE90F7"/>
    <path d="M86.741 76.112l6.16.812-4.251-3.946-1.909 3.134z" fill="#BA7BFA"/>
    <path d="M69.12 46.048l-2.723 1.533 2.544 2.192.18-3.725z" fill="#CC8EF7"/>
    <path d="M91.115 82.125l1.666 3.325 2.22-2.959-3.886-.366z" fill="#B475FB"/>
    <path d="M69.12 46.048l-.179 3.725 3.444-1.431-3.264-2.294z" fill="#CC8EF7"/>
    <path d="M65.69 43.81l.707 3.77 2.723-1.532-3.43-2.239z" fill="#CD8FF7"/>
    <path d="M94.87 88.556l-2.09-3.106-1.977 3.127 4.066-.021z" fill="#AE6EFB"/>
    <path d="M98.335 95.492l1.241-2.733-6.444.649 5.203 2.084z" fill="#A868FB"/>
    <path d="M63.769 42.91l-.603 2.452 1.22-2.211-.617-.241z" fill="#CD8FF7"/>
    <path d="M87.223 82.415l3.892-.29-2.181-3.01-1.711 3.3z" fill="#B576FB"/>
    <path d="M65.107 43.488l-.722-.337.284 1.826.438-1.489z" fill="#CD8FF7"/>
    <path d="M65.107 43.488l-.438 1.489 1.022-1.168-.584-.32z" fill="#CD8FF7"/>
    <path d="M96.156 78.876l-3.254-1.953 2.1 5.568 1.154-3.615z" fill="#B475FB"/>
    <path d="M92.406 73.194l4.098-.425-1.872-2.609-2.226 3.034z" fill="#B97AFA"/>
    <path d="M69.964 53.072l4.92 1.216.63-3.586-5.55 2.37z" fill="#CA8CF8"/>
    <path d="M71.701 56.056l2.22 4.203 3.115-3.035-5.335-1.167z" fill="#C98BF8"/>
    <path d="M101.88 98.098l2.768-1.93-2.19-2.569-.578 4.5z" fill="#A564FB"/>
    <path d="M105.359 100.21l-5.006 2.154 3.753 1.719 1.253-3.873z" fill="#A262FB"/>
    <path d="M55.655 45.68l-2.11 3.069 3.041 2.136-.93-5.205z" fill="#CF91F7"/>
    <path d="M15.101 87.66l-1.188 2.724 1.957-2.252-.769-.473z" fill="#4E0AD4"/>
    <path d="M39.622 54.733l-2.077 1.884.585.735 1.492-2.619z" fill="#D193F6"/>
    <path d="M101.776 111.22l-3.102.581.255 1.719 2.847-2.3z" fill="#9959FA"/>
    <path d="M101.776 111.22l-3.733-2.768.631 3.349 3.102-.581z" fill="#9959FA"/>
    <path d="M98.336 95.492l-3.118 3.104 6.663-.498-3.545-2.606z" fill="#A868FB"/>
    <path d="M11.09 119.911l3.148-2.54-4.33.516 1.182 2.024z" fill="#520ED7"/>
    <path d="M95.218 98.596l1.056 3.135 5.607-3.633-6.663.498z" fill="#A666FB"/>
    <path d="M63.167 45.362l-1.573-1.082 1.328 4.188.245-3.106z" fill="#CD8FF7"/>
    <path d="M13.912 90.384l-.973 2.461 4.134 1.603-3.16-4.064z" fill="#4E0AD4"/>
    <path d="M95.218 98.596l3.118-3.104-4.396-.194 1.278 3.298z" fill="#A666FB"/>
    <path d="M109.739 101.075l-4.38-.865 1.955 4.683 2.425-3.818z" fill="#A160FB"/>
    <path d="M107.6 108.189l3.585-1.071-3.871-2.225.286 3.296z" fill="#9C5BFA"/>
    <path d="M68.435 61.76l.361-3.988-1.851 2.82 1.49 1.168z" fill="#C88AF8"/>
    <path d="M107.6 108.189l-.286-3.296-3.384 4.022 3.67-.726z" fill="#9C5BFA"/>
    <path d="M56.577 129.951l-.532 5.495 3.29-1.132-2.758-4.363z" fill="#6A27E7"/>
    <path d="M107.712 111.928l-3.782-3.013-.26 4.829 4.042-1.816z" fill="#9958FA"/>
    <path d="M108.871 98.153l-3.512 2.057 4.38.865-.868-2.922z" fill="#A363FB"/>
    <path d="M71.701 56.056l-4.67-1.16 1.765 2.876 2.905-1.715z" fill="#C98BF8"/>
    <path d="M62.922 48.468l1.748-3.491-1.504.385-.244 3.106z" fill="#CD8FF7"/>
    <path d="M98.335 95.492l3.545 2.606.578-4.499-4.123 1.893z" fill="#A868FB"/>
    <path d="M62.922 48.468l-2.394 3.965 4.756-1.932-2.362-2.033z" fill="#CD8FF7"/>
    <path d="M108.871 98.153l-1.02-3.051-3.203 1.065 4.223 1.986zm0 0l-4.223-1.986.711 4.043 3.512-2.057z" fill="#A363FB"/>
    <path d="M68.941 49.773l-2.544-2.192-1.114 2.92 3.658-.728zM63.552 58.1l.04-4.38-1.957 3.065 1.917 1.315z" fill="#CB8DF8"/>
    <path d="M98.929 113.52l4.741.224-1.895-2.524-2.846 2.3z" fill="#9756F9"/>
    <path d="M112.069 112.734l-.372-2.742-3.985 1.936 4.357.806z" fill="#9857FA"/>
    <path d="M102.435 90.299l.023 3.3 4.304-1.43-4.327-1.87z" fill="#AA6AFB"/>
    <path d="M86.697 65.67l1.22 3.589 2.313-4.545-3.533.956z" fill="#BF80FA"/>
    <path d="M100.986 87.333l1.449 2.966 1.8-4.025-3.249 1.06zm-8.596 4.445l2.48-3.222-4.066.021 1.587 3.201z" fill="#AD6DFB"/>
    <path d="M71.69 138.674l-1.215 3.72 2.083-.372-.869-3.348z" fill="#7532ED"/>
    <path d="M44.497 137.309l-4.835-.642.748 3.666 4.087-3.024z" fill="#621FE2"/>
    <path d="M92.781 85.45l-1.665-3.325-2.034 3.331 3.7-.006z" fill="#B172FB"/>
    <path d="M100.986 87.333l-2.94-1.742.666 4.294 2.274-2.552z" fill="#AD6DFB"/>
    <path d="M83.321 61.821l-2.48-1.947-.739 3.403 3.22-1.456z" fill="#C284F9"/>
    <path d="M84.703 72.969l-2.967-2.394-.896 3.205 3.862-.811z" fill="#BC7DFA"/>
    <path d="M83.218 64.973l-3.116-1.696-.183 3.873 3.3-2.177z" fill="#C182F9"/>
    <path d="M88.072 62.279l-1.375 3.39 3.533-.955-2.158-2.435z" fill="#C081FA"/>
    <path d="M98.376 82.222l4.459 1.185-1.488-2.807-2.971 1.622z" fill="#B172FB"/>
    <path d="M94.87 88.556l-2.48 3.222.742 1.63 1.738-4.852z" fill="#AE6EFB"/>
    <path d="M85.23 79.455l3.704-.34-2.193-3.003-1.511 3.343z" fill="#B879FA"/>
    <path d="M91.115 82.125l1.786-5.201-3.967 2.19 2.181 3.01z" fill="#B475FB"/>
    <path d="M92.781 85.45l5.265.141-3.045-3.1-2.22 2.96z" fill="#B172FB"/>
    <path d="M75.917 68.437l4.003-1.287-3.133-2.285-.87 3.572z" fill="#C284F9"/>
    <path d="M98.375 82.222l-.33 3.369 4.79-2.184-4.46-1.185z" fill="#B172FB"/>
    <path d="M96.155 78.876l2.22 3.346 1.466-4.248-3.686.902z" fill="#B475FB"/>
    <path d="M92.901 76.924l-6.16-.812 2.193 3.002 3.967-2.19z" fill="#B777FB"/>
    <path d="M84.23 68.373l2.467-2.703-3.478-.697 1.012 3.4z" fill="#BF80FA"/>
    <path d="M90.895 70.388l3.737-.228-1.75-2.263-1.987 2.491zm.001 0l-2.246 2.59 3.756.216-1.51-2.806z" fill="#BB7CFA"/>
    <path d="M92.901 76.924l-1.785 5.201 3.885.366-2.1-5.567z" fill="#B777FB"/>
    <path d="M96.505 72.769l-3.603 4.154 5.22-1.727-1.617-2.427z" fill="#B878FB"/>
    <path d="M86.697 65.67l1.375-3.392-4.75-.456 3.375 3.848z" fill="#BF80FA"/>
    <path d="M90.23 64.714l-2.313 4.545 4.965-1.362-2.652-3.183z" fill="#BE7FFA"/>
    <path d="M98.712 89.885l-3.842-1.33-1.738 4.853 5.58-3.523z" fill="#AC6CFB"/>
    <path d="M98.046 85.591l2.94 1.742 1.849-3.926-4.79 2.184z" fill="#AF6FFB"/>
    <path d="M84.23 68.373l-1.012-3.4-3.299 2.177 4.312 1.223z" fill="#BF80FA"/>
    <path d="M79.92 67.15l1.816 3.425 2.495-2.202-4.312-1.223z" fill="#C183F9"/>
    <path d="M44.782 67.755l1.809-1.703-1.57.753-.24.95z" fill="#D194F6"/>
    <path d="M24.534 96.847l-1.14-1.236.762 2.172.378-.936z" fill="#4F0BD5"/>
    <path d="M101.88 98.098l-5.606 3.633 4.079.633 1.527-4.266z" fill="#A564FB"/>
    <path d="M52.652 136.212l3.34 2.712.053-3.478-3.393.766z" fill="#6724E5"/>
    <path d="M58.376 143.221l2.44-4.817-4.824.52 2.384 4.297z" fill="#6B29E8"/>
    <path d="M73.397 135.666l-3.673.162 1.965 2.846 1.708-3.008z" fill="#7734EE"/>
    <path d="M87.916 69.26l-3.214 3.709 3.947.01-.733-3.72z" fill="#BD7EFA"/>
    <path d="M95.001 82.491l3.045 3.1.33-3.369-3.375.27z" fill="#B273FB"/>
    <path d="M56.587 50.885l3.941 1.548-.641-3.26-3.3 1.712z" fill="#CF91F7"/>
    <path d="M60.002 55.713l3.589-1.994-3.063-1.286-.526 3.28z" fill="#CE90F7"/>
    <path d="M90.01 132.859l-1.897-2.725-3.558 4.085 5.454-1.36z" fill="#8442F4"/>
    <path d="M93.1 135.03l-3.091-2.171 1.225 3.085 1.865-.914z" fill="#8543F4"/>
    <path d="M91.096 126.457l1.333 4.13 2.883-3.211-4.216-.919z" fill="#8745F5"/>
    <path d="M95.312 127.376l-2.883 3.211 4.869 2.132-1.986-5.343z" fill="#8948F6"/>
    <path d="M111.697 109.992l-4.097-1.803.112 3.739 3.985-1.936z" fill="#9A59FA"/>
    <path d="M111.185 107.118l-.695-3.154-3.176.929 3.871 2.225z" fill="#9C5BFA"/>
    <path d="M103.67 113.744l.26-4.829-2.155 2.305 1.895 2.524z" fill="#9756FA"/>
    <path d="M101.775 111.22l2.155-2.305-3.002-2.85.847 5.155z" fill="#9959FA"/>
    <path d="M104.648 96.167l-2.768 1.931 3.479 2.112-.711-4.043z" fill="#A565FB"/>
    <path d="M106.762 92.168l-2.114 3.999 3.203-1.065-1.089-2.934z" fill="#A868FB"/>
    <path d="M93.132 93.408l6.444-.65-.864-2.873-5.58 3.523z" fill="#AB6BFB"/>
    <path d="M98.335 95.492l4.123-1.893-2.882-.84-1.24 2.733z" fill="#A868FB"/>
    <path d="M94.665 118.67l-.28 4.863 3.89.706-3.61-5.569z" fill="#8E4CF7"/>
    <path d="M91.38 120.906l3.005 2.627-1.346-3.716-1.659 1.089z" fill="#8A48F6"/>
    <path d="M102.915 128.983l-4.121-1.287 2.483 2.461 1.638-1.174zm-4.641-4.744l-2.962 3.137 3.481.32-.519-3.457z" fill="#8D4CF7"/>
    <path d="M60.528 52.433l2.394-3.965-3.035.706.64 3.26z" fill="#CE90F7"/>
    <path d="M66.397 47.58l-3.475.888 2.362 2.033 1.113-2.92z" fill="#CC8EF7"/>
    <path d="M98.794 127.696l3.137-2.595-3.656-.862.519 3.457z" fill="#8C4AF7"/>
    <path d="M106.501 126.132l-4.571-1.031 2.842 2.456 1.729-1.425z" fill="#904FF8"/>
    <path d="M98.275 124.239l3.656.862-1.191-3.133-2.465 2.271z" fill="#8D4CF7"/>
    <path d="M104.567 122.425l-3.828-.457 1.191 3.133 2.637-2.676z" fill="#9150F8"/>
    <path d="M43.127 127.531l.934 3.973.838-3.47-1.772-.503zm-1.76 6.316l5.357.035-2.663-2.377-2.694 2.342z" fill="#601DE1"/>
    <path d="M14.467 101.578l-1.76 2.666 3.138 1.31-1.378-3.976z" fill="#4F0BD5"/>
    <path d="M8.427 109.469l4.145-2.033-3.775-.043-.37 2.076z" fill="#500CD6"/>
    <path d="M112.306 115.382l-4.874.149 2.553 2.558 2.321-2.707z" fill="#9756FA"/>
    <path d="M103.67 113.744l3.763 1.787.279-3.603-4.042 1.816z" fill="#9756FA"/>
    <path d="M71.701 56.056l5.335 1.168-2.153-2.936-3.182 1.769z" fill="#C98BF8"/>
    <path d="M78.514 53.133l-3.63 1.155 2.152 2.936 1.478-4.09z" fill="#C789F8"/>
    <path d="M53.544 48.748l-3.35 1.87 3.025 1.841.325-3.71z" fill="#CF91F7"/>
    <path d="M46.748 48.992l3.446 1.626-.997-3.397-2.45 1.77z" fill="#D092F7"/>
    <path d="M69.724 135.828l2.162-3.404-3.557.376 1.395 3.028z" fill="#7431EC"/>
    <path d="M75.465 132.627l-3.58-.203 1.511 3.242 2.07-3.039z" fill="#7936EF"/>
    <path d="M70.474 142.394l-2.144-3.087-.079 3.417 2.223-.33z" fill="#7331EC"/>
    <path d="M69.724 135.828l-1.393 3.479 3.358-.633-1.965-2.846z" fill="#7431EC"/>
    <path d="M83.322 61.822l-.103 3.151 3.478.697-3.375-3.849z" fill="#C284F9"/>
    <path d="M83.4 57.51l-.078 4.311 2.507-1.911-2.428-2.4z" fill="#C485F9"/>
    <path d="M104.236 86.274l-1.801 4.025 3.111-1.102-1.31-2.923z" fill="#AD6DFB"/>
    <path d="M98.712 89.885l3.723.414-1.449-2.966-2.274 2.552z" fill="#AC6CFB"/>
    <path d="M109.738 101.075l-2.424 3.818 3.176-.929-.752-2.889z" fill="#A160FB"/>
    <path d="M103.93 108.915l3.384-4.022-3.208-.81-.176 4.832z" fill="#9B5BFA"/>
    <path d="M56.045 135.446l-2.259-2.444-1.134 3.21 3.393-.766z" fill="#6A27E7"/>
    <path d="M48.784 128.936l1.675 4.149.17-3.815-1.845-.334z" fill="#6421E3"/>
    <path d="M52.615 129.565l1.172 3.437.911-3.201-2.083-.236z" fill="#6724E5"/>
    <path d="M52.653 136.212l1.134-3.21-3.327.083 2.193 3.127z" fill="#6724E5"/>
    <path d="M100.353 102.364l5.006-2.154-3.479-2.112-1.527 4.266z" fill="#A261FB"/>
    <path d="M105.359 100.21l-1.253 3.873 3.208.81-1.955-4.683z" fill="#A262FB"/>
    <path d="M98.376 82.222l-2.22-3.346L95 82.491l3.375-.269z" fill="#B172FB"/>
    <path d="M98.122 75.196l-1.967 3.68 3.686-.902-1.719-2.778z" fill="#B676FB"/>
    <path d="M88.65 72.978l4.252 3.946-.496-3.73-3.756-.216z" fill="#BB7CFA"/>
    <path d="M96.504 72.769l-4.098.425.495 3.73 3.603-4.155z" fill="#B878FB"/>
    <path d="M88.65 72.978l2.246-2.59-2.98-1.129.734 3.72z" fill="#BB7CFA"/>
    <path d="M94.632 70.16l-3.737.228 1.51 2.806 2.227-3.034z" fill="#BA7BFA"/>
    <path d="M22.982 121.051l5.002-.547-2.531-1.745-2.47 2.292z" fill="#5511D9"/>
    <path d="M17.551 125.074l4.397 2.061-1.647-4.042-2.75 1.981z" fill="#5410D9"/>
    <path d="M28.175 124.536l-.957 3.267 4.388-.2-3.431-3.067z" fill="#5814DB"/>
    <path d="M27.983 120.504l.191 4.032 2.341-2.471-2.532-1.561z" fill="#5713DA"/>
    <path d="M23.227 117.055l-.245 3.996 2.47-2.292-2.225-1.704z" fill="#5410D8"/>
    <path d="M20.301 123.093l4.537.771-1.856-2.813-2.681 2.042z" fill="#5511D9"/>
    <path d="M18.98 130.335l1.966 1.302 1.002-4.502-2.968 3.2z" fill="#5612DA"/>
    <path d="M20.947 131.637l2.021 1.24-1.02-5.742-1.002 4.502z" fill="#5713DA"/>
    <path d="M29.707 131.58l1.9-3.977-4.39.2 2.49 3.777z" fill="#5A16DD"/>
    <path d="M34.895 127.965l-3.289-.362 2.54 3.585.75-3.223z" fill="#5C18DE"/>
    <path d="M38.498 130.502l-4.353.686 2.87 3.515 1.483-4.201z" fill="#5E1ADF"/>
    <path d="M33.038 123.45l1.857 4.515.873-3.191-2.73-1.324z" fill="#5A16DC"/>
    <path d="M44.06 131.505l-5.562-1.003 2.869 3.345 2.694-2.342z" fill="#611EE2"/>
    <path d="M38.46 125.914l.038 4.588 2.821-3.546-2.859-1.042z" fill="#5D19DF"/>
    <path d="M19.103 102.833l-4.636-1.255 1.378 3.976 3.258-2.721zm-4.16-5.863l-.476 4.608 3.195-2.738-2.719-1.87z" fill="#4F0BD5"/>
    <path d="M9.264 105.131l3.443-.887-2.945-1.237-.498 2.124zm6.581.423l-3.138-1.31-.135 3.192 3.273-1.882z" fill="#500CD5"/>
    <path d="M18.848 107.182l.254-4.349-3.258 2.721 3.004 1.628z" fill="#500CD5"/>
    <path d="M23.454 102.617l-4.351.216 3.7 2.081.651-2.297zm.702-4.834l-3.329 2.171 3.325.462.004-2.633z" fill="#4F0BD5"/>
    <path d="M17.661 98.84l1.441 3.993 1.726-2.879-3.167-1.114z" fill="#4F0BD5"/>
  </g>
  <defs>
    <clipPath id="8K8x1FWbMa">
      <path fill="#fff" transform="translate(5.56 7.686)" d="M0 0h106.86v137H0z"/>
    </clipPath>
  </defs>
</svg>
