<svg xmlns="http://www.w3.org/2000/svg" fill="none" viewBox="0 0 105 135">
  <path d="M17.474 63.662l-4.715 1.93 4.92 1.551-.205-3.481z" fill="#7534ED"/>
  <path d="M55.053 93.888l-1.765-3.419-1.934 2.412 3.699 1.007z" fill="#5915DC"/>
  <path d="M17.679 67.143L15.993 70.6l3.616-.55-1.93-2.906z" fill="#7231EC"/>
  <path d="M93.403 47.008l2.468 2.942 1.141-3.523-3.609.581z" fill="#D193F6"/>
  <path d="M49.131 89.727l4.157.742-.884-2.962-3.273 2.22z" fill="#5B18DE"/>
  <path d="M16.356 58.691l-1.845 3.026 2.962 1.944-1.117-4.97z" fill="#7838EF"/>
  <path d="M18.468 56.005l-4.787.499 2.675 2.187 2.112-2.686z" fill="#7939EF"/>
  <path d="M104.054 33.298l-4.217-1.488-.695 3.5 4.912-2.012z" fill="#CF91F7"/>
  <path d="M12.759 65.592l4.715-1.93-2.962-1.945-1.753 3.875z" fill="#7534ED"/>
  <path d="M6.098 16.924l3.185 1.593-1.415-3.04-1.77 1.447z" fill="#9657FA"/>
  <path d="M96.269 31.8l2.872 3.51.695-3.5-3.567-.01z" fill="#CF91F7"/>
  <path d="M11.088 54.218l2.592 2.286 2.167-2.692-4.76.406z" fill="#7D3DF1"/>
  <path d="M24.732 66.156l1.428-3.864-4.653.445 3.225 3.42z" fill="#702FEB"/>
  <path d="M11.414 21.106l3.6-4.567-3.225-.05-.375 4.617z" fill="#9758FA"/>
  <path d="M19.61 70.048l-1.654 3.263 4.3-.036-2.647-3.227z" fill="#702FEB"/>
  <path d="M94.893 43.45l3.433-.168-.339-3.391-3.094 3.558z" fill="#D193F6"/>
  <path d="M25.59 72.451l-3.334.824 4.043 3.484-.709-4.308z" fill="#6C2BE9"/>
  <path d="M24.639 81.262l5.84-3.242-4.18-1.261-1.66 4.503z" fill="#6927E6"/>
  <path d="M102.156 42.095l-3.83 1.187 3.044 1.533.786-2.72z" fill="#D092F6"/>
  <path d="M22.618 56.523l-2.632 2.849 3.698-.996-1.066-1.853z" fill="#7737EE"/>
  <path d="M60.678 9.686l-1.435 3.912 1.765.242-.33-4.154z" fill="#BC7EFB"/>
  <path d="M22.618 56.523L21.6 54.641l-3.133 1.364 4.15.518z" fill="#7737EE"/>
  <path d="M36.8 15.323l1.743-.453-.016-4.551-1.726 5.004z" fill="#AB6CFC"/>
  <path d="M17.474 63.661l4.033-.924-1.521-3.366-2.512 4.29z" fill="#7534ED"/>
  <path d="M18.468 56.005l1.518 3.367 2.632-2.849-4.15-.518z" fill="#7939EF"/>
  <path d="M94.657 35.99l-3.669-4.015-.393 2.102 4.062 1.914z" fill="#D092F7"/>
  <path d="M56.598 8.844l.255-4.568-2.526 2.15 2.27 2.418z" fill="#B97BFB"/>
  <path d="M19.824 75.698l2.627 3.123-.194-5.546-2.433 2.423z" fill="#6D2CE9"/>
  <path d="M99.571 50.1l-2.559-3.673-1.141 3.523 3.7.15z" fill="#D193F6"/>
  <path d="M20.633 52.731l-.918-1.938-3.868 3.019 4.786-1.08z" fill="#7B3AF0"/>
  <path d="M7.016 45.142L2.806 42.6l.83 2.77 3.38-.228z" fill="#8444F4"/>
  <path d="M17.984 46.728l-2.503 2.29 3.365-.192-.862-2.098z" fill="#8040F3"/>
  <path d="M9.945 43.442l1.197-4.043-4.487 1.25 3.29 2.793z" fill="#8545F5"/>
  <path d="M44.505 7.107l2.056 3.268 1.275-2.87-3.331-.398z" fill="#B173FC"/>
  <path d="M15.848 53.812l-.367-4.794-3.13 1.251 3.497 3.543z" fill="#7C3BF1"/>
  <path d="M9.183 51.432l3.168-1.163-2.84-2.837-.328 4z" fill="#7F3FF2"/>
  <path d="M8.029 36.556l6.662-.34-.47-2.14-6.192 2.48z" fill="#8A4BF7"/>
  <path d="M11.414 21.106l.376-4.618-2.507 2.029 2.13 2.59z" fill="#9758FA"/>
  <path d="M96.271 55.85l-.094-.522-.136.447.23.075z" fill="#D193F6"/>
  <path d="M14.22 34.076l-.38-2.02-5.427.963 5.808 1.057z" fill="#8C4CF7"/>
  <path d="M11.142 39.4l3.549-3.183-6.662.34 3.113 2.842z" fill="#8848F6"/>
  <path d="M9.32 29.579l-.907 3.44 5.427-.963-4.52-2.477z" fill="#9051F8"/>
  <path d="M9.512 47.432L5.81 51.476l3.375-.044.328-4z" fill="#8242F3"/>
  <path d="M7.867 15.476l3.923 1.012-2.33-2.23-1.593 1.219z" fill="#9859FA"/>
  <path d="M55.16 100.616l.552-1.756-1.9.307 1.347 1.449z" fill="#5915DC"/>
  <path d="M13.458 46.322l4.525.406-.794-2.104-3.731 1.698z" fill="#8242F3"/>
  <path d="M56.406 97.475l-2.595 1.692 1.901-.307.694-1.385z" fill="#5815DC"/>
  <path d="M15.48 49.018l.367 4.794 3.868-3.02-4.234-1.774z" fill="#7F3FF2"/>
  <path d="M17.983 46.728l-4.525-.406 2.023 2.696 2.502-2.29z" fill="#8040F3"/>
  <path d="M50.903 8.862l1.1 4.295 1.752-2.737-2.852-1.558z" fill="#B577FB"/>
  <path d="M76.91 75.053l5.956 1.52-.344-2.7-5.611 1.18z" fill="#520ED7"/>
  <path d="M9.945 43.442l5.861-3.028-4.664-1.015-1.197 4.043z" fill="#8545F5"/>
  <path d="M52.404 87.507L50.126 86l-.995 3.727 3.273-2.22z" fill="#5A16DD"/>
  <path d="M9.512 47.432l3.946-1.11-3.513-2.88-.433 3.99z" fill="#8242F3"/>
  <path d="M15.806 40.414l-5.86 3.028 6.54-.855-.68-2.173z" fill="#8646F5"/>
  <path d="M46.728 99.415l.583.32.915-2.36-1.498 2.04z" fill="#5B18DD"/>
  <path d="M97.988 53.992l.602-1.388-2.72-2.654 2.118 4.042z" fill="#D193F6"/>
  <path d="M16.486 42.587l-6.54.855 3.512 2.88 3.028-3.735z" fill="#8444F4"/>
  <path d="M15.848 53.812l-2.167 2.692 4.787-.5-2.62-2.192z" fill="#7C3BF1"/>
  <path d="M54.748.009L53.462.004l-.427 2.442L54.748.009z" fill="#B87AFB"/>
  <path d="M30.446 8.877l-3.661-.159 3.837 3.82-.176-3.661z" fill="#A769FC"/>
  <path d="M48.189 13.326l-1.627-2.95-.276 3.128 1.903-.178z" fill="#B375FB"/>
  <path d="M43.62 97.397l3.108 2.018 1.498-2.04-4.605.022z" fill="#5C19DE"/>
  <path d="M33.903 77.13l-1.894 3.831 3.266-.571-1.372-3.26z" fill="#6624E5"/>
  <path d="M49.132 89.727L50.126 86l-4.242 1.273 3.248 2.454z" fill="#5B18DE"/>
  <path d="M37.734 84.755l-2.679 2.222 3.396 1.368-.717-3.59z" fill="#621FE2"/>
  <path d="M38.451 88.345l-3.395-1.368-.835 3.378 4.23-2.01z" fill="#601EE1"/>
  <path d="M50.126 86l-1.901-1.327-2.34 2.6L50.125 86z" fill="#5C18DE"/>
  <path d="M40.36 95.122l.738-4.25-3.87 1.904 3.131 2.346z" fill="#5D1BDF"/>
  <path d="M76.438 85.087l-2.02-4.998-2.855 2.23 4.875 2.768z" fill="#530FD8"/>
  <path d="M43.676 93.842l-2.578-2.97-.739 4.25 3.317-1.28z" fill="#5D1ADF"/>
  <path d="M65.46 77.514l-1.945 1.724 2.256 2.538-.312-4.262z" fill="#5310D8"/>
  <path d="M71.563 82.318l.194-4.686-3.192 2.215 2.998 2.471z" fill="#530FD8"/>
  <path d="M33.117 84.087l-1.526 4 3.464-1.11-1.938-2.89z" fill="#6422E3"/>
  <path d="M48.226 97.375l-.196 2.695.739.283-.543-2.978z" fill="#5B17DD"/>
  <path d="M26.906 83.634l5.103-2.673-1.53-2.941-3.573 5.614z" fill="#6725E5"/>
  <path d="M52.118 99.437l-1.17 1.427.793.075.377-1.502z" fill="#5916DC"/>
  <path d="M73.742 14.12l-.44-2.965-4.406.179 4.846 2.786z" fill="#C486F9"/>
  <path d="M52.118 99.437l-.378 1.502.666.019-.288-1.521z" fill="#5916DC"/>
  <path d="M78.246 10.27l-1.508 3.954 3.111-1.079-1.603-2.876zm-1.508 3.954l-.185 4.228 4.884-1.223-4.7-3.005z" fill="#C587F9"/>
  <path d="M53.81 99.167l-1.693.27 1.614 1.443.08-1.713z" fill="#5916DC"/>
  <path d="M51.02 98.346l-1.495 2.237.772.176.722-2.413z" fill="#5A16DD"/>
  <path d="M34.22 90.355l3.008 2.421 1.223-4.431-4.23 2.01z" fill="#611FE2"/>
  <path d="M50.949 100.864l1.169-1.427-1.099-1.091-.07 2.518z" fill="#5A16DD"/>
  <path d="M47.707 93.678l3.646-.797-2.222-3.154-1.424 3.951z" fill="#5B18DE"/>
  <path d="M51.02 98.346l-.723 2.413.652.105.07-2.518z" fill="#5A16DD"/>
  <path d="M49.525 100.583l1.494-2.237-2.25 2.007.756.23z" fill="#5A17DD"/>
  <path d="M96.917 55.152l.469.228.602-1.388-1.071 1.16z" fill="#D193F6"/>
  <path d="M73.83 17.3l-.088-3.18-1.57 2.554 1.658.625z" fill="#C486F9"/>
  <path d="M37.734 84.755l-4.617-.668 1.939 2.89 2.678-2.222z" fill="#621FE2"/>
  <path d="M42.467 86.525l3.418.748.485-3.957-3.903 3.21z" fill="#5F1CE0"/>
  <path d="M34.453 72.682l-4.786 1.12 4.236 3.328.55-4.448z" fill="#6826E6"/>
  <path d="M56.406 97.475l2.48-3.694-3.833.107 1.353 3.587z" fill="#5815DC"/>
  <path d="M50.903 8.862l-3.067-1.358-1.275 2.871 4.342-1.513z" fill="#B577FB"/>
  <path d="M31.33 69.16l-1.364-1.673-1.066 3.42 2.43-1.747z" fill="#6C2AE8"/>
  <path d="M37.734 84.755l-2.459-4.365-2.158 3.697 4.617.668z" fill="#621FE2"/>
  <path d="M29.966 67.487l-3.337 1.47 2.27 1.95 1.067-3.42z" fill="#6D2CE9"/>
  <path d="M30.622 12.538l3.459-3.186-3.635-.475.176 3.66z" fill="#A768FC"/>
  <path d="M24.732 66.156l-1.61 3.796 3.507-.996-1.897-2.8z" fill="#702FEB"/>
  <path d="M33.954 12.685l-.884 3.803 1.948-.642-1.064-3.161z" fill="#A96BFC"/>
  <path d="M28.65 65.785l-1.27-1.732-2.648 2.103 3.917-.371z" fill="#6F2DEA"/>
  <path d="M24.732 66.156l1.897 2.8 2.02-3.171-3.917.371z" fill="#702FEB"/>
  <path d="M19.236 23.486l1.612-1.067-2.986-2.76 1.375 3.827z" fill="#9A5CFB"/>
  <path d="M65.55 4.67L63.938.994l-1.682 3.914 3.294-.238z" fill="#BE80FA"/>
  <path d="M29.258 85.939l3.859-1.852-1.108-3.126-2.751 4.978z" fill="#6523E4"/>
  <path d="M100.777 23.238l-3.06 3.481 4.681-1.68-1.621-1.801z" fill="#CE90F7"/>
  <path d="M38.568 81.41l4.233-.903-1.715-1.45-2.518 2.353z" fill="#6320E3"/>
  <path d="M.141 28.334l2.152-3.692L0 25.662l.141 2.672z" fill="#9051F9"/>
  <path d="M44.562 81.927l-2.095 4.599 3.903-3.21-1.808-1.389z" fill="#601DE1"/>
  <path d="M42.467 86.526l2.095-4.599-3.349 1.51 1.254 3.089z" fill="#5F1CE0"/>
  <path d="M55.16 100.616l-1.349-1.449.575 1.616.773-.167z" fill="#5915DC"/>
  <path d="M24.102 15.895l-3.143 2.573 3.11 2.037.033-4.61z" fill="#A163FB"/>
  <path d="M35.275 80.39l2.525-4.327-3.897 1.067 1.372 3.26z" fill="#6422E4"/>
  <path d="M54.327 6.426l-1.292-3.98-1.401 2.044 2.693 1.936z" fill="#B87AFB"/>
  <path d="M29.258 85.939l2.333 2.147 1.526-4-3.86 1.853z" fill="#6523E4"/>
  <path d="M35.276 80.39l2.459 4.365.833-3.345-3.292-1.02z" fill="#6422E4"/>
  <path d="M54.327 6.426l-3.424 2.436 2.852 1.558.572-3.994z" fill="#B87AFB"/>
  <path d="M46.561 10.375l1.627 2.95 1.857-.113-3.484-2.837z" fill="#B274FB"/>
  <path d="M37.8 76.063l-2.524 4.327 4.144-2.815-1.62-1.512z" fill="#6523E4"/>
  <path d="M42.8 80.507l-1.587 2.93 3.349-1.51-1.761-1.42z" fill="#611EE2"/>
  <path d="M53.811 99.167l-2.792-.821 1.099 1.09 1.693-.269z" fill="#5916DC"/>
  <path d="M94.217 39.738l-4.05-3.697-.525 2.117 4.575 1.58z" fill="#D092F6"/>
  <path d="M76.911 75.053l-2.493 5.036 3.386-1.282-.893-3.754z" fill="#520ED7"/>
  <path d="M56.289 89.726l-1.236 4.162 3.832-.107-2.596-4.055z" fill="#5814DB"/>
  <path d="M7.335 21.247L6.926 26.1l3.85-1.054-3.44-3.8z" fill="#9556FA"/>
  <path d="M5.088 31.753l-1.22-3.522-3.466 2.692 4.686.83z" fill="#8E4FF8"/>
  <path d="M20.012 15.288l1.843-3.774-4.934 2.035 3.091 1.739z" fill="#9E60FB"/>
  <path d="M.402 30.923l.43 2.959 4.256-2.129-4.686-.83z" fill="#8F50F8"/>
  <path d="M9.321 29.579l4.52 2.477-.32-2.04-4.2-.437z" fill="#9051F8"/>
  <path d="M91.288 30.037l3.612-1.374-3.382-.518-.23 1.892z" fill="#CE90F7"/>
  <path d="M2.293 24.642L.14 28.334l3.727-.103-1.575-3.589z" fill="#9253F9"/>
  <path d="M59.153 82.772l.143 3.641 3.696-2.059-3.84-1.582z" fill="#5612DA"/>
  <path d="M2.293 24.642l1.26-1.861-3.014.07 1.754 1.791z" fill="#9253F9"/>
  <path d="M64.128 87.918l-.321 3.418 4.108-2.84-3.787-.578z" fill="#5512D9"/>
  <path d="M.045 24.697L0 25.663l2.293-1.02-2.248.054z" fill="#9253F9"/>
  <path d="M.046 24.697l2.247-.055-2.066-.887-.181.942z" fill="#9253F9"/>
  <path d="M70.598 85.914l3.435 1.437-2.47-5.033-.965 3.596z" fill="#5410D8"/>
  <path d="M.54 22.852l-.313.903 2.066.887-1.754-1.79z" fill="#9253F9"/>
  <path d="M13.055 11.773l3.866 1.776-1.85-3.026-2.016 1.25z" fill="#9C5DFB"/>
  <path d="M75.753 66.317L73.67 68.91l2.893-2.154-.81-.439z" fill="#520ED7"/>
  <path d="M10.776 25.046L9.32 29.579l3.972-1.436-2.517-3.097z" fill="#9455F9"/>
  <path d="M76.452 71.369l.11-4.613-2.892 2.154 2.782 2.459z" fill="#520ED7"/>
  <path d="M96.917 55.152l-.477-.21-.263.386.74-.176z" fill="#D193F6"/>
  <path d="M9.321 29.579l4.2.438-.228-1.875L9.32 29.58z" fill="#9051F8"/>
  <path d="M10.775 25.046l4.074 1.758-.035-4.453-4.039 2.695z" fill="#9455F9"/>
  <path d="M17.628 24.63l-2.813-2.28 1.437 3.324 1.376-1.044z" fill="#985AFA"/>
  <path d="M96.44 54.942l1.549-.95-4.21-.985 2.661 1.935z" fill="#D193F6"/>
  <path d="M17.863 19.66l2.15-4.373-5 1.252 2.85 3.12z" fill="#9B5DFB"/>
  <path d="M87.725 45.882l1.969 2.186-1.359-2.904-.61.718z" fill="#D193F6"/>
  <path d="M93.403 47.008l-3.71 1.06 2.068 2.431 1.642-3.49z" fill="#D193F6"/>
  <path d="M14.814 22.35l-3.4-1.244-.639 3.94 4.04-2.696z" fill="#9859FA"/>
  <path d="M95.67 55.493l.507-.165.263-.386-.77.551z" fill="#D193F6"/>
  <path d="M6.926 26.1l2.395 3.479 1.454-4.533L6.926 26.1zm0 0l-3.058 2.13 5.452 1.35-2.395-3.48z" fill="#9253F9"/>
  <path d="M16.921 13.549l-1.907 2.99 4.998-1.251-3.091-1.74z" fill="#9D5FFB"/>
  <path d="M48.226 97.375l2.793.971.335-5.465-3.128 4.494z" fill="#5B17DD"/>
  <path d="M3.553 22.78l-2.577-.778-.437.85 3.014-.071z" fill="#9354F9"/>
  <path d="M4.665 35.314L.832 33.882l.527 2.82 3.306-1.388z" fill="#8C4CF7"/>
  <path d="M.976 22.002l2.578.779-2.143-1.41-.435.631z" fill="#9354F9"/>
  <path d="M3.135 19.595l.419 3.186 3.781-1.534-4.2-1.652z" fill="#9455FA"/>
  <path d="M51.02 98.346l2.791.821 1.242-5.28-4.034 4.459z" fill="#5A16DD"/>
  <path d="M17.956 73.31l1.868 2.388 2.433-2.423-4.301.036z" fill="#6F2EEA"/>
  <path d="M4.384 18.428l-1.249 1.167 4.2 1.652-2.95-2.819z" fill="#9556FA"/>
  <path d="M9.696 60.076l2.937-.732-4.292-2.02 1.355 2.752z" fill="#7939F0"/>
  <path d="M6.098 16.924l-1.714 1.505 2.95 2.818-1.236-4.323z" fill="#9657FA"/>
  <path d="M9.283 18.517l2.507-2.029-3.923-1.011 1.416 3.04z" fill="#9758FA"/>
  <path d="M21.427 66.874l-3.953-3.212.205 3.481 3.748-.269z" fill="#7130EB"/>
  <path d="M3.135 19.595l-1.284 1.268 1.703 1.918-.419-3.186z" fill="#9455FA"/>
  <path d="M8.414 33.02l-3.326-1.267-.423 3.56 3.749-2.294z" fill="#8D4EF8"/>
  <path d="M95.87 49.95l-4.11.55 2.018 2.507 2.092-3.057z" fill="#D193F6"/>
  <path d="M11.414 21.106l3.4 1.244.2-5.81-3.6 4.566z" fill="#9758FA"/>
  <path d="M15.014 16.54l1.907-2.991-3.866-1.776 1.959 4.766z" fill="#9B5CFB"/>
  <path d="M13.055 11.773l-1.683 1.12 3.642 3.646-1.959-4.766z" fill="#9C5DFB"/>
  <path d="M11.79 16.489l3.224.05-3.642-3.645.418 3.595z" fill="#995AFA"/>
  <path d="M97.012 46.427l2.559 3.674.962-2.694-3.521-.98z" fill="#D193F6"/>
  <path d="M73.301 11.155l3.437 3.069 1.508-3.955-4.945.886z" fill="#C385F9"/>
  <path d="M21.855 11.514L17.14 9.336l-.219 4.213 4.934-2.035z" fill="#A163FB"/>
  <path d="M32.01 80.961l1.107 3.126 2.158-3.697-3.266.571z" fill="#6623E4"/>
  <path d="M18.957 8.367l-1.817.969 4.715 2.178-2.898-3.147z" fill="#A062FB"/>
  <path d="M25.98 12.295l.805-3.577-2.919.598 2.115 2.979z" fill="#A465FC"/>
  <path d="M31.591 88.086l2.63 2.27.834-3.38-3.464 1.11z" fill="#6321E3"/>
  <path d="M24.102 15.895l-.033 4.61 1.83-.968-1.797-3.642z" fill="#A163FB"/>
  <path d="M76.553 18.452l2.666 1.289 2.218-2.512-4.884 1.223z" fill="#C688F9"/>
  <path d="M20.848 22.42l.11-3.952-3.096 1.192 2.986 2.76z" fill="#9C5DFB"/>
  <path d="M15.847 53.812l-3.496-3.543-1.263 3.95 4.76-.407z" fill="#7C3BF1"/>
  <path d="M96.44 54.942l.477.21 1.071-1.16-1.548.95z" fill="#D193F6"/>
  <path d="M56.289 89.726l3.007-3.313-3.426-1.24.419 4.553z" fill="#5814DB"/>
  <path d="M20.959 18.468l3.142-2.573-4.089-.607.947 3.18z" fill="#9E5FFB"/>
  <path d="M81.546 79.747l2.167-2.521-.847-.652-1.32 3.173z" fill="#520ED7"/>
  <path d="M26.785 8.718l-2.14-2.977-.779 3.575 2.919-.598z" fill="#A567FC"/>
  <path d="M48.03 100.07l.196-2.695-.916 2.36.72.335z" fill="#5A17DD"/>
  <path d="M1.85 20.863l-.44.509 2.144 1.409-1.703-1.918z" fill="#9354F9"/>
  <path d="M28.177 14.805l-.457 3.85 1.804-.8-1.347-3.05z" fill="#A466FC"/>
  <path d="M33.955 12.685l-3.333-.148 2.448 3.951.885-3.803z" fill="#A96BFC"/>
  <path d="M51.02 98.346l4.033-4.458-3.7-1.007-.334 5.465z" fill="#5A16DD"/>
  <path d="M38.527 10.319l-4.573 2.366 2.847 2.638 1.726-5.004z" fill="#AD6FFC"/>
  <path d="M53.732 100.88l.654-.097-.575-1.616-.08 1.713z" fill="#5916DC"/>
  <path d="M101.449 19.38l-1.47-1.352-3.417 1.532 4.887-.18z" fill="#CD8FF7"/>
  <path d="M30.622 12.538l-4.642-.243 2.196 2.51 2.446-2.267z" fill="#A768FC"/>
  <path d="M6.926 26.1l-3.372-3.32-1.26 1.862L6.926 26.1z" fill="#9253F9"/>
  <path d="M31.309 17.134l1.761-.646-2.448-3.95.687 4.596z" fill="#A668FC"/>
  <path d="M42.35 14.068l2.018-.322-.947-3.34-1.07 3.662z" fill="#AF71FC"/>
  <path d="M73.83 17.3l2.908-3.076-2.996-.104.088 3.18z" fill="#C486F9"/>
  <path d="M44.368 13.745l1.918-.241.276-3.129-2.194 3.37z" fill="#B172FC"/>
  <path d="M16.921 13.549l.219-4.213-2.07 1.187 1.851 3.026z" fill="#9D5FFB"/>
  <path d="M102.398 25.04l-4.681 1.679 3.254 1.708 1.427-3.387z" fill="#CE90F7"/>
  <path d="M34.08 9.352l-.126 3.333 4.573-2.366-4.447-.967z" fill="#AA6CFC"/>
  <path d="M50.045 13.212l.858-4.35-4.342 1.513 3.484 2.837z" fill="#B577FB"/>
  <path d="M92.755 17.286l4.158-1.83-1.866-1.418-2.292 3.248z" fill="#CB8DF8"/>
  <path d="M52.004 13.157l-1.1-4.295-.859 4.35 1.959-.055z" fill="#B678FB"/>
  <path d="M53.756 10.42l1.633 2.837 1.209-4.413-2.842 1.576z" fill="#B779FB"/>
  <path d="M42.103 4.38L44.309.47l-1.956.283-.25 3.626z" fill="#B072FC"/>
  <path d="M47.836 7.504l-.314-3.34-3.017 2.943 3.331.397z" fill="#B375FB"/>
  <path d="M6.098 16.924l1.237 4.323 1.948-2.73-3.185-1.593z" fill="#9657FA"/>
  <path d="M43.42 10.405l.948 3.34 2.193-3.37-3.14.03z" fill="#B072FC"/>
  <path d="M11.372 12.894l-1.911 1.364 2.329 2.23-.418-3.594z" fill="#9A5CFB"/>
  <path d="M38.543 14.87l1.936-.44-1.952-4.111.016 4.55z" fill="#AC6EFC"/>
  <path d="M71.757 77.632l-4.188-2.112.996 4.327 3.192-2.215z" fill="#530FD7"/>
  <path d="M26.287 5.086l-1.642.655 2.14 2.977-.498-3.632z" fill="#A667FC"/>
  <path d="M73.349 74.376l-1.593 3.256 5.154-2.579-3.561-.677z" fill="#520ED7"/>
  <path d="M28.292 4.343l-1.507 4.375 3.661.159-2.154-4.534zm0 0l-2.005.743.497 3.632 1.508-4.375z" fill="#A769FC"/>
  <path d="M79.043 82.46l-4.626-2.37 2.021 4.997 2.605-2.626z" fill="#520ED7"/>
  <path d="M71.563 82.318l2.854-2.229-2.66-2.457-.194 4.686z" fill="#530FD8"/>
  <path d="M31.708 6.216l.322-3.098-1.849.58 1.527 2.518z" fill="#A96BFC"/>
  <path d="M38.451 88.345l4.016-1.82-4.732-1.77.716 3.59z" fill="#601EE1"/>
  <path d="M36.147 2L34.64 5.94l3.457.003L36.147 2z" fill="#AC6EFC"/>
  <path d="M34.08 9.352l4.448.967-.43-4.377-4.017 3.41z" fill="#AA6CFC"/>
  <path d="M45.409 90.738l-2.942-4.213-1.369 4.348 4.31-.135z" fill="#5D1ADF"/>
  <path d="M22.71 6.57l1.156 2.746.78-3.575-1.935.829z" fill="#A365FC"/>
  <path d="M71.756 77.632l2.66 2.457 2.494-5.036-5.154 2.58z" fill="#530FD7"/>
  <path d="M41.098 90.873l2.578 2.97 1.733-3.105-4.311.135z" fill="#5E1CE0"/>
  <path d="M38.132 1.545l3.97 2.834L40.29 1.11l-2.157.435z" fill="#AE70FC"/>
  <path d="M64.128 87.918l3.787.579-1.247-3.447-2.54 2.868z" fill="#5512D9"/>
  <path d="M47.523 4.164l4.11.325L49.879.01l-2.355 4.155z" fill="#B375FB"/>
  <path d="M38.097 5.943l4.006-1.564-3.971-2.834-.035 4.398z" fill="#AD6FFC"/>
  <path d="M71.382 89.687l2.65-2.336-3.434-1.437.784 3.773z" fill="#5410D9"/>
  <path d="M59.296 86.413l1.467 3.336 3.365-1.83-4.832-1.506z" fill="#5613DA"/>
  <path d="M46.229.248l1.293 3.917.63-4.076-1.923.16z" fill="#B375FB"/>
  <path d="M68.896 11.334l-.094 4.238 1.973.618-1.88-4.856z" fill="#C183FA"/>
  <path d="M47.523 4.165L49.878.009l-1.725.08-.63 4.076z" fill="#B375FB"/>
  <path d="M38.132 1.545l-1.984.456 1.95 3.942.034-4.398z" fill="#AE70FC"/>
  <path d="M60.763 89.75l-1.467-3.337-3.007 3.313 4.474.023z" fill="#5613DA"/>
  <path d="M47.522 4.164L44.31.47l-2.207 3.91 5.42-.216z" fill="#B375FB"/>
  <path d="M63.277 95.96l-4.392-2.179 1.393 4.225 3-2.046z" fill="#5713DA"/>
  <path d="M51.633 4.49l1.402-2.044L51.225 0l.408 4.49z" fill="#B678FB"/>
  <path d="M56.289 89.726l-.419-4.554-3.466 2.335 3.885 2.219z" fill="#5814DB"/>
  <path d="M51.226 0l1.809 2.446-.628-2.398L51.226 0z" fill="#B678FB"/>
  <path d="M47.708 93.678l-4.087 3.719 4.605-.022-.518-3.697z" fill="#5B18DE"/>
  <path d="M57.172 13.383l-.575-4.539-1.208 4.413 1.783.126z" fill="#BA7CFB"/>
  <path d="M24.101 15.895l3.619 2.76.457-3.85-4.076 1.09z" fill="#A163FB"/>
  <path d="M42.35 14.068l-3.823-3.749 1.952 4.11 1.87-.361z" fill="#AF71FC"/>
  <path d="M79.043 82.46l-1.239-3.653-3.386 1.282 4.625 2.372z" fill="#520ED7"/>
  <path d="M55.053 93.888l-1.242 5.28 2.595-1.693-1.353-3.587z" fill="#5915DC"/>
  <path d="M93.713 25.006l1.188 3.657 2.816-1.944-4.004-1.713z" fill="#CD8FF7"/>
  <path d="M55.918 100.395l.62-.225-.826-1.31.206 1.535z" fill="#5915DC"/>
  <path d="M8.341 57.324l5.34-.82-2.593-2.286-2.747 3.106z" fill="#7C3BF1"/>
  <path d="M57.264 99.852l-1.552-.992.826 1.31.726-.318z" fill="#5815DC"/>
  <path d="M7.016 45.142l2.929-1.7-3.29-2.794.36 4.494z" fill="#8444F4"/>
  <path d="M4.658 48.406l2.358-3.264-3.38.228 1.022 3.036z" fill="#8243F4"/>
  <path d="M51.02 98.346l-2.794-.971.543 2.978 2.25-2.007z" fill="#5A16DD"/>
  <path d="M57.264 99.852l.589-.305-1.447-2.072.858 2.377z" fill="#5815DC"/>
  <path d="M57.264 99.852l-.858-2.377-.694 1.385 1.552.992z" fill="#5815DC"/>
  <path d="M58.885 93.781l4.392 2.179.53-4.624-4.922 2.445z" fill="#5714DB"/>
  <path d="M5.809 51.477l3.703-4.045-4.854.974 1.15 3.07z" fill="#8040F3"/>
  <path d="M13.458 46.322l-1.107 3.947 3.13-1.251-2.023-2.696z" fill="#8242F3"/>
  <path d="M53.288 90.47l1.765 3.418 1.236-4.162-3 .743z" fill="#5916DC"/>
  <path d="M13.458 46.322l3.73-1.698-.702-2.037-3.028 3.735z" fill="#8242F3"/>
  <path d="M60.277 98.006l-3.87-.531 1.446 2.072 2.424-1.541z" fill="#5814DB"/>
  <path d="M65.885 94.069l-2.078-2.733-.53 4.624 2.608-1.891z" fill="#5612DA"/>
  <path d="M6.942 54.224l2.242-2.792-3.375.044 1.133 2.748z" fill="#7E3EF2"/>
  <path d="M59.153 82.772l-3.283 2.4 3.426 1.241-.143-3.641z" fill="#5612DA"/>
  <path d="M9.32 29.579l-4.232 2.174 3.325 1.266.908-3.44z" fill="#9051F8"/>
  <path d="M13.458 46.322l-3.946 1.11 2.84 2.837 1.106-3.947z" fill="#8242F3"/>
  <path d="M67.915 88.497l-4.108 2.84 4.601.791-.493-3.631z" fill="#5511D9"/>
  <path d="M67.915 88.497l.494 3.631 2.973-2.441-3.467-1.19z" fill="#5511D9"/>
  <path d="M64.128 87.918l-1.136-3.564-3.696 2.06 4.832 1.504z" fill="#5512D9"/>
  <path d="M71.563 82.318l2.47 5.033 2.405-2.264-4.875-2.769z" fill="#530FD8"/>
  <path d="M90.168 36.04l4.05 3.698.44-3.747-4.49.05z" fill="#D092F7"/>
  <path d="M89.008 40.416l5.21-.679-4.576-1.579-.633 2.258z" fill="#D092F6"/>
  <path d="M70.598 85.914l-3.93-.864 1.247 3.447 2.683-2.583z" fill="#5410D8"/>
  <path d="M8.414 33.02l-.385 3.536 6.192-2.48-5.807-1.057z" fill="#8D4EF8"/>
  <path d="M60.277 98.006l-1.392-4.225-2.479 3.694 3.871.53z" fill="#5814DB"/>
  <path d="M7.016 45.142l2.496 2.29.433-3.99-2.93 1.7z" fill="#8444F4"/>
  <path d="M52.406 100.958l1.325-.078-1.614-1.443.289 1.521z" fill="#5916DC"/>
  <path d="M51.633 4.49L51.227 0l-1.348.009 1.755 4.48z" fill="#B678FB"/>
  <path d="M65.77 81.776l-4.267-.854 1.49 3.432 2.778-2.578z" fill="#5410D8"/>
  <path d="M72.172 16.674l1.57-2.554-2.966 2.07 1.396.484z" fill="#C385F9"/>
  <path d="M68.565 79.847l-1.897 5.203 4.895-2.732-2.998-2.47z" fill="#530FD8"/>
  <path d="M65.77 81.776l2.795-1.929-3.106-2.333.312 4.262z" fill="#5410D8"/>
  <path d="M.832 33.882l3.833 1.432.423-3.56-4.256 2.128z" fill="#8D4EF8"/>
  <path d="M91.518 28.145l2.195-3.139-2.736-1.218.541 4.357z" fill="#CE90F7"/>
  <path d="M71.757 77.632l1.592-3.256-3.745-.91 2.153 4.166z" fill="#530FD7"/>
  <path d="M60.678 9.687l-3.505 3.696 2.07.215 1.435-3.912z" fill="#BC7EFB"/>
  <path d="M76.563 66.756l.807-.405-.21-.193-.597.598zm-.111 4.613l-4.671-.262 1.568 3.269 3.103-3.007z" fill="#520ED7"/>
  <path d="M20.814 7.445l1.04 4.069 2.012-2.198-3.052-1.87z" fill="#A263FB"/>
  <path d="M65.459 77.513l3.106 2.334-.996-4.327-2.11 1.993z" fill="#5310D8"/>
  <path d="M102.942 20.846l-1.493-1.465-.672 3.857 2.165-2.392z" fill="#CE90F7"/>
  <path d="M76.563 66.756l.597-.598-.213-.115-.384.713zm1.492.498l-.685-.903-.807.405 1.492.498z" fill="#520ED7"/>
  <path d="M81.437 17.229l.385 3.933 2.857-3.086-3.242-.847z" fill="#C88AF8"/>
  <path d="M76.563 66.756l-.058-.79-.242.037.3.753zm1.492.498l-1.603 4.115 3.096-2.05-1.493-2.065z" fill="#520ED7"/>
  <path d="M75.97 66.134l.593.622-.3-.753-.294.13z" fill="#520ED7"/>
  <path d="M29.667 73.802l4.786-1.12-1.469-1.608-3.317 2.728z" fill="#6A28E7"/>
  <path d="M75.753 66.317l.81.44-.594-.623-.216.183z" fill="#520ED7"/>
  <path d="M30.479 78.02l3.424-.89-4.236-3.328.812 4.218z" fill="#6826E6"/>
  <path d="M76.713 65.978l-.208-.012.058.79.15-.778z" fill="#520ED7"/>
  <path d="M76.713 65.978l-.15.778.384-.713-.234-.065z" fill="#520ED7"/>
  <path d="M22.256 73.275l.195 5.546 3.848-2.062-4.043-3.484z" fill="#6D2CE9"/>
  <path d="M41.098 90.873l-2.647-2.528-1.224 4.431 3.87-1.903z" fill="#5E1CE0"/>
  <path d="M40.36 95.122l3.26 2.275.056-3.555-3.317 1.28z" fill="#5D1BDF"/>
  <path d="M69.604 73.466L67.57 75.52l4.187 2.112-2.153-4.166z" fill="#520ED7"/>
  <path d="M18.468 56.005l2.165-3.274-4.786 1.08 2.62 2.194z" fill="#7939EF"/>
  <path d="M81.546 79.747l-3.742-.94 1.24 3.654 2.502-2.714z" fill="#520ED7"/>
  <path d="M63.758 10.939l-2.75 2.9 2.045.349.705-3.25z" fill="#BE80FA"/>
  <path d="M76.91 75.053l.894 3.754 5.062-2.234-5.955-1.52z" fill="#520ED7"/>
  <path d="M65.55 4.67l-.32 3.288 5.064-.626L65.55 4.67z" fill="#BE80FA"/>
  <path d="M82.866 76.574l.847.652.142-.247-.99-.405z" fill="#520ED7"/>
  <path d="M83.93 76.67l-.018-.32-1.046.224 1.065.095z" fill="#520ED7"/>
  <path d="M40.29 1.11l1.813 3.27.25-3.627-2.064.357z" fill="#AF71FC"/>
  <path d="M82.522 73.873l.344 2.7.95-.49-1.294-2.21z" fill="#520ED7"/>
  <path d="M63.758 10.939l5.138.395-3.665-3.376-1.473 2.98z" fill="#BE80FA"/>
  <path d="M78.055 67.254l-1.492-.498-.11 4.613 1.602-4.115z" fill="#520ED7"/>
  <path d="M60.677 9.686l4.553-1.728-2.975-3.05-1.578 4.778z" fill="#BC7EFB"/>
  <path d="M76.452 71.369l4.722.359-1.626-2.41-3.096 2.05zm4.722.359l-4.263 3.325 5.611-1.18-1.348-2.145z" fill="#520ED7"/>
  <path d="M81.502 9.892l-1.653 3.253 3.105 1.096-1.452-4.349z" fill="#C688F9"/>
  <path d="M86.939 13.562l-2.26 4.514 4.104-.918-1.844-3.596z" fill="#C98BF8"/>
  <path d="M82.866 76.574l-5.062 2.233 3.742.94 1.32-3.173zm0-.001l.99.406.075-.31-1.065-.096zm0 0l1.046-.222-.096-.268-.95.49z" fill="#520ED7"/>
  <path d="M33.903 77.13l3.897-1.067-1.83-1.803-2.067 2.87z" fill="#6624E5"/>
  <path d="M41.098 90.873l1.37-4.348-4.017 1.82 2.647 2.528z" fill="#5E1CE0"/>
  <path d="M45.885 87.273l-3.418-.748 2.942 4.213.476-3.465z" fill="#5D1ADF"/>
  <path d="M15.48 49.018l4.235 1.775-.87-1.967-3.364.192z" fill="#7F3FF2"/>
  <path d="M96.177 55.328l.347.543.236-.035-.583-.508z" fill="#D193F6"/>
  <path d="M86.939 13.562l4.208-2.174-2.033-1.232-2.175 3.406z" fill="#C98BF8"/>
  <path d="M96.917 55.152l-.74.176.582.508.158-.684z" fill="#D193F6"/>
  <path d="M29.257 85.939l2.752-4.978-5.103 2.673 2.351 2.305z" fill="#6523E4"/>
  <path d="M96.917 55.152l-.158.684.257-.105-.1-.58z" fill="#D193F6"/>
  <path d="M97.236 55.564l-.32-.412.1.579.22-.167z" fill="#D193F6"/>
  <path d="M103.222 37.728l-5.235 2.163 4.715.09.52-2.253z" fill="#D092F7"/>
  <path d="M12.351 50.269l-3.168 1.163 1.905 2.786 1.263-3.949z" fill="#7F3FF2"/>
  <path d="M65.23 7.958l3.666 3.376 1.398-4.002-5.063.626z" fill="#BE80FA"/>
  <path d="M61.91.662L59.923.396l-.227 2.976 2.212-2.71z" fill="#BC7EFB"/>
  <path d="M87.523 44.907l-.039.22.85.037-.811-.257z" fill="#D193F6"/>
  <path d="M39.42 77.575l-4.145 2.815 3.293 1.02.852-3.835z" fill="#6421E3"/>
  <path d="M94.892 43.45l-6.557 1.714 5.068 1.844 1.49-3.559z" fill="#D193F6"/>
  <path d="M81.502 9.892l2.99 1.342.394-3.355-3.384 2.013z" fill="#C688F9"/>
  <path d="M88.335 45.164l6.558-1.715-6.563-.87.005 2.585z" fill="#D193F6"/>
  <path d="M88.33 42.578l-.807 2.33.812.256-.005-2.586zm-.834 2.8l.839-.214-.851-.037.012.251z" fill="#D193F6"/>
  <path d="M4.658 48.406l4.854-.974-2.496-2.29-2.358 3.264z" fill="#8243F4"/>
  <path d="M88.335 45.164l-.839.214.074.251.765-.465zm0 0l-.765.465.155.253.61-.718z" fill="#D193F6"/>
  <path d="M43.62 97.397l4.088-3.719-4.032.164-.055 3.555z" fill="#5C19DE"/>
  <path d="M15.807 40.414l-.582-2.065-4.083 1.05 4.665 1.015z" fill="#8646F5"/>
  <path d="M93.779 53.007l4.21.985-2.118-4.042-2.092 3.057z" fill="#D193F6"/>
  <path d="M24.639 81.262l2.267 2.372 3.573-5.614-5.84 3.242z" fill="#6927E6"/>
  <path d="M96.041 55.775l.135-.447-.323.336.188.11z" fill="#D193F6"/>
  <path d="M73.742 14.12l2.996.104-3.437-3.069.44 2.965z" fill="#C486F9"/>
  <path d="M96.272 55.85l.252.02-.347-.542.095.522z" fill="#D193F6"/>
  <path d="M94.217 39.737l3.77.154-3.33-3.9-.44 3.746z" fill="#D092F6"/>
  <path d="M97.386 55.38l-.47-.228.32.413.15-.185zm-1.716.113l.183.171.324-.336-.508.165zm5.7-10.679l-4.358 1.613 3.521.98.837-2.593z" fill="#D193F6"/>
  <path d="M44.505 7.107l-3.447.754 2.363 2.544 1.084-3.298z" fill="#B173FC"/>
  <path d="M98.326 43.282l-1.314 3.145 4.358-1.613-3.044-1.532z" fill="#D193F6"/>
  <path d="M43.42 10.405l-4.893-.086 3.823 3.749 1.07-3.663z" fill="#B072FC"/>
  <path d="M41.059 7.86l3.446-.753-2.402-2.728-1.044 3.482z" fill="#AF71FC"/>
  <path d="M98.59 52.604l.981-2.503-3.7-.15 2.72 2.653z" fill="#D193F6"/>
  <path d="M43.42 10.405l-2.362-2.544-2.53 2.458 4.892.086z" fill="#B072FC"/>
  <path d="M96.44 54.942l-2.661-1.935 1.89 2.486.771-.551z" fill="#D193F6"/>
  <path d="M68.273 1.899l2.021 5.433.235-4.86-2.256-.573z" fill="#BF81FA"/>
  <path d="M88.335 45.164l1.359 2.904 3.71-1.06-5.07-1.844z" fill="#D193F6"/>
  <path d="M42.103 4.38l2.402 2.727 3.017-2.943-5.42.215z" fill="#B072FC"/>
  <path d="M102.156 42.095l-4.169-2.204.34 3.391 3.829-1.187z" fill="#D092F6"/>
  <path d="M63.938.994L65.55 4.67l.586-3.25-2.198-.426z" fill="#BD7FFA"/>
  <path d="M14.511 61.717l-1.878-2.373-1.508 3.416 3.386-1.043z" fill="#7736EE"/>
  <path d="M68.896 11.334l-5.138-.395 1.035 3.604 4.103-3.21z" fill="#C183FA"/>
  <path d="M8.34 57.324l2.748-3.106-4.146.006 1.399 3.1z" fill="#7C3BF1"/>
  <path d="M70.294 7.332l-1.398 4.002 4.405-.179-3.007-3.823z" fill="#C183FA"/>
  <path d="M2.806 42.6l3.85-1.952-1.917-2.323L2.806 42.6z" fill="#8747F5"/>
  <path d="M11.088 54.218l-1.905-2.786-2.241 2.792 4.146-.006z" fill="#7D3DF1"/>
  <path d="M66.808 15.023l1.994.549.094-4.238-2.088 3.689z" fill="#C082FA"/>
  <path d="M56.337.074l.516 4.202L57.974.194l-1.637-.12z" fill="#B97BFB"/>
  <path d="M36.148 2l-2.038.524.53 3.416L36.148 2z" fill="#AC6EFC"/>
  <path d="M56.852 4.276l-.255 4.568 4.08.842-3.825-5.41z" fill="#B97BFB"/>
  <path d="M17.956 73.31l1.653-3.262-3.616.55 1.963 2.713z" fill="#6F2EEA"/>
  <path d="M4.665 35.314l-3.306 1.389 3.38 1.622-.074-3.011z" fill="#8C4CF7"/>
  <path d="M56.597 8.844l.576 4.54 3.505-3.698-4.08-.842z" fill="#B97BFB"/>
  <path d="M61.008 13.84l2.75-2.901-3.08-1.253.33 4.154z" fill="#BC7EFA"/>
  <path d="M21.507 62.737l4.653-.445-1.171-1.79-3.482 2.235z" fill="#7433ED"/>
  <path d="M86.939 13.562l.088-4.576-2.535 2.248 2.447 2.328z" fill="#C98BF8"/>
  <path d="M17.863 19.66l-3.048 2.69 4.422 1.136-1.374-3.826z" fill="#9B5DFB"/>
  <path d="M89.436 21.22l-2.962-.69.35 3.868 2.612-3.178z" fill="#CB8DF8"/>
  <path d="M47.836 7.504l3.798-3.015-4.111-.325.313 3.34z" fill="#B375FB"/>
  <path d="M38.097 5.943l2.961 1.918 1.045-3.482-4.006 1.564z" fill="#AD6FFC"/>
  <path d="M84.36 22.715l2.114-2.185-1.795-2.454-.32 4.64z" fill="#CA8CF8"/>
  <path d="M72.655 3.079l-2.362 4.253 3.77.13-1.408-4.383z" fill="#C183FA"/>
  <path d="M41.058 7.86l-2.96-1.918.43 4.377 2.53-2.458z" fill="#AF71FC"/>
  <path d="M84.492 11.234l-2.99-1.342 1.453 4.349 1.537-3.007z" fill="#C88AF9"/>
  <path d="M15.014 16.54l-.2 5.81 3.049-2.69-2.849-3.12z" fill="#9B5CFB"/>
  <path d="M65.55 4.67l-3.294.238 2.975 3.05.32-3.288z" fill="#BE80FA"/>
  <path d="M76.553 18.452l.185-4.228-2.908 3.075 2.723 1.153zm3.297-5.307l-3.112 1.079 4.699 3.005-1.588-4.084z" fill="#C688F9"/>
  <path d="M104.372 31.076l-4.535.734 4.217 1.488.318-2.222z" fill="#CF91F7"/>
  <path d="M20.848 22.42l1.612-.994-1.501-2.958-.11 3.951z" fill="#9C5DFB"/>
  <path d="M68.896 11.334l1.88 4.856 2.966-2.07-4.846-2.786z" fill="#C183FA"/>
  <path d="M63.807 91.336l.321-3.418-3.365 1.831 3.044 1.587z" fill="#5612DA"/>
  <path d="M60.677 9.686l1.578-4.778-2.558-1.536.98 6.314z" fill="#BC7EFB"/>
  <path d="M58.885 93.781l1.878-4.032-4.474-.023 2.596 4.055z" fill="#5714DB"/>
  <path d="M61.91.662l.346 4.246L63.938.994 61.91.662z" fill="#BC7EFB"/>
  <path d="M59.697 3.372l.228-2.976-1.95-.202 1.722 3.178z" fill="#BB7DFB"/>
  <path d="M53.288 90.47l3-.744-3.884-2.22.884 2.963z" fill="#5916DC"/>
  <path d="M21.427 66.874l-1.817 3.174 3.511-.096-1.694-3.078z" fill="#7130EB"/>
  <path d="M54.748.009l-1.713 2.437 3.818 1.83L54.748.009z" fill="#B87AFB"/>
  <path d="M91.76 50.5l4.11-.55-2.467-2.942-1.642 3.491z" fill="#D193F6"/>
  <path d="M54.748.009l2.105 4.267-.516-4.202L54.748.01z" fill="#B87AFB"/>
  <path d="M56.852 4.276l2.845-.904L57.974.194l-1.122 4.082z" fill="#B97BFB"/>
  <path d="M94.893 43.45l-1.49 3.558 3.61-.58-2.12-2.979z" fill="#D193F6"/>
  <path d="M64.128 87.918l2.54-2.868-3.675-.696 1.135 3.564z" fill="#5512D9"/>
  <path d="M66.136 1.42l-.586 3.25 2.722-2.772-2.136-.478z" fill="#BE80FA"/>
  <path d="M62.992 84.354l-1.49-3.432-2.35 1.85 3.84 1.582z" fill="#5511D9"/>
  <path d="M79.137 5.326l-1.992-.757 1.1 5.7.892-4.943z" fill="#C486F9"/>
  <path d="M68.408 92.128l-4.601-.792 2.078 2.733 2.523-1.94z" fill="#5511D9"/>
  <path d="M78.246 10.27l2.846-4.14-1.955-.804-.891 4.943z" fill="#C587F9"/>
  <path d="M77.144 4.569L74.063 7.46l4.183 2.808-1.102-5.7z" fill="#C386F9"/>
  <path d="M63.807 91.336l-3.044-1.587-1.878 4.032 4.922-2.445z" fill="#5612DA"/>
  <path d="M19.61 70.048l2.647 3.227.864-3.323-3.511.096z" fill="#702FEB"/>
  <path d="M73.301 11.155l.762-3.694-3.77-.13 3.008 3.824z" fill="#C385F9"/>
  <path d="M28.649 65.785l-2.02 3.171 3.337-1.469-1.317-1.702z" fill="#6F2DEA"/>
  <path d="M65.55 4.67l4.744 2.662-2.022-5.433L65.55 4.67z" fill="#BE80FA"/>
  <path d="M70.529 2.473l-.236 4.859 2.362-4.253-2.126-.606z" fill="#C082FA"/>
  <path d="M25.59 72.451l4.078 1.351-.768-2.894-3.31 1.543z" fill="#6C2BE9"/>
  <path d="M62.993 84.354l3.675.696-.897-3.274-2.778 2.578z" fill="#5511D9"/>
  <path d="M77.144 4.569l-2.28-.793-.801 3.685 3.081-2.892z" fill="#C386F9"/>
  <path d="M81.092 6.13l-2.846 4.14 3.256-.378-.41-3.762z" fill="#C587F9"/>
  <path d="M25.59 72.451l-2.469-2.5-.864 3.324 3.333-.824z" fill="#6C2BE9"/>
  <path d="M86.824 24.398l2.388 1.81 1.765-2.42-4.153.61z" fill="#CB8DF8"/>
  <path d="M52.407.048l.628 2.398.426-2.442-1.054.044z" fill="#B678FB"/>
  <path d="M17.628 24.63l1.61-1.144-4.423-1.136 2.813 2.28z" fill="#985AFA"/>
  <path d="M88.33 42.578l6.563.871-5.884-3.033-.679 2.162z" fill="#D193F6"/>
  <path d="M44.31.47l3.212 3.695L46.23.248 44.31.47z" fill="#B274FC"/>
  <path d="M89.008 40.416l5.885 3.033-.676-3.712-5.209.679z" fill="#D092F6"/>
  <path d="M97.987 39.89l-3.77-.153.675 3.712 3.095-3.558z" fill="#D092F6"/>
  <path d="M66.807 15.023l2.089-3.69-4.103 3.21 2.014.48z" fill="#C082FA"/>
  <path d="M30.622 12.538l-2.445 2.267 3.132 2.33-.687-4.597z" fill="#A768FC"/>
  <path d="M90.596 34.077l-.428 1.964 4.49-.05-4.062-1.914z" fill="#CF91F7"/>
  <path d="M16.252 25.674l-1.437-3.323.035 4.453 1.402-1.13z" fill="#9758FA"/>
  <path d="M91.288 30.037l4.98 1.763-1.368-3.137-3.612 1.374z" fill="#CE90F7"/>
  <path d="M90.989 31.975l5.28-.175-4.98-1.763-.3 1.938z" fill="#CF91F7"/>
  <path d="M32.03 3.118l-.321 3.098 2.931-.276-2.61-2.822z" fill="#AA6BFC"/>
  <path d="M94.658 35.99l1.61-4.19-5.28.175 3.67 4.016z" fill="#D092F7"/>
  <path d="M3.868 28.231l1.22 3.522 4.233-2.174-5.453-1.348z" fill="#9051F9"/>
  <path d="M99.142 35.31l-1.155 4.58 5.235-2.162-4.08-2.419z" fill="#D092F7"/>
  <path d="M96.269 31.8l-1.611 4.19 4.484-.68-2.873-3.51z" fill="#CF91F7"/>
  <path d="M103.673 35.494l.381-2.196-4.912 2.011 4.531.185z" fill="#D092F7"/>
  <path d="M34.08 9.352l.56-3.412-2.931.276 2.372 3.136z" fill="#AA6CFC"/>
  <path d="M30.447 8.877l1.262-2.66-3.417-1.874 2.154 4.534z" fill="#A769FC"/>
  <path d="M96.269 31.8l1.448-5.08-2.816 1.943 1.368 3.137zm3.568.01l1.134-3.383-3.254-1.708 2.12 5.09z" fill="#CF91F7"/>
  <path d="M36.8 15.323l-2.846-2.638 1.064 3.161 1.783-.523z" fill="#AB6CFC"/>
  <path d="M104.762 26.896l-3.791 1.531 3.635.549.156-2.08z" fill="#CE90F7"/>
  <path d="M25.98 12.295l-1.879 3.6 4.076-1.09-2.196-2.51z" fill="#A465FC"/>
  <path d="M31.309 17.134l-3.132-2.33 1.347 3.051 1.785-.72z" fill="#A668FC"/>
  <path d="M99.837 31.81l4.535-.734-3.401-2.649-1.134 3.383z" fill="#CF91F7"/>
  <path d="M34.08 9.352l-3.458 3.186 3.333.147.126-3.333z" fill="#AA6CFC"/>
  <path d="M97.012 46.427l1.314-3.145-3.433.167 2.12 2.978z" fill="#D193F6"/>
  <path d="M102.156 42.095l.546-2.113-4.715-.091 4.169 2.204z" fill="#D092F6"/>
  <path d="M104.762 26.896l-2.364-1.856-1.427 3.387 3.791-1.53z" fill="#CE90F7"/>
  <path d="M93.124 12.682l-1.977-1.294-2.365 5.77 4.342-4.476z" fill="#CA8CF8"/>
  <path d="M88.782 17.159l3.973.127.37-4.604-4.343 4.476z" fill="#CA8CF8"/>
  <path d="M97.717 26.719l3.06-3.481-3.827-.279.767 3.76z" fill="#CE90F7"/>
  <path d="M96.561 19.56l.352-4.104-4.158 1.83 3.806 2.274z" fill="#CC8FF7"/>
  <path d="M96.95 22.959l-3.237 2.047 4.004 1.713-.767-3.76zm-3.237 2.047l3.236-2.047-3.4-1.779.164 3.826z" fill="#CD8FF7"/>
  <path d="M104.372 31.076l.234-2.1-3.635-.549 3.401 2.649z" fill="#CF91F7"/>
  <path d="M84.492 11.234l2.535-2.248-2.141-1.107-.394 3.355z" fill="#C88AF9"/>
  <path d="M7.335 21.247l4.079-.14-2.131-2.59-1.948 2.73z" fill="#9556FA"/>
  <path d="M91.147 11.388l-4.208 2.174 1.844 3.597 2.364-5.771z" fill="#CA8CF8"/>
  <path d="M89.435 21.22l3.32-3.934-3.973-.128.653 4.062z" fill="#CB8DF8"/>
  <path d="M6.926 26.1l.41-4.853-3.783 1.534L6.926 26.1z" fill="#9253F9"/>
  <path d="M100.777 23.238l.672-3.857-4.887.18 4.215 3.677zm-9.258 4.907l-.542-4.357-1.764 2.42 2.306 1.937z" fill="#CE90F7"/>
  <path d="M53.035 2.446l1.292 3.98 2.526-2.15-3.818-1.83z" fill="#B779FB"/>
  <path d="M102.398 25.04l1.637-2.685-3.258.883 1.621 1.802z" fill="#CE90F7"/>
  <path d="M55.389 13.257l-1.634-2.837-1.752 2.737 3.386.1z" fill="#B97BFB"/>
  <path d="M104.441 23.29l-.405-.935-1.638 2.685 2.043-1.75zm-.406-.935l-.546-.864-2.712 1.747 3.258-.883z" fill="#CE90F7"/>
  <path d="M50.903 8.862l3.424-2.436-2.693-1.937-.73 4.373z" fill="#B577FB"/>
  <path d="M93.549 21.18l3.4 1.78-.388-3.4-3.012 1.62zm4.918-4.46l-1.905 2.84 3.417-1.532-1.512-1.308z" fill="#CC8EF7"/>
  <path d="M104.807 25.313l-2.409-.273 2.364 1.857.045-1.584zm-4.03-2.075l-4.215-3.678.387 3.4 3.828.278z" fill="#CE90F7"/>
  <path d="M43.42 10.405l3.141-.03-2.056-3.268-1.084 3.298z" fill="#B072FC"/>
  <path d="M93.713 25.006l-2.195 3.139 3.383.518-1.188-3.657z" fill="#CD8FF7"/>
  <path d="M103.489 21.491l-.547-.645-2.165 2.392 2.712-1.747z" fill="#CE90F7"/>
  <path d="M93.549 21.18l-4.114.04 1.541 2.568 2.573-2.608z" fill="#CC8EF7"/>
  <path d="M51.634 4.49l-3.798 3.014 3.068 1.358.73-4.373z" fill="#B678FB"/>
  <path d="M104.7 24.28l-.259-.99-2.043 1.75 2.302-.76zm0 0l-2.302.76 2.409.273-.107-1.033z" fill="#CE90F7"/>
  <path d="M96.913 15.456l-.351 4.104 1.905-2.84-1.554-1.264z" fill="#CC8EF8"/>
  <path d="M54.327 6.426l-.571 3.994 2.842-1.576-2.27-2.418z" fill="#B87AFB"/>
  <path d="M25.98 12.295l4.642.243-3.838-3.82-.803 3.577z" fill="#A465FC"/>
  <path d="M103.222 37.728l.451-2.234-4.531-.185 4.08 2.419z" fill="#D092F7"/>
  <path d="M99.836 31.81l-2.12-5.09-1.447 5.08 3.567.01z" fill="#CF91F7"/>
  <path d="M97.987 39.89l1.155-4.58-4.484.68 3.33 3.9z" fill="#D092F6"/>
  <path d="M55.712 98.86l-.553 1.756.76-.221-.207-1.535z" fill="#5915DC"/>
  <path d="M16.356 58.691l-3.723.652 1.879 2.374 1.844-3.026z" fill="#7838EF"/>
  <path d="M23.121 69.952l2.47 2.5 1.038-3.496-3.508.996z" fill="#6F2DEA"/>
  <path d="M64.793 14.543l-1.035-3.604-.705 3.249 1.74.355z" fill="#BF81FA"/>
  <path d="M65.23 7.958l-4.553 1.728 3.08 1.253 1.473-2.981z" fill="#BE80FA"/>
  <path d="M24.069 20.505l-3.11-2.037 1.501 2.958 1.608-.92z" fill="#9F61FB"/>
  <path d="M20.012 15.287l-2.15 4.373 3.097-1.192-.947-3.18z" fill="#9E60FB"/>
  <path d="M32.03 3.118l2.61 2.822-.53-3.416-2.08.594z" fill="#AA6BFC"/>
  <path d="M34.08 9.352l4.017-3.41-3.456-.002-.56 3.412z" fill="#AA6CFC"/>
  <path d="M74.063 7.461l-.762 3.694 4.945-.886-4.183-2.808z" fill="#C385F9"/>
  <path d="M72.656 3.079l1.407 4.382.802-3.685-2.21-.697z" fill="#C183FA"/>
  <path d="M60.678 9.686l-.981-6.314-2.845.904 3.826 5.41zM61.91.662l-2.213 2.71 2.558 1.536L61.91.662z" fill="#BC7EFB"/>
  <path d="M16.356 58.691l3.63.68-1.518-3.366-2.112 2.686z" fill="#7838EF"/>
  <path d="M20.633 52.731l-2.165 3.274 3.133-1.364-.968-1.91z" fill="#7B3AF0"/>
  <path d="M37.735 84.755l4.732 1.77-1.254-3.087-3.478 1.317z" fill="#621FE2"/>
  <path d="M39.42 77.575l-.852 3.835 2.519-2.354-1.668-1.481z" fill="#6421E3"/>
  <path d="M42.8 80.507l-4.232.903 2.645 2.028 1.588-2.93z" fill="#611EE2"/>
  <path d="M37.735 84.755l3.478-1.317-2.645-2.028-.833 3.345z" fill="#621FE2"/>
  <path d="M34.453 72.682l-.55 4.448 2.067-2.87-1.517-1.578z" fill="#6826E6"/>
  <path d="M32.01 80.961l1.893-3.831-3.424.89 1.53 2.941z" fill="#6623E4"/>
  <path d="M45.885 87.273l-.476 3.465 3.723-1.011-3.247-2.454z" fill="#5D1ADF"/>
  <path d="M46.37 83.316l-.486 3.957 2.34-2.6-1.854-1.357z" fill="#5E1CE0"/>
  <path d="M43.676 93.842l4.031-.163-2.298-2.941-1.733 3.104z" fill="#5D1ADF"/>
  <path d="M48.225 97.375l3.128-4.494-3.646.797.518 3.697z" fill="#5B17DD"/>
  <path d="M4.739 38.325l-3.38-1.622.658 2.91 2.722-1.288z" fill="#894AF6"/>
  <path d="M8.414 33.02l-3.749 2.294 3.364 1.242.385-3.537z" fill="#8D4EF8"/>
  <path d="M66.668 85.05l3.93.864.965-3.596-4.895 2.732zm4.714 4.637l-.784-3.773-2.683 2.583 3.467 1.19z" fill="#5410D9"/>
  <path d="M26.16 62.292l-1.428 3.864 2.649-2.103-1.22-1.761z" fill="#7231EC"/>
  <path d="M23.122 69.952l1.61-3.796-3.304.718 1.694 3.078z" fill="#6F2DEA"/>
  <path d="M65.77 81.776l-2.255-2.538-2.012 1.684 4.268.854z" fill="#5410D8"/>
  <path d="M66.668 85.05l1.897-5.203-2.794 1.929.897 3.274z" fill="#5410D9"/>
  <path d="M24.101 15.895l1.799 3.642 1.82-.883-3.619-2.759zm0 0l1.88-3.6-4.127-.781 2.247 4.381z" fill="#A163FB"/>
  <path d="M28.292 4.343l3.417 1.873-1.527-2.518-1.89.645z" fill="#A769FC"/>
  <path d="M34.08 9.352l-2.37-3.136-1.263 2.66 3.635.476z" fill="#AA6CFC"/>
  <path d="M71.78 71.107l4.672.262-2.782-2.46-1.89 2.198zm9.394.621l-4.722-.36.459 3.685 4.263-3.325z" fill="#520ED7"/>
  <path d="M14.85 26.804l-4.075-1.758 2.518 3.097 1.556-1.339zm-7.515-5.557l3.44 3.799.639-3.94-4.079.14z" fill="#9556FA"/>
  <path d="M18.957 8.367l2.898 3.147-1.04-4.069-1.858.922z" fill="#A062FB"/>
  <path d="M24.101 15.895l-2.246-4.381-1.843 3.774 4.09.607z" fill="#A163FB"/>
  <path d="M20.814 7.446l3.052 1.87L22.71 6.57l-1.896.876z" fill="#A263FB"/>
  <path d="M25.98 12.295l-2.114-2.979-2.011 2.198 4.126.78z" fill="#A465FC"/>
  <path d="M96.561 19.56l-3.806-2.274.794 3.894 3.012-1.62z" fill="#CC8FF7"/>
  <path d="M93.125 12.682l-.37 4.604 2.292-3.248-1.922-1.356z" fill="#CA8CF8"/>
  <path d="M87.027 8.986l-.088 4.576 2.175-3.406-2.087-1.17z" fill="#C88AF8"/>
  <path d="M84.68 18.076l2.259-4.514-3.984.679 1.724 3.835z" fill="#C98BF8"/>
  <path d="M84.886 7.88l-1.878-.899-1.506 2.911 3.384-2.013z" fill="#C789F9"/>
  <path d="M82.955 14.241l3.984-.68-2.447-2.327-1.537 3.007z" fill="#C88AF9"/>
  <path d="M81.092 6.13l.41 3.762 1.506-2.91-1.916-.852z" fill="#C587F9"/>
  <path d="M79.85 13.145l1.652-3.253-3.256.377 1.603 2.876z" fill="#C688F9"/>
  <path d="M81.437 17.229l3.242.847-1.725-3.835-1.517 2.988z" fill="#C88AF8"/>
  <path d="M84.36 22.715l.32-4.639-2.857 3.086 2.537 1.553z" fill="#CA8CF8"/>
  <path d="M79.85 13.145l1.587 4.084 1.517-2.988-3.105-1.096z" fill="#C688F9"/>
  <path d="M81.822 21.162l-.385-3.933-2.218 2.512 2.603 1.421z" fill="#C98BF8"/>
  <path d="M92.755 17.286l-3.32 3.934 4.114-.04-.794-3.894z" fill="#CB8DF8"/>
  <path d="M88.783 17.159l-4.104.917 1.795 2.454 2.309-3.372z" fill="#CA8CF8"/>
  <path d="M93.549 21.18l-2.572 2.608 2.736 1.218-.164-3.826z" fill="#CC8EF7"/>
  <path d="M86.824 24.398l4.153-.61-1.541-2.568-2.612 3.178z" fill="#CB8DF8"/>
  <path d="M86.824 24.398l-.35-3.867-2.115 2.184 2.465 1.683z" fill="#CB8DF8"/>
  <path d="M88.783 17.159l-2.31 3.372 2.963.689-.653-4.061z" fill="#CA8CF8"/>
  <path d="M47.708 93.678l1.424-3.951-3.723 1.011 2.299 2.94z" fill="#5B18DE"/>
  <path d="M49.131 89.727l2.222 3.154 1.935-2.412-4.157-.742z" fill="#5B18DE"/>
  <path d="M2.293 24.642l1.575 3.589L6.926 26.1l-4.633-1.458z" fill="#9253F9"/>
  <path d="M.402 30.923l3.466-2.692-3.727.103.261 2.589z" fill="#8F50F8"/>
  <path d="M76.452 71.369l-3.103 3.007 3.562.677-.459-3.684zm-6.848 2.097l3.745.91-1.568-3.269-2.177 2.36z" fill="#520ED7"/>
  <path d="M17.679 67.143l-4.92-1.551 1.57 2.52 3.35-.969z" fill="#7231EC"/>
  <path d="M17.474 63.662l3.953 3.212.08-4.137-4.034.925z" fill="#7534ED"/>
  <path d="M16.356 58.691l-2.675-2.187-1.048 2.84 3.723-.653z" fill="#7838EF"/>
  <path d="M12.758 65.592l1.754-3.875-3.387 1.043 1.633 2.832z" fill="#7534ED"/>
  <path d="M15.993 70.599l1.685-3.456-3.35.97 1.665 2.486zm5.434-3.725l-3.748.27 1.93 2.904 1.818-3.174z" fill="#7130EB"/>
  <path d="M24.733 66.156l-3.226-3.42-.08 4.138 3.306-.718z" fill="#702FEB"/>
  <path d="M23.683 58.376l-2.176 4.36 3.482-2.234-1.306-2.126z" fill="#7635EE"/>
  <path d="M17.473 63.661l2.513-4.29-3.63-.68 1.117 4.97z" fill="#7534ED"/>
  <path d="M23.684 58.376l-3.698.996 1.52 3.365 2.178-4.36z" fill="#7635EE"/>
  <path d="M8.341 57.324l4.292 2.02 1.048-2.84-5.34.82z" fill="#7C3BF1"/>
  <path d="M11.125 62.76l1.508-3.416-2.937.732 1.43 2.684z" fill="#7737EF"/>
  <path d="M14.69 36.217l-3.548 3.182 4.083-1.05-.534-2.132z" fill="#8A4AF6"/>
  <path d="M6.655 40.648l4.487-1.249-3.114-2.843-1.373 4.092z" fill="#8748F6"/>
  <path d="M8.029 36.556l-3.364-1.242.074 3.01 3.29-1.768z" fill="#8A4BF7"/>
  <path d="M7.016 45.142l-.36-4.494-3.85 1.952 4.21 2.542z" fill="#8444F4"/>
  <path d="M2.805 42.6l1.934-4.275-2.722 1.289.788 2.986z" fill="#8747F5"/>
  <path d="M8.028 36.556l-3.29 1.769 1.917 2.323 1.373-4.092z" fill="#8A4BF7"/>
  <path d="M24.639 81.262l1.66-4.503-3.848 2.062 2.188 2.441z" fill="#6927E6"/>
  <path d="M29.667 73.802L26.3 76.76l4.18 1.26-.813-4.217z" fill="#6A28E7"/>
  <path d="M28.9 70.908l4.084.166-1.653-1.914-2.431 1.748z" fill="#6C2AE8"/>
  <path d="M26.3 76.759l3.367-2.957-4.077-1.35.71 4.307z" fill="#6A28E7"/>
  <path d="M25.59 72.451l3.31-1.543-2.27-1.952-1.04 3.495z" fill="#6C2BE9"/>
  <path d="M32.984 71.074l-4.084-.166.767 2.894 3.317-2.728z" fill="#6A28E7"/>
  <path d="M.085 106.572l-.08 1.748 2.307.413-2.227-2.161z" fill="#510DD7"/>
  <path d="M91.98 83.605l2.882.84-.023-3.3-2.858 2.46z" fill="#A96AFB"/>
  <path d="M94.84 81.145l4.326 1.87-1.216-2.972-3.11 1.102z" fill="#AA6AFB"/>
  <path d="M3.15 114.486l.344-3.729-1.627 2.464 1.283 1.265z" fill="#530FD7"/>
  <path d="M3.494 110.757l-1.182-2.024-1.775 2.477 2.957-.453z" fill="#520ED7"/>
  <path d="M95.239 74.252L93.39 78.18l3.25-1.059-1.401-2.868z" fill="#AF6FFB"/>
  <path d="M.958 112.035l2.536-1.278-2.957.453.42.825z" fill="#520ED7"/>
  <path d="M96.51 94.928l-3.753-1.718.576 3.7 3.177-1.982z" fill="#9F5FFB"/>
  <path d="M91.98 83.605l2.86-2.46-3.724-.415.865 2.875z" fill="#A96AFB"/>
  <path d="M2.312 108.733L.21 110.244l.326.966 1.776-2.477z" fill="#520ED7"/>
  <path d="M4.399 115.652l3.788-2.624-5.037 1.458 1.249 1.166z" fill="#530FD8"/>
  <path d="M93.333 96.91l-2.886 2.387 3.733 2.769-.847-5.155z" fill="#9E5EFB"/>
  <path d="M15.631 107.901l-2.338-1.977-2.104 3.875 4.442-1.898z" fill="#5410D8"/>
  <path d="M100.004 99.035l-3.67.726 3.782 3.013-.112-3.74z" fill="#9C5BFA"/>
  <path d="M17.242 114.71l-4.537-.772 1.647 4.043 2.89-3.271z" fill="#5612DA"/>
  <path d="M44.434 52.255l-.865-5.488-3.45 2.077 4.315 3.41z" fill="#D193F6"/>
  <path d="M48.322 49.332l-4.753-2.565 2.784 4.008 1.97-1.443z" fill="#D092F7"/>
  <path d="M18.833 121.878l-4.48-3.897 1.02 5.741 3.46-1.844z" fill="#5815DC"/>
  <path d="M9.956 115.92l-3.88 1.205 1.805 1.476 2.075-2.681z" fill="#5410D9"/>
  <path d="M3.52 88.996l3.827-1.181-2.979-1.42-.849 2.602z" fill="#4F0BD5"/>
  <path d="M8.188 113.028l-2.112 4.096 3.88-1.204-1.768-2.892z" fill="#530FD8"/>
  <path d="M62.368 43.918l1.738 2.984 3.182-1.769-4.92-1.215z" fill="#CA8CF8"/>
  <path d="M57.688 41.346l4.68 2.572-1.023-3.299-3.657.727z" fill="#CC8EF7"/>
  <path d="M14.352 117.981l-4.878 1.837 1.91 1.363 2.968-3.2z" fill="#5612DA"/>
  <path d="M3.494 110.757l-.344 3.729 5.037-1.458-4.693-2.271z" fill="#520ED7"/>
  <path d="M96.334 99.76l.176-4.832-3.177 1.983 3.001 2.85z" fill="#9B5BFA"/>
  <path d="M10.066 89.686l-.589-4.392-2.13 2.521 2.719 1.871z" fill="#4F0BD5"/>
  <path d="M14.352 117.981l5.27.668-2.38-3.939-2.89 3.271z" fill="#5612DA"/>
  <path d="M3.774 105.42l-3.688 1.152 2.226 2.161 1.462-3.313z" fill="#510DD6"/>
  <path d="M9.06 104.44l-3.953-2.385-1.333 3.365 5.286-.98z" fill="#510DD7"/>
  <path d="M80.321 60.105l2.98 1.13 1.985-2.492-4.965 1.362z" fill="#BD7EFA"/>
  <path d="M77.634 70.3l1.511-3.342-3.64.464 2.129 2.879z" fill="#B879FA"/>
  <path d="M96.075 104.589l1.411 4.532 2.35-2.744-3.761-1.788z" fill="#9756FA"/>
  <path d="M3.774 105.42l-3.514-.87-.174 2.022 3.688-1.152z" fill="#510DD6"/>
  <path d="M72.324 57.996l-4.003 1.287 2.528 2.63 1.475-3.917z" fill="#C183F9"/>
  <path d="M5.107 102.055l-4.277-1.74-.322 2.148 4.6-.408zm.001-.001l-.132-3.773-4.145 2.034 4.277 1.739z" fill="#510DD6"/>
  <path d="M73.279 46.024L69.44 48.07l3.805 2.65.033-4.696z" fill="#C687F9"/>
  <path d="M.044 109.323l2.268-.59-2.307-.413.039 1.003z" fill="#520ED7"/>
  <path d="M100.005 99.035l4.097 1.803-.513-2.874-3.584 1.07z" fill="#9C5BFA"/>
  <path d="M13.292 105.924l.232-1.917-4.464.433 4.232 1.484z" fill="#520ED7"/>
  <path d="M11.188 109.799l-4.545-1.582 1.545 4.812 3-3.23z" fill="#530FD8"/>
  <path d="M58.801 38.427l-1.727-2.604-1.748 3.491 3.475-.887z" fill="#CC8EF7"/>
  <path d="M49.384 33.516l-.755.24 1.677 2.105-.922-2.345z" fill="#CF91F7"/>
  <path d="M4.399 115.652l1.677 1.472 2.112-4.096-3.789 2.624z" fill="#530FD8"/>
  <path d="M13.524 104.007l.305-1.966-4.769 2.399 4.464-.433z" fill="#510DD7"/>
  <path d="M8.799 100.405l-.55-4.005-3.273 1.882 3.823 2.123z" fill="#500CD6"/>
  <path d="M.957 112.035l.42.615 2.117-1.893-2.537 1.278z" fill="#520ED7"/>
  <path d="M4.977 98.282l-3.308-2.305-.468 2.261 3.776.044z" fill="#500CD6"/>
  <path d="M102.39 108.934l1.73 2.613.379-.946-2.109-1.667z" fill="#9554F9"/>
  <path d="M52.291 40.02l-1.985-4.16-2.246.666 4.231 3.494z" fill="#CE90F7"/>
  <path d="M11.253 98.028L8.8 100.405l5.03 1.636-2.576-4.013z" fill="#500CD5"/>
  <path d="M52.29 40.02l1.708-4.894-3.693.735 1.986 4.159z" fill="#CE90F7"/>
  <path d="M6.643 108.217l4.545 1.582-2.128-5.359-2.417 3.777zm-4.331.516l-2.268.59.166.921 2.102-1.511z" fill="#520ED7"/>
  <path d="M16.556 91.262l-3.324-.462 2.626 2.663.698-2.201z" fill="#4F0BD5"/>
  <path d="M22.111 122.426l-3.278-.548.44 3.982 2.838-3.434z" fill="#5A16DD"/>
  <path d="M92.246 68.82l-1.466 4.248 2.97-1.622-1.504-2.626z" fill="#B374FB"/>
  <path d="M28.97 129.96l3.097-2.447-2.647-1.964-.45 4.411z" fill="#5F1BE0"/>
  <path d="M52.406 46.56l-3.9-1.479 1.834 2.845 2.066-1.367z" fill="#CE90F7"/>
  <path d="M48.506 45.081l-2.883-1.776-2.054 3.462 4.937-1.686z" fill="#CF91F7"/>
  <path d="M30.977 130.623l1.09-3.11-3.097 2.447 2.007.663z" fill="#601CE0"/>
  <path d="M19.272 125.859l1.862.914.977-4.347-2.84 3.433z" fill="#5916DC"/>
  <path d="M73.246 50.72l2.559-2.364-2.527-2.332-.032 4.695z" fill="#C485F9"/>
  <path d="M25.443 114.296l-1.433 4.153 3.29.362-1.857-4.515z" fill="#5A16DC"/>
  <path d="M73.246 50.72l-3.358.926 2.618 2.477.74-3.404z" fill="#C485F9"/>
  <path d="M72.506 54.123l3.117 1.696.102-3.152-3.219 1.456z" fill="#C384F9"/>
  <path d="M29.42 125.549l-2.466 3.685 2.016.726.45-4.411z" fill="#5E1ADF"/>
  <path d="M32.813 131.178l2.065.567 2.023-3.59-4.088 3.023z" fill="#611DE1"/>
  <path d="M69.191 55.711l.697-4.065-3.563-.541 2.866 4.606z" fill="#C485F9"/>
  <path d="M45.02 120.411l-1.986-.295-.17 3.815 2.155-3.52z" fill="#6724E5"/>
  <path d="M19.622 118.649l-5.27-.668 4.48 3.897.79-3.229z" fill="#5814DB"/>
  <path d="M47.21 133.905l1.826.119-.64-4.254-1.187 4.135z" fill="#6926E7"/>
  <path d="M60.735 130.153l1.393-3.48-4.36-1.503 2.967 4.983z" fill="#7230EC"/>
  <path d="M67.135 132.417l-3.041-2.897.868 3.347 2.173-.45z" fill="#7734EE"/>
  <path d="M40.948 128.732l.267 4.39 2.724-2.928-2.99-1.462z" fill="#6522E4"/>
  <path d="M36.901 128.155l2.197 4.567 1.85-3.99-4.047-.577z" fill="#621FE2"/>
  <path d="M48.506 45.081l.485-3.35-3.368 1.574 2.883 1.776z" fill="#CF91F7"/>
  <path d="M40.948 128.732l-1.82-4.005-2.227 3.428 4.047.577z" fill="#6522E4"/>
  <path d="M41.601 38.067l4.347 1.527-2.148-3.043-2.199 1.516z" fill="#D092F7"/>
  <path d="M45.949 39.594l-.326 3.71 3.368-1.573-3.042-2.137z" fill="#CF91F7"/>
  <path d="M40.948 128.732l-1.85 3.99 2.117.4-.267-4.39z" fill="#6522E4"/>
  <path d="M36.896 132.242l2.203.48-2.197-4.567-.006 4.087z" fill="#6320E3"/>
  <path d="M19.272 125.86l-.44-3.982-1.383 3.022 1.823.96z" fill="#5916DC"/>
  <path d="M48.99 41.73l-.485 3.351 4.427-1.802-3.941-1.549z" fill="#CF91F7"/>
  <path d="M45.056 127.058l-1.117 3.136 4.457-.424-3.34-2.712z" fill="#6724E5"/>
  <path d="M22.111 122.426l.925 5.214 3.065-2.31-3.99-2.904z" fill="#5A16DD"/>
  <path d="M20.579 115.382l3.431 3.067 1.432-4.153-4.863 1.086z" fill="#5814DB"/>
  <path d="M48.396 129.77l-4.457.424 1.256 3.51 3.2-3.934z" fill="#6A27E7"/>
  <path d="M30.864 116.76l-2.692-1.14-.873 3.191 3.565-2.051z" fill="#5D19DF"/>
  <path d="M26.55 122.034l4.352-.686-3.603-2.537-.75 3.223z" fill="#5C18DE"/>
  <path d="M58.301 120.59l-.533 4.58 2.965-1.524-2.432-3.056z" fill="#712FEB"/>
  <path d="M40.12 48.844l2.447 4.925 1.867-1.514-4.315-3.411z" fill="#D193F6"/>
  <path d="M20.388 111.35l-5.002.547 1.856 2.813 3.146-3.36z" fill="#5713DA"/>
  <path d="M9.474 119.818l4.878-1.837-4.396-2.061-.482 3.898z" fill="#5511D9"/>
  <path d="M25.442 114.296l-2.523-1.385-2.34 2.471 4.863-1.086z" fill="#5A16DC"/>
  <path d="M17.242 114.71l2.38 3.939.957-3.267-3.337-.672z" fill="#5612DA"/>
  <path d="M100.628 110.614l-.791-4.237-2.35 2.744 3.141 1.493z" fill="#9453F9"/>
  <path d="M82.413 123.704l3.09 2.172-.67-4.444-2.42 2.272z" fill="#8442F4"/>
  <path d="M23.035 127.64l-.924-5.214-.977 4.347 1.901.867z" fill="#5B18DE"/>
  <path d="M74.262 126.995l2.697-1.93-4.487-.861 1.79 2.791z" fill="#7D3BF1"/>
  <path d="M41.188 119.782l-1.912-.41-.147 5.355 2.06-4.945z" fill="#6421E3"/>
  <path d="M64.29 123.27l1.518-3.976-1.873.416.355 3.56z" fill="#7633EE"/>
  <path d="M45.02 120.411l-2.156 3.52 3.327-.083-1.172-3.437z" fill="#6724E5"/>
  <path d="M42.864 123.931l-1.675-4.149-2.06 4.945 3.735-.796z" fill="#6623E4"/>
  <path d="M39.129 124.727l1.819 4.005 1.916-4.801-3.735.796z" fill="#6320E3"/>
  <path d="M90.74 86.338l-5.203-2.084.807 1.89 4.396.194z" fill="#A868FB"/>
  <path d="M30.864 116.76l-3.565 2.051 3.603 2.537-.038-4.588z" fill="#5D19DF"/>
  <path d="M53.22 129.25l-4.77-2.958-.054 3.478 4.824-.52z" fill="#6D2AE9"/>
  <path d="M39.276 119.372l-2.81 2.978 2.663 2.377.147-5.355z" fill="#631FE2"/>
  <path d="M30.902 121.348l4.63-2.971-1.809-.575-2.821 3.546z" fill="#5E1ADF"/>
  <path d="M61.2 48.618l-3.683 1.448 1.831 1.372 1.852-2.82z" fill="#C98BF8"/>
  <path d="M97.486 109.121l-1.411-4.532-2.622 4.889 4.033-.357z" fill="#9453F9"/>
  <path d="M37.303 118.88l-.837 3.47 2.81-2.978-1.973-.492z" fill="#611EE2"/>
  <path d="M54.751 126.382l2.58 3.462.437-4.674-3.017 1.212z" fill="#6E2BE9"/>
  <path d="M104.809 108.659l-.098-2.431-2.321 2.706 2.419-.275z" fill="#9555F9"/>
  <path d="M50.78 134.067l-2.384-4.297.64 4.254 1.744.043z" fill="#6B29E8"/>
  <path d="M32.026 45.58l5.086.762-2.887-2.64-2.2 1.877zm5.56 4.978l-.474-4.216-2.437 3.276 2.911.94z" fill="#D193F6"/>
  <path d="M78.167 118.589l-2.429 2.311 4.78.079-2.351-2.39z" fill="#8240F3"/>
  <path d="M10.066 89.686l3.166 1.114 2.567-4.343-5.733 3.23zm-7.9 4.167l2.945 1.237-2.39-3.361-.555 2.124z" fill="#4F0BD5"/>
  <path d="M90.527 66.041l-5.221 1.728 3.254 1.953 1.967-3.68z" fill="#B676FB"/>
  <path d="M99.166 83.014l-4.304 1.431 2.19 2.568 2.114-3.999z" fill="#A868FB"/>
  <path d="M70.918 43.98l-3-2.432-.63 3.586 3.63-1.155z" fill="#C789F8"/>
  <path d="M9.477 85.294l-4.133-1.603 2.003 4.124 2.13-2.521z" fill="#4F0AD4"/>
  <path d="M24.976 128.46l1.125-3.13-3.065 2.31 1.94.82z" fill="#5C19DE"/>
  <path d="M13.735 84.063l-2.191-2.69-2.066 3.92 4.257-1.23z" fill="#4F0AD4"/>
  <path d="M2.721 91.729l4.15.695-3.352-3.428-.798 2.733z" fill="#4F0BD5"/>
  <path d="M13.735 84.063l-4.257 1.231.588 4.392 3.669-5.623z" fill="#4F0AD4"/>
  <path d="M5.111 95.09l1.76-2.666-4.15-.695 2.39 3.361z" fill="#500BD5"/>
  <path d="M83.209 79.423l1.977-3.127-3.7.006 1.723 3.121z" fill="#B070FB"/>
  <path d="M17.388 88.89l-.827-.261-.005 2.633.832-2.372z" fill="#4F0BD5"/>
  <path d="M.509 102.463l-.25 2.087 3.515.87-3.265-2.957z" fill="#510DD6"/>
  <path d="M16.56 88.629l.828.261.04-.224-.868-.037z" fill="#4F0BD5"/>
  <path d="M57.769 125.17l-1.345-4.411-1.876.107 3.22 4.304z" fill="#712EEB"/>
  <path d="M32.345 53.324l4.613.228-2.283-3.934-2.33 3.706z" fill="#D194F6"/>
  <path d="M16.56 88.629l.867.037-.014-.26-.853.222z" fill="#4F0BD5"/>
  <path d="M4.976 98.282l.135-3.192-3.443.887 3.308 2.305z" fill="#500CD6"/>
  <path d="M16.939 87.693l-.379.936.64-.7-.261-.236z" fill="#4F0BD5"/>
  <path d="M70.918 43.98l-1.477 4.09 3.838-2.047-2.36-2.044z" fill="#C789F8"/>
  <path d="M17.336 88.156l-.136-.226-.64.699.776-.473z" fill="#4F0BD5"/>
  <path d="M17.336 88.156l-.776.473.853-.224-.077-.25z" fill="#4F0BD5"/>
  <path d="M20.388 111.35l-3.146 3.36 3.337.672-.191-4.032z" fill="#5713DA"/>
  <path d="M87.716 118.222l-.927-3.843-3.288 2.923 4.215.92z" fill="#8948F6"/>
  <path d="M6.871 92.424l4.636 1.255-1.44-3.993-3.196 2.738z" fill="#4F0BD5"/>
  <path d="M13.232 90.8l-1.725 2.879 4.351-.216-2.626-2.663z" fill="#4F0BD5"/>
  <path d="M17.449 124.9l1.384-3.022-3.46 1.844 2.076 1.178z" fill="#5915DC"/>
  <path d="M8.275 78.978l-.62-.657-.15.184.77.473z" fill="#4E0AD4"/>
  <path d="M8.275 78.978l-.402-.822-.218.165.62.657z" fill="#4E0AD4"/>
  <path d="M50.34 47.926l-1.835-2.845-.183 4.251 2.018-1.406z" fill="#CF91F7"/>
  <path d="M43.569 46.767l-3.148-2.51-.302 4.587 3.45-2.077z" fill="#D092F7"/>
  <path d="M69.327 127.552l2.107 3.784 2.09-.618-4.197-3.166z" fill="#7937EF"/>
  <path d="M7.873 78.156l.401.822-.146-.928-.255.106z" fill="#4E0AD4"/>
  <path d="M43.94 130.194l-2.725 2.928 1.986.319.738-3.247z" fill="#6724E5"/>
  <path d="M8.366 78.014l-.091.964.486-.272-.395-.692z" fill="#4E0AD4"/>
  <path d="M8.128 78.05l.146.928.092-.964-.238.036z" fill="#4E0AD4"/>
  <path d="M76.96 125.065l2.505 3.544 1.948-.813-4.453-2.731z" fill="#7F3DF2"/>
  <path d="M8.761 78.706l.295-.473-.211-.125-.084.598z" fill="#4E0AD4"/>
  <path d="M24.01 118.449l-1.899 3.977 4.439-.392-2.54-3.585z" fill="#5A16DD"/>
  <path d="M30.902 121.348l-1.482 4.201 4.351-.856-2.869-3.345z" fill="#5E1ADF"/>
  <path d="M8.761 78.706l.084-.598-.234-.075.15.673z" fill="#4E0AD4"/>
  <path d="M36.492 41.87l.62 4.472 3.31-2.086-3.93-2.386z" fill="#D193F6"/>
  <path d="M8.366 78.014l.395.692-.15-.673-.245-.019zm.849.369l-.16-.15-.294.473.454-.323z" fill="#4E0AD4"/>
  <path d="M3.494 110.757l4.694 2.272-1.545-4.812-3.15 2.54z" fill="#520ED7"/>
  <path d="M29.676 48.347l.09.297.769-.446-.859.15z" fill="#D193F6"/>
  <path d="M72.472 124.204l4.487.861-1.221-4.165-3.266 3.304z" fill="#7C3AF1"/>
  <path d="M29.676 48.347l.859-.149-.868-.079.01.228zm.859-.149l-.818-.34-.05.26.868.08z" fill="#D193F6"/>
  <path d="M42.864 123.931l-1.916 4.801 4.109-1.674-2.193-3.127z" fill="#6623E4"/>
  <path d="M69.327 127.552l-1.457-4.079-2.07 3.039 3.527 1.04z" fill="#7937EF"/>
  <path d="M6.871 92.424l.476-4.61-3.828 1.183 3.352 3.427z" fill="#4F0BD5"/>
  <path d="M26.1 125.33l3.32.219-2.87-3.515-.45 3.296z" fill="#5C19DE"/>
  <path d="M8.275 78.978L6.317 81.23l2.8-1.313-.842-.94z" fill="#4E0AD4"/>
  <path d="M18.833 121.878l3.278.548-2.489-3.777-.79 3.229z" fill="#5815DC"/>
  <path d="M96.971 113.271l.515-4.15-4.033.357 3.518 3.793z" fill="#9150F8"/>
  <path d="M69.888 51.646l-.448-3.576-3.115 3.035 3.563.541z" fill="#C586F9"/>
  <path d="M36.52 58.025l-.531.63.353.137.178-.767z" fill="#D194F6"/>
  <path d="M29.42 125.548l-3.32-.218.854 3.904 2.466-3.686z" fill="#5E1ADF"/>
  <path d="M11.253 98.028l3.954-2.268-3.7-2.081-.254 4.349z" fill="#500CD5"/>
  <path d="M35.988 58.655l.532-.63-.833.381.301.249zm1.437-1.005l-.467-4.098-2.735 2.804 3.202 1.295z" fill="#D194F6"/>
  <path d="M8.799 100.405l-3.692 1.65 3.953 2.385-.261-4.035z" fill="#500CD6"/>
  <path d="M36.52 58.025l.905-.374-2.396-.121 1.49.495z" fill="#D194F6"/>
  <path d="M43.57 46.767l.864 5.487 1.919-1.479-2.784-4.008z" fill="#D092F7"/>
  <path d="M11.189 109.799l-3.001 3.229 4.518.91-1.517-4.139z" fill="#530FD8"/>
  <path d="M36.957 53.552l-3.696 1.298.961 1.506 2.735-2.804z" fill="#D193F6"/>
  <path d="M36.342 58.792l.205.02.211-.444-.416.424z" fill="#D194F6"/>
  <path d="M15.8 86.457L13.231 90.8l3.328-2.171-.76-2.172z" fill="#4F0AD5"/>
  <path d="M36.79 58.785l.193-.065-.225-.352.032.417z" fill="#D194F6"/>
  <path d="M83.5 117.302l-2.982 3.677 4.316.454-1.333-4.131z" fill="#8745F5"/>
  <path d="M36.758 58.368l-.238-.343-.178.767.416-.424z" fill="#D194F6"/>
  <path d="M69.327 127.552l-3.526-1.04-1.707 3.008 5.233-1.968z" fill="#7937EF"/>
  <path d="M60.735 130.153l-2.967-4.983-.437 4.674 3.404.309z" fill="#7230EC"/>
  <path d="M36.52 58.025l-1.49-.495.657.876.833-.38z" fill="#D194F6"/>
  <path d="M42.567 53.769l-4.981-3.21 3.168 4.758 1.813-1.548z" fill="#D193F6"/>
  <path d="M86.79 114.379l.279-4.864-1.625 1.147 1.345 3.717z" fill="#8B49F6"/>
  <path d="M37.112 46.342l-5.086-.763 2.649 4.04 2.437-3.277z" fill="#D193F6"/>
  <path d="M75.738 120.9l2.429-2.311-3.174-2.274.745 4.585z" fill="#803EF2"/>
  <path d="M35.531 118.377l-4.63 2.971 5.564 1.002-.934-3.973z" fill="#601DE1"/>
  <path d="M40.12 48.844l-2.534 1.715 4.98 3.21-2.447-4.925z" fill="#D193F6"/>
  <path d="M62.128 126.673l-1.395-3.027-2.965 1.524 4.36 1.503z" fill="#7431EC"/>
  <path d="M36.547 58.812l.242-.027-.031-.417-.21.444z" fill="#D194F6"/>
  <path d="M65.662 56.737l.663-5.632-2.322 4.146 1.659 1.486z" fill="#C586F9"/>
  <path d="M34.675 49.618l2.282 3.934.63-2.994-2.912-.94z" fill="#D193F6"/>
  <path d="M89.64 95.916l3.117-2.706-4.079-.633.962 3.339z" fill="#A05FFB"/>
  <path d="M29.717 47.859l.818.339-.724-.548-.094.209z" fill="#D193F6"/>
  <path d="M30.535 48.198l-.585-.736-.14.188.725.548z" fill="#D193F6"/>
  <path d="M30.535 48.198l-.237 1.46 4.377-.04-4.14-1.42z" fill="#D193F6"/>
  <path d="M30.298 49.658l.236-1.46-.768.446.532 1.014z" fill="#D194F6"/>
  <path d="M92.757 93.21l-3.118 2.706 3.694.995-.576-3.701z" fill="#A261FB"/>
  <path d="M64.106 46.902l-1.738-2.984-2.932 1.824 4.67 1.16z" fill="#C98BF8"/>
  <path d="M40.422 44.256l-3.31 2.086 3.008 2.502.302-4.588z" fill="#D193F6"/>
  <path d="M87.274 79.402l3.176-2.965-5.264-.14 2.088 3.105z" fill="#AE6EFB"/>
  <path d="M36.492 41.87l-2.267 1.832 2.887 2.64-.62-4.472z" fill="#D193F6"/>
  <path d="M39.152 39.838l-2.66 2.032 3.93 2.386-1.27-4.418z" fill="#D092F7"/>
  <path d="M90.45 76.437l-3.176 2.965 3.842 1.328-.666-4.293z" fill="#AF6FFB"/>
  <path d="M30.535 48.198l4.14 1.42-2.649-4.039-1.491 2.62z" fill="#D193F6"/>
  <path d="M59.436 45.742l2.932-1.824-4.68-2.572 1.748 4.396z" fill="#CB8DF8"/>
  <path d="M43.8 36.551l2.148 3.043 2.111-3.068-4.258.025z" fill="#CF92F7"/>
  <path d="M40.422 44.256l3.147 2.511 2.054-3.462-5.201.951z" fill="#D193F6"/>
  <path d="M48.06 36.526l-1.578-1.732-2.681 1.757 4.258-.026z" fill="#CF91F7"/>
  <path d="M48.06 36.526l2.246-.665-1.677-2.105-.57 2.77z" fill="#CF91F7"/>
  <path d="M55.995 44.565l-.039 4.38 3.48-3.203-3.44-1.177z" fill="#CC8EF7"/>
  <path d="M7.347 87.815l-2.003-4.124-.976 2.703 2.98 1.421z" fill="#4F0BD5"/>
  <path d="M72.324 57.996l.183-3.873-3.315 1.588 3.132 2.285z" fill="#C183F9"/>
  <path d="M48.06 36.526l-.648-2.251-.93.52 1.578 1.73z" fill="#CF91F7"/>
  <path d="M76.635 59.219l.472 4.595 3.214-3.71-3.686-.885z" fill="#BF80FA"/>
  <path d="M53.998 35.126L52.29 40.02l3.035-.706-1.328-4.188zm-3.972-1.769l-.642.159.921 2.345-.28-2.504z" fill="#CE90F7"/>
  <path d="M78.234 50.755l-2.508 1.912 4.75.457-2.242-2.369z" fill="#C283F9"/>
  <path d="M39.152 39.838l1.27 4.418 2.176-2.792-3.446-1.626z" fill="#D092F7"/>
  <path d="M80.32 60.105l-1.218-3.59-2.467 2.704 3.686.886z" fill="#BD7EFA"/>
  <path d="M43.57 46.767l4.752 2.565.184-4.25-4.937 1.685z" fill="#D092F7"/>
  <path d="M9.478 85.294l2.066-3.92-2.426-1.457.36 5.377z" fill="#4F0AD4"/>
  <path d="M53.22 129.25l.454 4.812 1.507-.018-1.961-4.794z" fill="#6D2AE9"/>
  <path d="M5.108 102.054l3.691-1.649-3.823-2.124.132 3.773zm-.001.001l-4.599.408 3.265 2.957 1.334-3.365z" fill="#510DD6"/>
  <path d="M42.599 41.464l-2.177 2.792 5.201-.951-3.024-1.841z" fill="#D092F7"/>
  <path d="M48.98 120.797l-2.79 3.051 2.26 2.444.53-5.495z" fill="#6A27E7"/>
  <path d="M89.64 95.915l.806 3.382 2.887-2.386-3.694-.996z" fill="#A05FFB"/>
  <path d="M48.505 45.081l3.901 1.478.526-3.28-4.427 1.802z" fill="#CF91F7"/>
  <path d="M65.808 119.294l-1.518 3.976 3.58.203-2.062-4.179z" fill="#7836EE"/>
  <path d="M77.477 129.374l-3.215-2.378 1.19 3.095 2.025-.717z" fill="#7E3CF2"/>
  <path d="M51.739 125.159l.938-4.248-1.764-.023.826 4.271z" fill="#6C29E8"/>
  <path d="M58.556 133.814l-1.224-3.97-.546 4.119 1.77-.149z" fill="#712EEB"/>
  <path d="M57.331 129.844l-2.15 4.2 1.605-.081.545-4.119z" fill="#702DEA"/>
  <path d="M60.735 130.153l-3.404-.309 1.225 3.97 2.179-3.661z" fill="#7230EC"/>
  <path d="M45.195 133.704l-1.256-3.51-.738 3.247 1.994.263z" fill="#6825E6"/>
  <path d="M45.057 127.058l-4.109 1.674 2.991 1.462 1.118-3.136z" fill="#6724E5"/>
  <path d="M50.78 134.067l1.627-.052.813-4.765-2.44 4.817z" fill="#6B29E8"/>
  <path d="M74.262 126.996l-1.79-2.792-3.145 3.348 4.935-.556z" fill="#7D3BF1"/>
  <path d="M57.332 129.844l-4.112-.594 1.96 4.794 2.152-4.2z" fill="#702DEA"/>
  <path d="M67.135 132.417l2.192-4.865-5.233 1.968 3.041 2.897z" fill="#7734EE"/>
  <path d="M39.129 124.727l-5.358-.034 3.13 3.462 2.228-3.428z" fill="#6320E3"/>
  <path d="M69.383 131.883l-.056-4.331-2.192 4.865 2.248-.534z" fill="#7836EF"/>
  <path d="M26.101 125.33l.449-3.296-4.439.392 3.99 2.904z" fill="#5C19DE"/>
  <path d="M26.954 129.234l-.853-3.904-1.125 3.13 1.978.774z" fill="#5D1ADF"/>
  <path d="M71.434 131.336l-2.107-3.784.056 4.331 2.051-.547z" fill="#7A37EF"/>
  <path d="M74.262 126.995l-4.935.557 4.197 3.166.738-3.723z" fill="#7D3BF1"/>
  <path d="M32.813 131.178l-.747-3.665-1.09 3.11 1.837.555z" fill="#611DE1"/>
  <path d="M74.263 126.995l-.739 3.723 1.929-.627-1.19-3.096z" fill="#7D3BF1"/>
  <path d="M15.207 95.76l-3.954 2.268 3.415-.116.539-2.152z" fill="#4F0BD5"/>
  <path d="M8.249 96.4l.55 4.005 2.454-2.377L8.249 96.4z" fill="#500CD5"/>
  <path d="M72.472 124.204l-4.602-.731 1.457 4.079 3.145-3.348z" fill="#7C3AF1"/>
  <path d="M33.771 124.693l-4.35.855 2.645 1.965 1.705-2.82z" fill="#601DE1"/>
  <path d="M64.093 129.52l-3.358.633 2.143 3.087 1.215-3.72z" fill="#7532ED"/>
  <path d="M32.067 127.513l4.834.642-3.13-3.462-1.704 2.82z" fill="#601CE1"/>
  <path d="M79.465 128.609l-2.505-3.544.518 4.309 1.987-.765z" fill="#803EF2"/>
  <path d="M60.735 130.153l-2.179 3.661 2.1-.244.08-3.417z" fill="#7230EC"/>
  <path d="M47.102 120.647l-.911 3.201 2.79-3.051-1.879-.15z" fill="#6825E6"/>
  <path d="M51.739 125.159l2.809-4.293-1.87.045-.94 4.248z" fill="#6C29E8"/>
  <path d="M66.325 51.105l-5.124-2.487-.362 3.988 5.486-1.501z" fill="#C788F8"/>
  <path d="M94.335 115.946l-3.137 2.596 4.12 1.287-.983-3.883z" fill="#8F4DF8"/>
  <path d="M53.22 129.25l1.531-2.868-3.012-1.223 1.48 4.091z" fill="#6D2AE9"/>
  <path d="M77.477 129.374l-.518-4.309-2.697 1.93 3.215 2.379z" fill="#7E3CF2"/>
  <path d="M60.18 120.358l.553 3.288 1.326-3.581-1.879.293z" fill="#7330EC"/>
  <path d="M56.423 120.759l1.345 4.411.533-4.58-1.878.169z" fill="#702DEA"/>
  <path d="M93.453 109.478l-.31 3.336 3.828.457-3.518-3.793z" fill="#9251F8"/>
  <path d="M51.739 125.159l3.012 1.223-.203-5.516-2.81 4.293z" fill="#6C29E8"/>
  <path d="M45.195 133.704l2.014.201 1.187-4.135-3.201 3.934z" fill="#6825E6"/>
  <path d="M57.688 41.346l-4.756 1.933 3.063 1.286 1.693-3.219z" fill="#CC8EF7"/>
  <path d="M72.472 124.204l-.078-3.343-4.524 2.612 4.602.731z" fill="#7C3AF1"/>
  <path d="M52.407 134.015l1.267.047-.454-4.812-.813 4.765z" fill="#6D2AE8"/>
  <path d="M67.675 118.817l-1.867.477 2.062 4.179-.195-4.656z" fill="#7A37EF"/>
  <path d="M62.059 120.065l2.23 3.205-.354-3.56-1.876.355z" fill="#7532ED"/>
  <path d="M104.473 103.58l-4.357-.806-.28 3.603 4.637-2.797z" fill="#9857FA"/>
  <path d="M56.79 33.997l-1.22 2.21 1.504-.384-.284-1.826z" fill="#CD8FF7"/>
  <path d="M75.738 120.9l-2.598-3.85-.745 3.811 3.343.039z" fill="#803EF2"/>
  <path d="M9.118 79.917L6.317 81.23l3.16 4.064-.36-5.377z" fill="#4E0AD4"/>
  <path d="M73.14 117.05l2.598 3.85-.745-4.585-1.854.735z" fill="#7F3DF2"/>
  <path d="M73.14 117.05l-1.614.582.868 3.229.745-3.811z" fill="#7F3DF2"/>
  <path d="M1.867 113.221l1.627-2.464-2.117 1.893.49.571z" fill="#520ED7"/>
  <path d="M69.615 118.255l-1.745 5.218 4.524-2.612-2.779-2.606z" fill="#7B39F0"/>
  <path d="M11.189 109.799l4.197 2.098.245-3.996-4.442 1.898z" fill="#530FD8"/>
  <path d="M62.059 120.065l-1.326 3.581 3.557-.376-2.231-3.205z" fill="#7532ED"/>
  <path d="M10.38 79.879l-1.262.038 2.426 1.457-1.164-1.495z" fill="#4E0AD4"/>
  <path d="M76.96 125.065l4.454 2.732 1-4.093-5.454 1.361z" fill="#7F3DF2"/>
  <path d="M64.789 39.188l-2.42 4.73 5.55-2.37-3.13-2.36z" fill="#CB8CF8"/>
  <path d="M82.414 123.704l-1 4.093 2.224-1.007-1.224-3.086z" fill="#8442F4"/>
  <path d="M9.06 104.44l4.769-2.399-5.03-1.636.262 4.035zm0 0l-5.286.98 2.869 2.797 2.417-3.777z" fill="#510DD7"/>
  <path d="M78.166 118.589l.44-3.922-1.79.854 1.35 3.068z" fill="#8240F3"/>
  <path d="M9.118 79.917l-.357-1.21-.486.27.843.94z" fill="#4E0AD4"/>
  <path d="M83.5 117.302l-4.893-2.635-.44 3.922 5.333-1.287z" fill="#8745F5"/>
  <path d="M91.72 122.315l-.522-3.773-1.496 5.022 2.018-1.249z" fill="#8A49F6"/>
  <path d="M11.188 109.799l2.104-3.875-4.232-1.484 2.128 5.359z" fill="#530FD8"/>
  <path d="M84.834 121.432l.67 4.444 2.126-1.124-2.796-3.32z" fill="#8644F5"/>
  <path d="M83.5 117.302l-3.134-3.548-1.759.913 4.894 2.635z" fill="#8745F5"/>
  <path d="M2.312 108.733l4.33-.516-2.868-2.797-1.462 3.313z" fill="#520ED7"/>
  <path d="M76.96 125.065l3.558-4.086-4.78-.079 1.221 4.165z" fill="#7F3DF2"/>
  <path d="M91.72 122.315l1.962-1.312-2.484-2.461.522 3.773z" fill="#8A49F6"/>
  <path d="M12.706 113.939l-4.518-.91 1.768 2.891 2.75-1.981z" fill="#5511D9"/>
  <path d="M89.702 123.564l1.496-5.022-3.482-.32 1.986 5.342z" fill="#8947F6"/>
  <path d="M37.112 46.342l.474 4.216 2.534-1.714-3.008-2.502z" fill="#D193F6"/>
  <path d="M9.473 119.818l.482-3.898-2.074 2.681 1.592 1.217z" fill="#5511D9"/>
  <path d="M95.319 119.829l1.858-1.426-2.842-2.457.984 3.883z" fill="#8D4CF7"/>
  <path d="M100.405 115.657l-3.433-2.386 1.933 3.707 1.5-1.321z" fill="#9251F9"/>
  <path d="M89.702 123.565l-4.868-2.132 2.796 3.319 2.072-1.187z" fill="#8947F6"/>
  <path d="M96.972 113.271l3.433 2.386 1.457-1.366-4.89-1.02z" fill="#9150F8"/>
  <path d="M54.548 120.866l.204 5.516 3.017-1.212-3.22-4.304z" fill="#6E2CE9"/>
  <path d="M84.834 121.432l-4.316-.453 1.896 2.725 2.42-2.272z" fill="#8644F5"/>
  <path d="M96.971 113.271l-2.636 2.675 4.57 1.032-1.934-3.707z" fill="#9150F8"/>
  <path d="M37.586 50.558l-.629 2.994 3.796 1.765-3.167-4.759z" fill="#D193F6"/>
  <path d="M87.717 118.222l2.962-3.137-3.89-.706.928 3.843z" fill="#8948F6"/>
  <path d="M11.189 109.799l1.516 4.139 2.681-2.041-4.197-2.098z" fill="#530FD8"/>
  <path d="M101.862 114.291l-1.233-3.677-3.657 2.657 4.89 1.02z" fill="#9352F9"/>
  <path d="M34.675 49.618l-4.377.04 2.047 3.666 2.33-3.706z" fill="#D193F6"/>
  <path d="M82.092 112.782l-1.726.972 3.135 3.548-1.41-4.52z" fill="#8846F5"/>
  <path d="M9.118 79.917l.097-1.534-.454.323.357 1.211z" fill="#4E0AD4"/>
  <path d="M83.784 111.751l-1.692 1.031 4.697 1.597-3.005-2.628z" fill="#8A48F6"/>
  <path d="M82.092 112.782l1.408 4.52 3.29-2.923-4.698-1.597z" fill="#8846F5"/>
  <path d="M13.734 84.063l-3.668 5.623 5.733-3.229-2.065-2.394z" fill="#4F0AD4"/>
  <path d="M36.983 58.72l.203-.119-.428-.233.225.352z" fill="#D194F6"/>
  <path d="M88.659 108.311l-1.59 1.205 6.074 3.298-4.484-4.503z" fill="#904FF8"/>
  <path d="M93.453 109.478l2.622-4.889-4.557 1.332 1.935 3.557z" fill="#9251F8"/>
  <path d="M37.425 57.65l-.905.375.238.343.667-.717z" fill="#D194F6"/>
  <path d="M93.453 109.478l-1.934-3.557-1.305 1.128 3.24 2.429z" fill="#9251F8"/>
  <path d="M37.425 57.65l-.667.718.428.233.24-.95z" fill="#D194F6"/>
  <path d="M87.069 109.516l3.61 5.569 2.464-2.271-6.074-3.298z" fill="#8E4CF7"/>
  <path d="M9.215 78.383l-.097 1.534 1.262-.039-1.165-1.495z" fill="#4E0AD4"/>
  <path d="M103.008 113.152l.591-.727-2.97-1.811 2.379 2.538z" fill="#9453F9"/>
  <path d="M58.301 120.59l2.432 3.056-.553-3.288-1.879.232z" fill="#712FEB"/>
  <path d="M100.629 110.614l-3.142-1.493-.515 4.15 3.657-2.657z" fill="#9453F9"/>
  <path d="M74.993 116.315l3.174 2.274-1.35-3.068-1.823.794z" fill="#803FF2"/>
  <path d="M64.29 123.27l-2.162 3.403 3.673-.161-1.51-3.242z" fill="#7633EE"/>
  <path d="M104.499 110.601l.232-.999-2.341-.668 2.109 1.667z" fill="#9554F9"/>
  <path d="M96.075 104.589l-4.742-.223.185 1.555 4.557-1.332z" fill="#9756FA"/>
  <path d="M102.39 108.934l-2.553-2.557.791 4.237 1.762-1.68zm0 0l-1.761 1.68 3.491.933-1.73-2.613z" fill="#9554F9"/>
  <path d="M72.472 124.204l3.266-3.304-3.343-.039.077 3.343z" fill="#7C3AF1"/>
  <path d="M104.809 108.659l-2.419.275 2.341.668.078-.943z" fill="#9555F9"/>
  <path d="M69.615 118.255l2.78 2.606-.87-3.229-1.91.623z" fill="#7B39F0"/>
  <path d="M78.166 118.589l2.351 2.39 2.983-3.677-5.334 1.287z" fill="#8240F3"/>
  <path d="M88.66 108.311l4.484 4.503.31-3.336-4.795-1.167z" fill="#904FF8"/>
  <path d="M101.862 114.291l1.146-1.138-2.379-2.539 1.233 3.677z" fill="#9352F9"/>
  <path d="M104.711 106.228l-.238-2.648-4.636 2.797 4.874-.149z" fill="#9756FA"/>
  <path d="M57.332 129.844l-2.58-3.462-1.532 2.868 4.112.594z" fill="#702DEA"/>
  <path d="M37.425 57.65l1.57-.753-2.038-3.345.468 4.099z" fill="#D194F6"/>
  <path d="M11.253 98.028l2.576 4.013.4-2.135-2.976-1.878z" fill="#500CD5"/>
  <path d="M37.425 57.65l-3.202-1.294.806 1.174 2.396.12zm-5.08-4.326l.917 1.526 3.696-1.298-4.613-.228z" fill="#D194F6"/>
  <path d="M41.601 38.067l.998 3.397 3.35-1.87-4.348-1.527z" fill="#D092F7"/>
  <path d="M64.003 55.251l2.322-4.146-3.74 2.931 1.418 1.215z" fill="#C688F9"/>
  <path d="M64.79 39.188l-3.444 1.431 1.023 3.299 2.42-4.73z" fill="#CB8CF8"/>
  <path d="M48.06 36.526l.569-2.77-1.218.519.648 2.25z" fill="#CF91F7"/>
  <path d="M51.334 33.154l2.664 1.972-1.331-2.02-1.333.048z" fill="#CE90F7"/>
  <path d="M59.436 45.742l-1.919 4.324 3.683-1.448-1.764-2.876z" fill="#CB8DF8"/>
  <path d="M58.096 34.655l-1.022 1.168 1.727 2.604-.706-3.772z" fill="#CD8FF7"/>
  <path d="M103.599 112.425l.521-.878-3.491-.933 2.97 1.811z" fill="#9453F9"/>
  <path d="M59.436 45.742l-3.48 3.204 1.562 1.12 1.918-4.324z" fill="#CB8DF8"/>
  <path d="M57.688 41.346l-1.693 3.219 3.44 1.177-1.747-4.396z" fill="#CC8EF7"/>
  <path d="M11.253 98.028l2.977 1.878.438-1.994-3.415.116z" fill="#500CD5"/>
  <path d="M70.85 61.913l2.394 2.713.897-3.205-3.292.492z" fill="#C081FA"/>
  <path d="M60.84 52.606l1.744 1.43 3.741-2.931-5.486 1.501z" fill="#C88AF8"/>
  <path d="M79.145 66.958l-2.038-3.144-1.601 3.608 3.64-.464z" fill="#BA7BFA"/>
  <path d="M48.98 120.797l2.759 4.362-.826-4.271-1.932-.091z" fill="#6A27E7"/>
  <path d="M93.454 109.478l-3.24-2.429-1.555 1.262 4.794 1.167z" fill="#9251F8"/>
  <path d="M75.506 67.422l1.6-3.608-3.862.812 2.262 2.796z" fill="#BB7CFA"/>
  <path d="M69.192 55.711l-3.53 1.026 2.66 2.546.87-3.572z" fill="#C485F9"/>
  <path d="M40.753 55.317l-3.796-1.765 2.038 3.345 1.758-1.58z" fill="#D193F6"/>
  <path d="M69.192 55.711l-2.867-4.606-.663 5.633 3.53-1.027zm4.054-4.991l2.48 1.947.079-4.311-2.559 2.363z" fill="#C485F9"/>
  <path d="M69.616 118.255l-1.94.562.194 4.656 1.746-5.218z" fill="#7B39F0"/>
  <path d="M66.325 51.105l-2.22-4.203-2.905 1.716 5.125 2.487z" fill="#C788F8"/>
  <path d="M81.486 76.302l2.033-3.331-3.892.29 1.859 3.04z" fill="#B373FB"/>
  <path d="M36.901 128.155l-2.023 3.59 2.018.497.005-4.087z" fill="#621FE2"/>
  <path d="M48.45 126.292l4.77 2.958-1.481-4.091-3.29 1.133z" fill="#6A27E7"/>
  <path d="M73.246 50.72l-3.805-2.65.448 3.576 3.357-.927z" fill="#C485F9"/>
  <path d="M55.57 36.208l.603-2.452-.756-.24.154 2.692z" fill="#CD8FF7"/>
  <path d="M50.026 33.357l.28 2.504 1.028-2.707-1.308.203z" fill="#CE90F7"/>
  <path d="M69.192 55.711l3.315-1.588-2.618-2.477-.697 4.065z" fill="#C485F9"/>
  <path d="M53.998 35.126l1.419-1.61-.772-.186-.647 1.796z" fill="#CE90F7"/>
  <path d="M55.995 44.565l-3.588 1.994 1.632 1.072 1.956-3.066z" fill="#CC8EF7"/>
  <path d="M53.998 35.126l.647-1.796-.652-.113.005 1.909z" fill="#CE90F7"/>
  <path d="M74.14 61.421l2.967 2.393-.472-4.595-2.494 2.202z" fill="#BF80FA"/>
  <path d="M53.998 35.126l-2.664-1.972-1.029 2.707 3.693-.735z" fill="#CE90F7"/>
  <path d="M77.107 63.814l2.038 3.144 1.909-3.134-3.947-.01z" fill="#BC7DFA"/>
  <path d="M53.998 35.126l1.573 1.082-.154-2.692-1.419 1.61zm-.006-1.909l-1.325-.11 1.33 2.019-.005-1.91z" fill="#CE90F7"/>
  <path d="M81.338 69.96l-3.704.34 1.993 2.96 1.711-3.3z" fill="#B778FB"/>
  <path d="M72.324 57.996l-1.475 3.916 3.292-.49-1.817-3.426z" fill="#C183F9"/>
  <path d="M52.291 40.02l-4.231-3.495.931 5.206 3.3-1.711z" fill="#CE90F7"/>
  <path d="M79.146 66.957l6.16.812-4.252-3.945-1.908 3.133z" fill="#BA7BFA"/>
  <path d="M61.525 36.894l-2.723 1.532 2.544 2.193.18-3.725z" fill="#CC8EF7"/>
  <path d="M83.52 72.97l1.666 3.326 2.22-2.959-3.886-.366z" fill="#B475FB"/>
  <path d="M61.525 36.894l-.18 3.725 3.444-1.431-3.264-2.294z" fill="#CC8EF7"/>
  <path d="M58.095 34.655l.706 3.772 2.724-1.533-3.43-2.239z" fill="#CD8FF7"/>
  <path d="M87.274 79.402l-2.088-3.106-1.977 3.127 4.065-.021z" fill="#AE6EFB"/>
  <path d="M90.74 86.338l1.24-2.733-6.443.649 5.203 2.084z" fill="#A868FB"/>
  <path d="M56.173 33.756l-.602 2.452 1.219-2.211-.617-.241z" fill="#CD8FF7"/>
  <path d="M79.627 73.26l3.892-.29-2.18-3.01-1.712 3.3z" fill="#B576FB"/>
  <path d="M57.511 34.334l-.722-.337.285 1.826.437-1.489zm0 0l-.437 1.489 1.022-1.168-.585-.32z" fill="#CD8FF7"/>
  <path d="M88.56 69.722l-3.254-1.953 2.1 5.568 1.154-3.615z" fill="#B475FB"/>
  <path d="M84.81 64.04l4.099-.426-1.873-2.608-2.226 3.034z" fill="#B97AFA"/>
  <path d="M62.368 43.918l4.92 1.216.63-3.586-5.55 2.37z" fill="#CA8CF8"/>
  <path d="M64.106 46.902l2.219 4.203 3.115-3.035-5.334-1.168z" fill="#C98BF8"/>
  <path d="M94.284 88.944l2.769-1.931-2.191-2.568-.578 4.499z" fill="#A564FB"/>
  <path d="M97.764 91.056l-5.007 2.154 3.753 1.718 1.254-3.872z" fill="#A262FB"/>
  <path d="M48.06 36.526l-2.111 3.068 3.042 2.136-.931-5.204z" fill="#CF91F7"/>
  <path d="M7.506 78.505l-1.19 2.725 1.959-2.252-.77-.473z" fill="#4E0AD4"/>
  <path d="M32.026 45.579l-2.077 1.883.585.736 1.492-2.619z" fill="#D193F6"/>
  <path d="M94.18 102.066l-3.102.581.255 1.719 2.847-2.3z" fill="#9959FA"/>
  <path d="M94.18 102.066l-3.733-2.769.632 3.35 3.101-.581z" fill="#9959FA"/>
  <path d="M90.74 86.338l-3.117 3.104 6.662-.498-3.545-2.606z" fill="#A868FB"/>
  <path d="M3.494 110.757l3.149-2.54-4.331.516 1.182 2.024z" fill="#520ED7"/>
  <path d="M87.623 89.442l1.055 3.135 5.607-3.633-6.662.498z" fill="#A666FB"/>
  <path d="M55.57 36.208l-1.572-1.082 1.328 4.188.245-3.106z" fill="#CD8FF7"/>
  <path d="M6.317 81.23l-.973 2.46 4.133 1.604-3.16-4.064z" fill="#4E0AD4"/>
  <path d="M87.623 89.442l3.117-3.104-4.395-.194 1.278 3.298z" fill="#A666FB"/>
  <path d="M102.143 91.921l-4.38-.865 1.956 4.683 2.424-3.818z" fill="#A160FB"/>
  <path d="M100.005 99.035l3.584-1.071-3.87-2.226.286 3.297z" fill="#9C5BFA"/>
  <path d="M60.84 52.606l.36-3.988-1.851 2.82 1.49 1.168z" fill="#C88AF8"/>
  <path d="M100.004 99.035l-.286-3.297-3.384 4.023 3.67-.726z" fill="#9C5BFA"/>
  <path d="M48.98 120.797l-.53 5.495 3.289-1.133-2.758-4.362z" fill="#6A27E7"/>
  <path d="M100.116 102.774l-3.782-3.013-.26 4.828 4.042-1.815z" fill="#9958FA"/>
  <path d="M101.275 88.999l-3.511 2.057 4.379.865-.868-2.922z" fill="#A363FB"/>
  <path d="M64.106 46.902l-4.67-1.16 1.764 2.876 2.906-1.716z" fill="#C98BF8"/>
  <path d="M55.326 39.314l1.748-3.491-1.503.385-.245 3.106z" fill="#CD8FF7"/>
  <path d="M90.74 86.338l3.544 2.606.578-4.499-4.122 1.893z" fill="#A868FB"/>
  <path d="M55.326 39.314l-2.394 3.965 4.756-1.933-2.362-2.032z" fill="#CD8FF7"/>
  <path d="M101.275 88.999l-1.019-3.051-3.203 1.065 4.222 1.986z" fill="#A363FB"/>
  <path d="M101.275 88.999l-4.222-1.986.71 4.043L101.275 89z" fill="#A363FB"/>
  <path d="M61.345 40.62l-2.544-2.193-1.113 2.92 3.657-.728zm-5.389 8.326l.04-4.381-1.957 3.066 1.917 1.315z" fill="#CB8DF8"/>
  <path d="M91.333 104.366l4.742.223-1.895-2.523-2.847 2.3z" fill="#9756F9"/>
  <path d="M104.473 103.58l-.372-2.742-3.985 1.936 4.357.806z" fill="#9857FA"/>
  <path d="M94.84 81.145l.022 3.3 4.304-1.43-4.327-1.87z" fill="#AA6AFB"/>
  <path d="M79.102 56.516l1.219 3.589 2.313-4.545-3.532.956z" fill="#BF80FA"/>
  <path d="M93.39 78.18l1.449 2.965 1.8-4.025-3.249 1.06zm-8.595 4.444l2.48-3.222-4.066.021 1.586 3.2z" fill="#AD6DFB"/>
  <path d="M64.094 129.52l-1.215 3.72 2.083-.373-.868-3.347z" fill="#7532ED"/>
  <path d="M36.901 128.155l-4.834-.642.747 3.665 4.087-3.023z" fill="#621FE2"/>
  <path d="M85.186 76.296l-1.666-3.325-2.034 3.33 3.7-.005z" fill="#B172FB"/>
  <path d="M93.39 78.18l-2.94-1.743.666 4.293 2.274-2.55z" fill="#AD6DFB"/>
  <path d="M75.725 52.667l-2.48-1.948-.739 3.404 3.22-1.456z" fill="#C284F9"/>
  <path d="M77.107 63.815L74.14 61.42l-.896 3.205 3.863-.812z" fill="#BC7DFA"/>
  <path d="M75.623 55.819l-3.117-1.696-.182 3.873 3.299-2.177z" fill="#C182F9"/>
  <path d="M80.476 53.124l-1.374 3.392 3.532-.956-2.158-2.436z" fill="#C081FA"/>
  <path d="M90.78 73.068l4.46 1.185-1.49-2.807-2.97 1.622z" fill="#B172FB"/>
  <path d="M87.274 79.402l-2.48 3.222.743 1.63 1.737-4.852z" fill="#AE6EFB"/>
  <path d="M77.634 70.3l3.704-.34-2.193-3.002-1.511 3.343z" fill="#B879FA"/>
  <path d="M83.52 72.97l1.786-5.2-3.968 2.19 2.182 3.01z" fill="#B475FB"/>
  <path d="M85.186 76.296l5.264.14-3.044-3.099-2.22 2.96z" fill="#B172FB"/>
  <path d="M68.321 59.283l4.003-1.287-3.132-2.285-.87 3.572z" fill="#C284F9"/>
  <path d="M90.78 73.068l-.33 3.369 4.789-2.184-4.46-1.185z" fill="#B172FB"/>
  <path d="M88.56 69.722l2.22 3.346 1.466-4.248-3.686.902z" fill="#B475FB"/>
  <path d="M85.306 67.77l-6.16-.813 2.192 3.003 3.968-2.19z" fill="#B777FB"/>
  <path d="M76.635 59.219l2.466-2.703-3.478-.697 1.012 3.4z" fill="#BF80FA"/>
  <path d="M83.3 61.234l3.736-.228-1.75-2.263-1.986 2.491zm0 0l-2.246 2.59 3.757.216-1.51-2.806z" fill="#BB7CFA"/>
  <path d="M85.306 67.77l-1.786 5.2 3.886.367-2.1-5.568z" fill="#B777FB"/>
  <path d="M88.909 63.614l-3.603 4.155 5.221-1.728-1.618-2.427z" fill="#B878FB"/>
  <path d="M79.102 56.516l1.374-3.392-4.75-.457 3.376 3.849z" fill="#BF80FA"/>
  <path d="M82.634 55.56l-2.313 4.545 4.965-1.362-2.652-3.183z" fill="#BE7FFA"/>
  <path d="M91.116 80.73l-3.842-1.328-1.737 4.852 5.58-3.524z" fill="#AC6CFB"/>
  <path d="M90.45 76.437l2.94 1.742 1.849-3.927-4.789 2.185z" fill="#AF6FFB"/>
  <path d="M76.635 59.219l-1.012-3.4-3.3 2.177 4.312 1.223z" fill="#BF80FA"/>
  <path d="M72.324 57.996l1.816 3.425 2.495-2.202-4.311-1.223z" fill="#C183F9"/>
  <path d="M37.186 58.601l1.81-1.704-1.571.754-.239.95z" fill="#D194F6"/>
  <path d="M16.939 87.693l-1.14-1.236.761 2.172.379-.936z" fill="#4F0BD5"/>
  <path d="M94.285 88.944l-5.607 3.633 4.08.633 1.527-4.266z" fill="#A564FB"/>
  <path d="M45.056 127.058l3.34 2.712.053-3.478-3.393.766z" fill="#6724E5"/>
  <path d="M50.78 134.067l2.44-4.817-4.824.52 2.384 4.297z" fill="#6B29E8"/>
  <path d="M65.801 126.512l-3.673.161 1.966 2.847 1.707-3.008z" fill="#7734EE"/>
  <path d="M80.32 60.105l-3.213 3.71 3.947.009-.733-3.72z" fill="#BD7EFA"/>
  <path d="M87.406 73.337l3.044 3.1.33-3.369-3.374.269z" fill="#B273FB"/>
  <path d="M48.99 41.73l3.942 1.55-.64-3.26-3.301 1.71z" fill="#CF91F7"/>
  <path d="M52.407 46.56l3.588-1.995-3.063-1.286-.526 3.28z" fill="#CE90F7"/>
  <path d="M82.414 123.704l-1.896-2.725-3.558 4.086 5.454-1.361z" fill="#8442F4"/>
  <path d="M85.504 125.876l-3.09-2.172 1.224 3.086 1.865-.914z" fill="#8543F4"/>
  <path d="M83.5 117.302l1.334 4.131 2.882-3.211-4.215-.92z" fill="#8745F5"/>
  <path d="M87.716 118.222l-2.882 3.21 4.868 2.132-1.986-5.342z" fill="#8948F6"/>
  <path d="M104.102 100.838l-4.097-1.803.111 3.739 3.986-1.936z" fill="#9A59FA"/>
  <path d="M103.589 97.964l-.695-3.154-3.176.928 3.871 2.226z" fill="#9C5BFA"/>
  <path d="M96.075 104.589l.26-4.828-2.155 2.305 1.894 2.523z" fill="#9756FA"/>
  <path d="M94.18 102.066l2.154-2.305-3.001-2.85.847 5.155z" fill="#9959FA"/>
  <path d="M97.053 87.013l-2.769 1.931 3.48 2.112-.711-4.043z" fill="#A565FB"/>
  <path d="M99.166 83.014l-2.113 3.999 3.203-1.065-1.09-2.934z" fill="#A868FB"/>
  <path d="M85.537 84.254l6.444-.65-.865-2.874-5.58 3.523z" fill="#AB6BFB"/>
  <path d="M90.74 86.338l4.122-1.893-2.882-.84-1.24 2.733z" fill="#A868FB"/>
  <path d="M87.07 109.516l-.28 4.863 3.889.706-3.61-5.569z" fill="#8E4CF7"/>
  <path d="M83.785 111.751l3.004 2.628-1.345-3.717-1.66 1.089z" fill="#8A48F6"/>
  <path d="M95.319 119.829l-4.121-1.287 2.484 2.461 1.637-1.174zm-4.641-4.745l-2.962 3.138 3.482.32-.52-3.458z" fill="#8D4CF7"/>
  <path d="M52.932 43.28l2.394-3.966-3.035.706.64 3.26z" fill="#CE90F7"/>
  <path d="M58.801 38.427l-3.475.887 2.362 2.032 1.113-2.92z" fill="#CC8EF7"/>
  <path d="M91.198 118.542l3.137-2.596-3.656-.862.52 3.458z" fill="#8C4AF7"/>
  <path d="M98.905 116.978l-4.57-1.032 2.842 2.457 1.728-1.425z" fill="#904FF8"/>
  <path d="M90.679 115.084l3.656.862-1.191-3.132-2.465 2.27z" fill="#8D4CF7"/>
  <path d="M96.971 113.271l-3.828-.457 1.192 3.132 2.636-2.675z" fill="#9150F8"/>
  <path d="M35.532 118.377l.934 3.973.837-3.47-1.771-.503zm-1.761 6.316l5.358.034-2.664-2.377-2.694 2.343z" fill="#601DE1"/>
  <path d="M6.871 92.424l-1.76 2.666L8.25 96.4l-1.378-3.976z" fill="#4F0BD5"/>
  <path d="M.83 100.315l4.146-2.034-3.775-.043-.37 2.077z" fill="#500CD6"/>
  <path d="M104.711 106.228l-4.874.149 2.553 2.557 2.321-2.706zm-8.636-1.639l3.762 1.788.279-3.603-4.041 1.815z" fill="#9756FA"/>
  <path d="M64.106 46.902l5.334 1.168-2.152-2.936-3.182 1.768z" fill="#C98BF8"/>
  <path d="M70.918 43.98l-3.63 1.154 2.152 2.936 1.478-4.09z" fill="#C789F8"/>
  <path d="M45.948 39.594l-3.35 1.87 3.025 1.84.325-3.71z" fill="#CF91F7"/>
  <path d="M39.152 39.838l3.446 1.626-.997-3.397-2.449 1.77z" fill="#D092F7"/>
  <path d="M62.128 126.673l2.162-3.403-3.557.376 1.395 3.027z" fill="#7431EC"/>
  <path d="M67.87 123.473l-3.58-.204 1.51 3.243 2.07-3.039z" fill="#7936EF"/>
  <path d="M62.878 133.239l-2.143-3.086-.08 3.417 2.223-.331z" fill="#7331EC"/>
  <path d="M62.128 126.673l-1.393 3.48 3.358-.634-1.965-2.846z" fill="#7431EC"/>
  <path d="M75.726 52.667l-.103 3.152 3.478.697-3.375-3.849z" fill="#C284F9"/>
  <path d="M75.805 48.356l-.079 4.311 2.508-1.912-2.43-2.399z" fill="#C485F9"/>
  <path d="M96.64 77.12l-1.8 4.025 3.11-1.102-1.31-2.923z" fill="#AD6DFB"/>
  <path d="M91.116 80.73l3.723.415-1.448-2.966-2.275 2.551z" fill="#AC6CFB"/>
  <path d="M102.143 91.921l-2.425 3.817 3.176-.928-.751-2.889z" fill="#A160FB"/>
  <path d="M96.334 99.76l3.384-4.022-3.208-.81-.176 4.833z" fill="#9B5BFA"/>
  <path d="M48.45 126.292l-2.26-2.444-1.134 3.21 3.394-.766z" fill="#6A27E7"/>
  <path d="M41.188 119.782l1.675 4.149.17-3.815-1.845-.334z" fill="#6421E3"/>
  <path d="M45.02 120.41l1.171 3.438.912-3.201-2.084-.237zm.037 6.648l1.134-3.21-3.327.083 2.193 3.127z" fill="#6724E5"/>
  <path d="M92.757 93.21l5.007-2.154-3.48-2.112-1.527 4.266z" fill="#A261FB"/>
  <path d="M97.763 91.056l-1.253 3.872 3.208.81-1.955-4.682z" fill="#A262FB"/>
  <path d="M90.78 73.068l-2.22-3.346-1.154 3.615 3.374-.269z" fill="#B172FB"/>
  <path d="M90.527 66.041l-1.967 3.681 3.686-.902-1.72-2.778z" fill="#B676FB"/>
  <path d="M81.054 63.824l4.252 3.945-.495-3.73-3.757-.215z" fill="#BB7CFA"/>
  <path d="M88.909 63.614l-4.099.425.496 3.73 3.603-4.155z" fill="#B878FB"/>
  <path d="M81.054 63.824l2.246-2.59-2.979-1.13.733 3.72z" fill="#BB7CFA"/>
  <path d="M87.036 61.006l-3.736.228 1.51 2.806 2.226-3.034z" fill="#BA7BFA"/>
  <path d="M15.386 111.897l5.002-.547-2.53-1.745-2.472 2.292z" fill="#5511D9"/>
  <path d="M9.955 115.92l4.397 2.061-1.647-4.043-2.75 1.982z" fill="#5410D9"/>
  <path d="M20.58 115.382l-.958 3.267 4.389-.2-3.432-3.067z" fill="#5814DB"/>
  <path d="M20.387 111.35l.192 4.032 2.34-2.471-2.532-1.561z" fill="#5713DA"/>
  <path d="M15.631 107.901l-.245 3.996 2.471-2.292-2.226-1.704z" fill="#5410D8"/>
  <path d="M12.705 113.938l4.537.772-1.856-2.813-2.68 2.041z" fill="#5511D9"/>
  <path d="M11.384 121.181l1.966 1.302 1.002-4.502-2.968 3.2z" fill="#5612DA"/>
  <path d="M13.35 122.483l2.023 1.239-1.02-5.741-1.002 4.502z" fill="#5713DA"/>
  <path d="M22.111 122.426l1.9-3.977-4.389.2 2.49 3.777z" fill="#5A16DD"/>
  <path d="M27.3 118.811l-3.29-.362 2.54 3.585.75-3.223z" fill="#5C18DE"/>
  <path d="M30.902 121.348l-4.353.686 2.87 3.515 1.483-4.201z" fill="#5E1ADF"/>
  <path d="M25.443 114.296l1.856 4.515.873-3.191-2.73-1.324z" fill="#5A16DC"/>
  <path d="M36.465 122.35l-5.563-1.002 2.869 3.345 2.694-2.343z" fill="#611EE2"/>
  <path d="M30.864 116.76l.038 4.588 2.822-3.546-2.86-1.042z" fill="#5D19DF"/>
  <path d="M11.507 93.679l-4.636-1.255L8.25 96.4l3.258-2.721z" fill="#4F0BD5"/>
  <path d="M7.347 87.815l-.476 4.61 3.195-2.739-2.719-1.871z" fill="#4F0BD5"/>
  <path d="M1.668 95.977l3.443-.887-2.945-1.237-.498 2.124z" fill="#500CD5"/>
  <path d="M8.25 96.4l-3.14-1.31-.135 3.192L8.25 96.4z" fill="#500CD5"/>
  <path d="M11.253 98.028l.254-4.35L8.249 96.4l3.004 1.628z" fill="#500CD5"/>
  <path d="M15.858 93.463l-4.35.216 3.699 2.08.651-2.296zm.702-4.834l-3.328 2.17 3.324.463.004-2.633zm-6.494 1.057l1.44 3.993 1.726-2.88-3.166-1.113z" fill="#4F0BD5"/>
</svg>
